<svg xmlns="http://www.w3.org/2000/svg" xmlns:xlink="http://www.w3.org/1999/xlink" width="500" zoomAndPan="magnify" viewBox="0 0 375 374.999991" height="500" preserveAspectRatio="xMidYMid meet" version="1.2"><defs><clipPath id="677658cc9f"><path d="M 91 93.417969 L 284 93.417969 L 284 281.667969 L 91 281.667969 Z M 91 93.417969 "/></clipPath><clipPath id="f1776f7827"><path d="M 177.324219 154.585938 L 262 154.585938 L 262 239.335938 L 177.324219 239.335938 Z M 177.324219 154.585938 "/></clipPath></defs><g id="b1c49ca2f4"><g clip-rule="nonzero" clip-path="url(#677658cc9f)"><path style=" stroke:none;fill-rule:nonzero;fill:#0381ff;fill-opacity:1;" d="M 254.605469 259.210938 C 256.226562 260.183594 257.5 261.289062 259.3125 261.800781 C 262.398438 262.667969 265.539062 263.242188 268.644531 263.988281 C 270.183594 264.355469 271.796875 264.414062 273.382812 264.578125 C 275.929688 264.84375 278.460938 265.128906 280.707031 266.554688 C 282.097656 267.441406 283.074219 268.578125 283.207031 270.273438 C 283.246094 270.734375 283.21875 271.238281 283.0625 271.667969 C 282.464844 273.316406 281.464844 274.617188 279.785156 275.324219 C 278.15625 276.007812 276.558594 276.765625 274.933594 277.457031 C 273.386719 278.117188 271.722656 278.25 270.082031 278.203125 C 267.332031 278.128906 264.582031 277.898438 261.832031 277.71875 C 261.402344 277.691406 260.984375 277.550781 260.554688 277.5 C 256.957031 277.050781 253.34375 276.753906 249.722656 276.675781 C 248.128906 276.640625 246.527344 276.871094 244.9375 277.050781 C 242.320312 277.351562 239.71875 277.792969 237.113281 278.175781 C 235.183594 278.457031 233.328125 278.917969 231.441406 279.363281 C 229.28125 279.875 227.054688 280.210938 224.800781 280.175781 C 223.890625 280.160156 222.976562 280.128906 222.070312 280.15625 C 220.371094 280.203125 218.703125 280.132812 217.078125 279.503906 C 216.453125 279.261719 215.707031 279.339844 215.027344 279.222656 C 212.5625 278.796875 210.113281 278.296875 207.640625 277.933594 C 205.894531 277.679688 204.121094 277.605469 202.359375 277.453125 C 201.542969 277.382812 200.726562 277.316406 199.910156 277.246094 C 198.445312 277.121094 196.976562 277.039062 195.519531 276.855469 C 194.386719 276.710938 193.386719 276.984375 192.378906 277.457031 C 191.894531 277.683594 191.324219 277.746094 190.785156 277.855469 C 190.363281 277.941406 189.929688 277.972656 189.507812 278.046875 C 187.011719 278.484375 184.515625 278.921875 182.023438 279.371094 C 181.304688 279.503906 180.589844 279.679688 179.875 279.835938 C 178.683594 280.089844 177.492188 280.347656 176.296875 280.601562 C 175.496094 280.769531 174.683594 280.890625 173.898438 281.101562 C 172.324219 281.527344 170.71875 281.351562 169.140625 281.339844 C 166.511719 281.324219 163.882812 281.097656 161.261719 280.878906 C 159.28125 280.710938 157.308594 280.453125 155.34375 280.152344 C 154.238281 279.980469 153.152344 279.648438 152.066406 279.371094 C 150.898438 279.070312 149.75 278.699219 148.578125 278.445312 C 146.59375 278.011719 144.609375 277.570312 142.605469 277.261719 C 139.34375 276.761719 136.042969 276.507812 132.773438 277.019531 C 130.910156 277.3125 129.039062 277.652344 127.1875 278.109375 C 124.570312 278.757812 121.882812 279.230469 119.136719 279.128906 C 117.761719 279.078125 116.386719 279.191406 115.011719 279.238281 C 111.496094 279.367188 108.570312 278.074219 106.300781 275.4375 C 105.070312 274.007812 104.867188 271.03125 105.847656 269.5625 C 106.511719 268.570312 107.230469 267.710938 108.199219 267.011719 C 110.25 265.527344 112.398438 264.273438 115.109375 263.777344 C 114.46875 262.78125 113.929688 261.921875 113.363281 261.085938 C 112.054688 259.15625 110.570312 257.324219 109.457031 255.292969 C 107.957031 252.539062 106.132812 249.941406 105.226562 246.871094 C 104.9375 245.894531 104.265625 245.042969 103.828125 244.101562 C 103.238281 242.847656 102.679688 241.578125 102.15625 240.296875 C 101.175781 237.894531 100.179688 235.492188 99.289062 233.054688 C 98.582031 231.113281 98.035156 229.109375 97.398438 227.136719 C 96.976562 225.828125 96.496094 224.535156 96.089844 223.21875 C 95.769531 222.191406 95.527344 221.140625 95.238281 220.105469 C 94.542969 217.628906 94.078125 215.117188 93.628906 212.585938 C 93.003906 209.039062 92.527344 205.484375 92.273438 201.894531 C 92.15625 200.253906 91.976562 198.617188 91.925781 196.976562 C 91.84375 194.132812 91.796875 191.289062 91.816406 188.445312 C 91.839844 184.476562 92.164062 180.519531 92.417969 176.558594 C 92.582031 173.949219 93.148438 171.449219 93.609375 168.914062 C 93.894531 167.351562 94.132812 165.777344 94.445312 164.222656 C 94.667969 163.121094 94.921875 162.023438 95.261719 160.953125 C 96.140625 158.148438 96.9375 155.328125 98.101562 152.605469 C 99.207031 150.015625 100.484375 147.523438 101.820312 145.066406 C 102.800781 143.253906 104.109375 141.601562 105.40625 139.984375 C 106.648438 138.433594 107.972656 136.929688 109.417969 135.578125 C 111.085938 134.023438 112.988281 132.714844 114.683594 131.183594 C 115.941406 130.042969 117.40625 129.382812 118.960938 128.828125 C 119.117188 128.769531 119.25 128.648438 119.421875 128.539062 C 119.15625 125.640625 118.554688 122.800781 117.640625 120.066406 C 116.988281 118.113281 115.9375 116.292969 115.042969 114.429688 C 114.5 113.292969 113.898438 112.1875 113.363281 111.050781 C 112.617188 109.457031 111.484375 108.160156 110.289062 106.898438 C 109.8125 106.390625 109.234375 106.335938 108.621094 106.378906 C 107.765625 106.4375 106.910156 106.5625 106.054688 106.585938 C 104.019531 106.640625 102.257812 105.558594 102.03125 103.53125 C 101.867188 102.066406 101.875 100.585938 102.375 99.160156 C 102.789062 97.984375 103.425781 96.984375 104.554688 96.371094 C 107.511719 94.765625 111.65625 95.742188 112.390625 99.816406 C 112.769531 101.933594 112.835938 101.949219 112.003906 104.328125 C 112.71875 105.046875 113.527344 105.761719 114.214844 106.574219 C 115.902344 108.570312 117.214844 110.808594 118.335938 113.160156 C 118.929688 114.40625 119.542969 115.65625 120.007812 116.953125 C 120.816406 119.191406 121.5625 121.457031 122.234375 123.738281 C 122.574219 124.886719 122.707031 126.101562 122.96875 127.464844 C 126.347656 126.128906 129.773438 126.523438 133.367188 127.019531 C 133.230469 125.324219 133.03125 123.792969 133 122.253906 C 132.90625 117.835938 132.792969 113.414062 133.414062 109.023438 C 133.636719 107.441406 134.039062 105.882812 134.40625 104.328125 C 134.550781 103.726562 134.488281 103.3125 134.042969 102.8125 C 133.613281 102.320312 133.277344 101.628906 133.175781 100.984375 C 132.882812 99.085938 133.03125 97.253906 134.628906 95.875 C 135.089844 95.480469 135.574219 95.117188 136.066406 94.765625 C 137.917969 93.441406 139.582031 93.695312 141.3125 95.328125 C 142.75 96.679688 143.035156 98.417969 142.96875 100.277344 C 142.960938 100.578125 142.875 100.882812 142.898438 101.179688 C 142.945312 101.847656 142.660156 102.332031 142.1875 102.773438 C 140.96875 103.925781 139.671875 104.898438 137.875 104.867188 C 137.421875 104.859375 137.203125 105.097656 137.089844 105.558594 C 136.667969 107.289062 136.613281 109.042969 136.535156 110.808594 C 136.433594 113.1875 136.222656 115.558594 136.101562 117.9375 C 136.027344 119.453125 136.019531 120.96875 136.007812 122.484375 C 135.996094 123.738281 136.027344 124.984375 136.050781 126.238281 C 136.070312 127.425781 136.082031 127.421875 137.1875 127.78125 C 138.738281 128.285156 140.296875 128.777344 141.832031 129.324219 C 143.785156 130.015625 145.609375 130.90625 147.070312 132.476562 C 147.699219 133.15625 148.628906 133.550781 149.398438 134.109375 C 150.511719 134.921875 151.378906 135.964844 152.171875 137.085938 C 152.589844 137.679688 153.128906 138.183594 153.566406 138.765625 C 154.34375 139.796875 155.089844 140.859375 155.847656 141.90625 C 155.871094 141.941406 155.910156 141.976562 155.917969 142.015625 C 156.289062 143.535156 157.332031 144.753906 157.820312 146.222656 C 158.125 147.125 158.304688 148.085938 158.730469 148.925781 C 159.449219 150.332031 159.875 151.800781 160.210938 153.332031 C 160.417969 154.292969 160.882812 155.195312 161.183594 156.140625 C 161.425781 156.914062 161.59375 157.707031 161.808594 158.535156 C 162.441406 158.460938 162.605469 157.964844 162.890625 157.621094 C 164.300781 155.929688 165.546875 154.058594 167.160156 152.589844 C 168.425781 151.4375 169.613281 150.191406 170.941406 149.105469 C 171.871094 148.339844 172.945312 147.757812 173.9375 147.066406 C 175.21875 146.179688 176.542969 145.339844 177.742188 144.34375 C 179.71875 142.714844 182.066406 141.824219 184.347656 140.800781 C 186.359375 139.898438 188.367188 138.984375 190.429688 138.210938 C 193.175781 137.179688 195.957031 136.257812 198.875 135.777344 C 200.402344 135.527344 201.894531 135.050781 203.402344 134.683594 C 203.949219 134.550781 204.492188 134.378906 205.050781 134.328125 C 207.460938 134.101562 209.878906 133.855469 212.300781 133.730469 C 213.800781 133.648438 215.320312 133.730469 216.824219 133.828125 C 218.585938 133.941406 220.34375 134.121094 222.101562 134.328125 C 223.214844 134.457031 224.335938 134.609375 225.417969 134.886719 C 227.507812 135.421875 229.566406 136.066406 231.648438 136.632812 C 233.742188 137.203125 235.761719 137.953125 237.71875 138.894531 C 239.859375 139.921875 242.023438 140.894531 244.195312 141.851562 C 246.460938 142.851562 248.476562 144.261719 250.507812 145.640625 C 252.042969 146.679688 253.65625 147.617188 255.121094 148.738281 C 256.734375 149.972656 258.261719 151.328125 259.757812 152.703125 C 261.835938 154.605469 263.792969 156.609375 265.390625 158.964844 C 267.351562 161.859375 269.371094 164.695312 270.980469 167.832031 C 272.132812 170.078125 272.992188 172.40625 273.839844 174.761719 C 274.542969 176.710938 275.507812 178.566406 276.195312 180.519531 C 276.761719 182.132812 277.152344 183.816406 277.511719 185.492188 C 277.933594 187.472656 278.242188 189.476562 278.601562 191.472656 C 278.933594 193.324219 279.300781 195.167969 279.605469 197.023438 C 279.761719 197.960938 279.878906 198.910156 279.917969 199.859375 C 280 201.882812 280.121094 203.914062 280.039062 205.933594 C 279.921875 208.734375 279.65625 211.527344 279.414062 214.320312 C 279.300781 215.648438 279.164062 216.984375 278.914062 218.292969 C 278.464844 220.664062 278.007812 223.042969 277.386719 225.371094 C 277.027344 226.71875 276.320312 227.976562 275.808594 229.292969 C 275.234375 230.777344 274.734375 232.289062 274.148438 233.769531 C 273.414062 235.617188 272.722656 237.492188 271.835938 239.261719 C 270.988281 240.957031 269.941406 242.546875 268.925781 244.152344 C 267.75 246.015625 266.566406 247.875 265.28125 249.660156 C 264.53125 250.707031 263.617188 251.652344 262.699219 252.554688 C 261.558594 253.671875 260.367188 254.734375 259.140625 255.75 C 258.105469 256.601562 256.988281 257.34375 255.914062 258.148438 C 255.507812 258.453125 255.121094 258.789062 254.597656 259.210938 Z M 156.464844 179.402344 C 156.871094 179.46875 157.117188 179.488281 157.359375 179.546875 C 158.367188 179.792969 159.371094 180.046875 160.375 180.296875 C 160.859375 180.417969 161.082031 180.761719 161.140625 181.234375 C 161.203125 181.78125 160.929688 182.148438 160.480469 182.398438 C 160.007812 182.660156 159.542969 182.695312 158.996094 182.492188 C 157.984375 182.113281 156.9375 181.792969 155.789062 182.308594 C 155.550781 183.558594 155.3125 184.832031 155.0625 186.105469 C 154.9375 186.75 155.21875 187.082031 155.835938 187.210938 C 156.730469 187.398438 157.609375 187.640625 158.503906 187.804688 C 160.441406 188.15625 162.324219 188.875 164.367188 188.503906 C 165.121094 188.363281 165.65625 189.238281 165.28125 189.925781 C 165.089844 190.269531 164.71875 190.585938 164.355469 190.761719 C 163.445312 191.203125 162.472656 191.382812 161.457031 191.152344 C 159.316406 190.664062 157.105469 190.433594 155.097656 189.445312 C 154.964844 189.382812 154.785156 189.410156 154.574219 189.394531 C 154.449219 190.882812 154.3125 192.296875 154.210938 193.714844 C 153.925781 197.648438 154.003906 201.582031 154.335938 205.503906 C 154.503906 207.484375 154.863281 209.453125 155.246094 211.410156 C 155.617188 213.316406 156.078125 215.207031 156.585938 217.082031 C 157.207031 219.375 157.875 221.652344 158.601562 223.914062 C 159.085938 225.433594 159.703125 226.910156 160.257812 228.40625 C 160.847656 230.011719 161.25 231.703125 162.414062 233.042969 C 162.609375 233.265625 162.714844 233.566406 162.867188 233.828125 C 163.902344 235.5625 164.902344 237.324219 165.980469 239.03125 C 167.3125 241.148438 168.761719 243.1875 170.503906 244.996094 C 171.398438 245.925781 172.382812 246.777344 173.296875 247.691406 C 174.433594 248.820312 175.4375 250.09375 176.675781 251.089844 C 179.0625 253.003906 181.261719 255.175781 183.96875 256.671875 C 185.480469 257.503906 186.972656 258.371094 188.820312 257.535156 C 189.515625 257.222656 190.316406 257.109375 191.078125 257.019531 C 193.726562 256.695312 195.699219 255.199219 197.542969 253.441406 C 198.003906 253 198.550781 252.632812 199.097656 252.296875 C 199.59375 251.988281 200.160156 251.792969 200.632812 252.339844 C 201.09375 252.867188 200.859375 253.417969 200.519531 253.886719 C 200.140625 254.410156 199.726562 254.914062 199.269531 255.363281 C 197.816406 256.792969 196.386719 258.257812 194.308594 258.796875 C 193.644531 258.96875 192.984375 259.164062 192.328125 259.375 C 191.988281 259.484375 191.667969 259.65625 191.132812 259.890625 C 192.363281 260.441406 193.324219 260.929688 194.332031 261.308594 C 195.191406 261.628906 196.085938 261.683594 197.003906 261.359375 C 198.675781 260.769531 200.320312 260.140625 201.910156 259.34375 C 204.585938 258.003906 206.964844 256.394531 208.410156 253.632812 C 209.1875 252.144531 210.195312 250.777344 211.113281 249.367188 C 211.273438 249.121094 211.476562 248.824219 211.726562 248.726562 C 212.097656 248.585938 212.625 248.4375 212.902344 248.601562 C 213.199219 248.777344 213.363281 249.296875 213.441406 249.695312 C 213.488281 249.953125 213.273438 250.257812 213.171875 250.539062 C 212.335938 252.800781 210.984375 254.773438 209.628906 256.730469 C 208.824219 257.898438 207.929688 259.09375 206.816406 259.929688 C 205.414062 260.984375 203.75 261.683594 202.191406 262.53125 C 201.871094 262.707031 201.527344 262.847656 200.902344 263.140625 C 202.898438 263.554688 204.570312 263.917969 206.253906 264.246094 C 208.246094 264.636719 210.257812 264.765625 212.292969 264.707031 C 214.144531 264.652344 216.003906 264.679688 217.859375 264.65625 C 218.679688 264.640625 219.5 264.554688 220.316406 264.5625 C 222.34375 264.578125 224.371094 264.773438 226.398438 264.535156 C 228.203125 264.320312 230.046875 264.304688 231.808594 263.898438 C 234.957031 263.175781 238.164062 262.730469 241.253906 261.664062 C 243.710938 260.820312 246.175781 260.046875 248.46875 258.816406 C 252.207031 256.808594 255.839844 254.664062 258.941406 251.6875 C 260.660156 250.039062 262.414062 248.46875 263.632812 246.386719 C 264.898438 244.226562 266.34375 242.152344 267.410156 239.898438 C 269.351562 235.804688 271.070312 231.605469 272.617188 227.34375 C 273.976562 223.597656 274.863281 219.742188 275.515625 215.8125 C 275.914062 213.425781 275.875 211.011719 276.140625 208.617188 C 276.289062 207.296875 276.191406 205.941406 276.160156 204.605469 C 276.113281 202.488281 276.09375 200.363281 275.941406 198.253906 C 275.828125 196.710938 275.390625 195.183594 275.324219 193.640625 C 275.222656 191.339844 274.570312 189.164062 274.105469 186.945312 C 273.480469 183.972656 272.296875 181.175781 271.253906 178.339844 C 270.394531 175.996094 269.46875 173.664062 268.398438 171.40625 C 267.304688 169.105469 266 166.902344 264.773438 164.664062 C 264.652344 164.4375 264.417969 164.269531 264.152344 163.992188 C 264.054688 164.3125 263.996094 164.472656 263.957031 164.636719 C 263.300781 167.34375 262.273438 169.910156 260.980469 172.371094 C 260.246094 173.761719 259.300781 174.976562 257.875 175.757812 C 257.375 176.035156 256.898438 176.148438 256.433594 175.765625 C 256.027344 175.4375 256.066406 174.894531 256.480469 174.265625 C 258.027344 171.921875 259.550781 169.5625 260.390625 166.851562 C 260.914062 165.160156 261.386719 163.449219 261.847656 161.738281 C 262.128906 160.703125 261.933594 159.808594 261.070312 159.046875 C 260.097656 158.195312 259.226562 157.230469 258.292969 156.339844 C 258.132812 156.1875 257.863281 156.152344 257.578125 156.035156 C 257.167969 157.960938 256.425781 159.652344 255.492188 161.261719 C 255.257812 161.667969 254.941406 162.046875 254.589844 162.351562 C 254.179688 162.710938 253.660156 162.886719 253.167969 162.492188 C 252.679688 162.101562 252.730469 161.613281 252.96875 161.078125 C 253.582031 159.699219 254.253906 158.339844 254.742188 156.914062 C 255.054688 155.996094 255.113281 154.976562 255.207031 153.996094 C 255.226562 153.78125 254.953125 153.472656 254.738281 153.308594 C 253.789062 152.570312 252.808594 151.871094 251.835938 151.160156 C 251.449219 150.875 251.066406 150.589844 250.5 150.171875 C 250.285156 152.609375 249.753906 154.667969 248.929688 156.6875 C 248.167969 158.550781 247.261719 160.300781 246.050781 161.878906 C 245.691406 162.347656 245.015625 162.652344 244.425781 162.847656 C 243.726562 163.078125 243.226562 162.597656 243.296875 161.867188 C 243.324219 161.574219 243.433594 161.273438 243.570312 161.007812 C 244.382812 159.4375 245.179688 157.859375 246.042969 156.324219 C 247.277344 154.121094 247.582031 151.691406 247.816406 149.246094 C 247.863281 148.769531 247.703125 148.324219 247.214844 148.039062 C 246.511719 147.625 245.84375 147.148438 245.148438 146.714844 C 244.203125 146.125 243.289062 145.464844 242.292969 144.988281 C 240.660156 144.210938 238.976562 143.53125 237.300781 142.851562 C 234.386719 141.667969 231.535156 140.320312 228.445312 139.605469 C 227.65625 139.421875 226.921875 138.992188 226.132812 138.824219 C 224.320312 138.4375 222.492188 138.101562 220.660156 137.820312 C 219.125 137.582031 217.574219 137.382812 216.027344 137.292969 C 214.742188 137.21875 213.445312 137.410156 212.160156 137.34375 C 209.066406 137.179688 206.058594 137.8125 203.039062 138.285156 C 201.257812 138.566406 199.492188 139 197.75 139.488281 C 195.085938 140.226562 192.425781 141.003906 189.808594 141.898438 C 187.5625 142.664062 185.363281 143.566406 183.175781 144.496094 C 181.785156 145.085938 180.382812 145.71875 179.128906 146.546875 C 177.691406 147.492188 176.402344 148.660156 175.066406 149.753906 C 173.132812 151.339844 171.222656 152.953125 169.621094 154.902344 C 168.46875 156.300781 167.226562 157.625 166.070312 159.015625 C 165.519531 159.679688 165.136719 160.492188 164.546875 161.113281 C 163.546875 162.171875 162.863281 163.410156 162.21875 164.683594 C 162.003906 165.109375 161.910156 165.605469 161.640625 165.984375 C 160.621094 167.421875 160.199219 169.113281 159.5625 170.710938 C 158.777344 172.671875 158.042969 174.65625 157.324219 176.640625 C 157.003906 177.523438 156.769531 178.433594 156.46875 179.414062 Z M 159.199219 163.09375 C 158.949219 162.558594 158.621094 162.070312 158.496094 161.535156 C 157.855469 158.746094 157.1875 155.980469 156.152344 153.304688 C 155.148438 150.726562 154.359375 148.054688 153.214844 145.542969 C 152.492188 143.953125 151.3125 142.566406 150.3125 141.105469 C 149.808594 140.367188 149.296875 139.625 148.714844 138.945312 C 147.878906 137.96875 146.992188 137.03125 146.09375 136.105469 C 145.679688 135.675781 145.246094 135.1875 144.71875 134.949219 C 142.402344 133.914062 140.3125 132.402344 137.84375 131.703125 C 136.390625 131.289062 134.949219 130.804688 133.472656 130.488281 C 131.179688 130.003906 128.839844 130.070312 126.511719 130.121094 C 126.125 130.128906 125.71875 130.144531 125.359375 130.265625 C 122.835938 131.140625 120.222656 131.695312 117.777344 132.886719 C 115.027344 134.222656 112.683594 135.980469 110.726562 138.265625 C 108.589844 140.761719 106.59375 143.375 104.9375 146.226562 C 104.375 147.191406 103.808594 148.160156 103.332031 149.167969 C 102.582031 150.769531 101.800781 152.371094 101.21875 154.035156 C 100.316406 156.609375 99.507812 159.21875 98.785156 161.847656 C 98.160156 164.121094 97.644531 166.4375 97.203125 168.757812 C 96.867188 170.515625 96.726562 172.308594 96.5 174.089844 C 96.386719 174.980469 96.253906 175.867188 96.167969 176.761719 C 96 178.5625 95.847656 180.367188 95.710938 182.171875 C 95.660156 182.808594 95.636719 183.449219 95.640625 184.089844 C 95.652344 185.898438 95.703125 187.703125 95.707031 189.511719 C 95.707031 191.140625 95.628906 192.773438 95.65625 194.402344 C 95.667969 195.25 95.984375 196.117188 95.886719 196.941406 C 95.601562 199.347656 96.246094 201.671875 96.382812 204.039062 C 96.535156 206.699219 97 209.34375 97.367188 211.992188 C 97.464844 212.703125 97.832031 213.402344 97.835938 214.109375 C 97.855469 215.910156 98.601562 217.550781 98.863281 219.289062 C 98.992188 220.132812 99.367188 220.9375 99.628906 221.761719 C 100.054688 223.121094 100.472656 224.488281 100.90625 225.84375 C 101.527344 227.777344 102.09375 229.730469 102.800781 231.628906 C 103.828125 234.371094 104.941406 237.078125 106.054688 239.78125 C 106.957031 241.972656 107.886719 244.15625 108.871094 246.3125 C 109.570312 247.847656 110.492188 249.289062 111.105469 250.851562 C 111.65625 252.253906 112.730469 253.257812 113.449219 254.519531 C 114.1875 255.816406 115.136719 256.992188 115.957031 258.242188 C 117.0625 259.9375 118.117188 261.664062 119.238281 263.347656 C 120.023438 264.527344 119.761719 265.523438 118.460938 266.03125 C 116.210938 266.914062 113.949219 267.792969 111.707031 268.699219 C 111.109375 268.941406 110.511719 269.238281 110.003906 269.625 C 109.644531 269.898438 109.410156 270.355469 109.160156 270.746094 C 108.75 271.378906 109.28125 271.898438 109.40625 272.464844 C 109.589844 273.3125 109.757812 274.148438 110.730469 274.527344 C 111.566406 274.847656 112.34375 275.539062 113.183594 275.597656 C 114.933594 275.722656 116.707031 275.5625 118.46875 275.480469 C 119.375 275.433594 120.273438 275.207031 121.175781 275.21875 C 123.808594 275.246094 126.304688 274.5 128.820312 273.929688 C 131.640625 273.289062 134.476562 273.128906 137.339844 273.203125 C 141.382812 273.308594 145.339844 274.078125 149.292969 274.851562 C 151.113281 275.210938 152.90625 275.710938 154.691406 276.210938 C 156.742188 276.792969 158.828125 277.085938 160.953125 277.207031 C 163.5 277.351562 166.042969 277.558594 168.589844 277.71875 C 169.324219 277.765625 170.074219 277.835938 170.796875 277.75 C 173.796875 277.394531 176.757812 276.839844 179.6875 276.0625 C 181.398438 275.609375 183.15625 275.324219 184.90625 275.027344 C 186.5625 274.746094 188.25 274.617188 189.898438 274.285156 C 191.976562 273.863281 194.078125 273.738281 196.175781 273.671875 C 198.363281 273.605469 200.558594 273.707031 202.75 273.792969 C 204.171875 273.847656 205.59375 273.964844 207.003906 274.132812 C 208.109375 274.265625 209.1875 274.617188 210.292969 274.707031 C 212.007812 274.851562 213.691406 275.160156 215.367188 275.5 C 216.550781 275.742188 217.710938 275.984375 218.925781 276.066406 C 222.210938 276.28125 225.46875 276.445312 228.761719 276.03125 C 230.433594 275.824219 232.078125 275.519531 233.726562 275.21875 C 236.105469 274.785156 238.449219 274.164062 240.832031 273.773438 C 242.878906 273.4375 244.957031 273.300781 247.023438 273.101562 C 248.007812 273.007812 248.996094 272.910156 249.984375 272.933594 C 251.828125 272.972656 253.667969 273.105469 255.507812 273.183594 C 256.414062 273.21875 257.382812 273.011719 258.210938 273.277344 C 259.179688 273.589844 260.144531 273.652344 261.125 273.777344 C 261.59375 273.839844 262.082031 273.789062 262.546875 273.875 C 264.066406 274.152344 265.585938 274.359375 267.136719 274.433594 C 270.105469 274.570312 273.003906 274.253906 275.867188 273.449219 C 277.121094 273.097656 278.078125 272.292969 279.125 271.625 C 279.5 271.382812 279.789062 270.933594 279.5 270.507812 C 279.199219 270.066406 278.792969 269.613281 278.320312 269.402344 C 277.582031 269.070312 276.761719 268.886719 275.960938 268.730469 C 274.070312 268.355469 272.15625 268.1875 270.234375 268.011719 C 267.945312 267.800781 265.691406 267.1875 263.429688 266.714844 C 262.382812 266.496094 261.359375 266.15625 260.3125 265.941406 C 256.878906 265.230469 254.027344 263.460938 251.363281 261.195312 C 250.035156 261.769531 248.636719 262.453125 247.1875 262.992188 C 244.203125 264.105469 241.234375 265.28125 238.179688 266.160156 C 236.039062 266.777344 233.765625 266.929688 231.554688 267.308594 C 230.660156 267.460938 229.78125 267.746094 228.886719 267.8125 C 226.21875 268.007812 223.542969 268.121094 220.871094 268.265625 C 220.308594 268.292969 219.746094 268.367188 219.183594 268.355469 C 216.078125 268.265625 212.96875 268.132812 209.859375 268.070312 C 206.910156 268.011719 204.003906 267.585938 201.132812 266.960938 C 199.621094 266.632812 198.152344 266.109375 196.664062 265.660156 C 195.929688 265.4375 195.113281 265.328125 194.488281 264.921875 C 193.441406 264.242188 192.253906 264.078125 191.132812 263.664062 C 188.101562 262.539062 185.042969 261.429688 182.316406 259.636719 C 180.476562 258.429688 178.628906 257.21875 176.894531 255.863281 C 174.925781 254.324219 173.082031 252.636719 171.191406 251 C 170.804688 250.667969 170.46875 250.277344 170.101562 249.917969 C 169.023438 248.875 167.859375 247.902344 166.882812 246.765625 C 165.449219 245.09375 164.113281 243.335938 162.8125 241.558594 C 161.84375 240.238281 160.910156 238.882812 160.109375 237.457031 C 159.1875 235.804688 158.4375 234.050781 157.597656 232.351562 C 156.324219 229.78125 155.605469 227.011719 154.707031 224.304688 C 154.261719 222.960938 153.910156 221.582031 153.558594 220.207031 C 153.214844 218.875 153.011719 217.496094 152.585938 216.195312 C 151.316406 212.285156 151.089844 208.199219 150.550781 204.175781 C 150.246094 201.886719 150.480469 199.523438 150.519531 197.191406 C 150.550781 195.460938 150.585938 193.730469 150.757812 192.011719 C 151.023438 189.347656 151.359375 186.683594 151.765625 184.035156 C 151.945312 182.84375 152.421875 181.699219 152.679688 180.515625 C 153.234375 177.992188 153.800781 175.476562 154.777344 173.070312 C 154.984375 172.550781 155.203125 172.035156 155.398438 171.511719 C 155.957031 170.019531 156.429688 168.492188 157.078125 167.042969 C 157.691406 165.671875 158.488281 164.386719 159.191406 163.09375 Z M 106.699219 103.6875 C 107.042969 103.625 107.253906 103.578125 107.464844 103.550781 C 108.835938 103.378906 109.4375 102.40625 108.933594 101.125 C 108.757812 100.683594 108.472656 100.292969 108.277344 99.859375 C 107.984375 99.207031 107.460938 99.058594 106.800781 99.050781 C 106.121094 99.046875 105.785156 99.460938 105.519531 99.972656 C 105.054688 100.867188 105.300781 102.683594 106.007812 103.378906 C 106.199219 103.566406 106.53125 103.617188 106.699219 103.683594 Z M 136.195312 100.363281 C 136.261719 100.523438 136.324219 101.070312 136.617188 101.28125 C 137.257812 101.730469 138.800781 101.511719 139.316406 101.039062 C 139.824219 100.578125 139.875 99.609375 139.441406 98.632812 C 139.425781 98.59375 139.402344 98.558594 139.382812 98.519531 C 139.121094 97.972656 138.902344 97.390625 138.117188 97.453125 C 137.277344 97.523438 136.605469 98.003906 136.40625 98.78125 C 136.300781 99.191406 136.289062 99.632812 136.195312 100.363281 Z M 136.195312 100.363281 "/></g><path style=" stroke:none;fill-rule:nonzero;fill:#ffffff;fill-opacity:1;" d="M 156.464844 179.402344 C 156.765625 178.421875 157 177.511719 157.320312 176.628906 C 158.042969 174.644531 158.773438 172.660156 159.554688 170.699219 C 160.195312 169.105469 160.617188 167.410156 161.636719 165.972656 C 161.90625 165.59375 162.003906 165.097656 162.214844 164.671875 C 162.855469 163.398438 163.542969 162.160156 164.542969 161.101562 C 165.132812 160.480469 165.515625 159.667969 166.066406 159.003906 C 167.222656 157.613281 168.464844 156.289062 169.613281 154.886719 C 171.214844 152.941406 173.125 151.328125 175.0625 149.742188 C 176.398438 148.648438 177.6875 147.480469 179.125 146.535156 C 180.378906 145.707031 181.78125 145.078125 183.171875 144.484375 C 185.355469 143.554688 187.558594 142.652344 189.804688 141.886719 C 192.421875 140.992188 195.078125 140.21875 197.746094 139.472656 C 199.484375 138.988281 201.25 138.554688 203.035156 138.273438 C 206.054688 137.800781 209.0625 137.167969 212.15625 137.332031 C 213.441406 137.402344 214.738281 137.207031 216.019531 137.28125 C 217.570312 137.371094 219.117188 137.570312 220.65625 137.808594 C 222.488281 138.089844 224.316406 138.425781 226.128906 138.8125 C 226.917969 138.980469 227.652344 139.410156 228.441406 139.59375 C 231.527344 140.308594 234.378906 141.660156 237.292969 142.839844 C 238.972656 143.519531 240.652344 144.199219 242.285156 144.976562 C 243.285156 145.453125 244.199219 146.113281 245.144531 146.703125 C 245.839844 147.136719 246.507812 147.609375 247.210938 148.023438 C 247.695312 148.3125 247.859375 148.757812 247.8125 149.234375 C 247.574219 151.679688 247.273438 154.109375 246.035156 156.3125 C 245.171875 157.851562 244.378906 159.425781 243.566406 160.992188 C 243.429688 161.261719 243.316406 161.558594 243.289062 161.855469 C 243.222656 162.585938 243.722656 163.066406 244.421875 162.832031 C 245.011719 162.640625 245.6875 162.332031 246.046875 161.867188 C 247.257812 160.285156 248.164062 158.539062 248.921875 156.675781 C 249.75 154.652344 250.28125 152.597656 250.496094 150.160156 C 251.0625 150.578125 251.449219 150.863281 251.832031 151.148438 C 252.800781 151.863281 253.78125 152.5625 254.734375 153.296875 C 254.945312 153.460938 255.21875 153.769531 255.199219 153.984375 C 255.109375 154.964844 255.050781 155.980469 254.738281 156.902344 C 254.253906 158.328125 253.578125 159.691406 252.960938 161.066406 C 252.726562 161.597656 252.675781 162.089844 253.160156 162.480469 C 253.65625 162.875 254.175781 162.699219 254.585938 162.339844 C 254.9375 162.03125 255.253906 161.652344 255.488281 161.25 C 256.421875 159.640625 257.164062 157.949219 257.574219 156.023438 C 257.859375 156.140625 258.125 156.175781 258.285156 156.328125 C 259.222656 157.21875 260.09375 158.179688 261.066406 159.035156 C 261.929688 159.796875 262.125 160.691406 261.84375 161.726562 C 261.378906 163.4375 260.90625 165.148438 260.386719 166.839844 C 259.546875 169.550781 258.023438 171.910156 256.472656 174.253906 C 256.058594 174.882812 256.019531 175.421875 256.425781 175.753906 C 256.894531 176.136719 257.367188 176.023438 257.871094 175.746094 C 259.296875 174.964844 260.238281 173.75 260.972656 172.355469 C 262.269531 169.898438 263.296875 167.332031 263.953125 164.625 C 263.992188 164.460938 264.050781 164.300781 264.148438 163.980469 C 264.410156 164.257812 264.644531 164.425781 264.769531 164.652344 C 265.996094 166.890625 267.296875 169.089844 268.390625 171.394531 C 269.460938 173.648438 270.390625 175.980469 271.25 178.328125 C 272.292969 181.160156 273.480469 183.960938 274.101562 186.933594 C 274.566406 189.152344 275.21875 191.328125 275.320312 193.628906 C 275.386719 195.171875 275.820312 196.695312 275.933594 198.242188 C 276.089844 200.351562 276.109375 202.472656 276.15625 204.59375 C 276.1875 205.933594 276.289062 207.285156 276.136719 208.605469 C 275.867188 211 275.90625 213.410156 275.511719 215.800781 C 274.859375 219.730469 273.972656 223.585938 272.613281 227.332031 C 271.066406 231.59375 269.347656 235.792969 267.40625 239.886719 C 266.335938 242.140625 264.890625 244.214844 263.625 246.375 C 262.410156 248.453125 260.652344 250.027344 258.9375 251.675781 C 255.832031 254.652344 252.203125 256.796875 248.460938 258.804688 C 246.171875 260.03125 243.703125 260.804688 241.25 261.652344 C 238.160156 262.714844 234.953125 263.164062 231.800781 263.886719 C 230.042969 264.289062 228.195312 264.308594 226.394531 264.523438 C 224.367188 264.761719 222.339844 264.566406 220.3125 264.546875 C 219.492188 264.542969 218.671875 264.628906 217.851562 264.640625 C 216 264.667969 214.140625 264.640625 212.285156 264.695312 C 210.253906 264.753906 208.242188 264.621094 206.25 264.234375 C 204.570312 263.90625 202.894531 263.542969 200.898438 263.128906 C 201.523438 262.835938 201.863281 262.695312 202.1875 262.519531 C 203.742188 261.671875 205.410156 260.96875 206.8125 259.917969 C 207.925781 259.082031 208.820312 257.882812 209.625 256.71875 C 210.976562 254.765625 212.332031 252.789062 213.167969 250.527344 C 213.269531 250.246094 213.484375 249.941406 213.433594 249.683594 C 213.359375 249.285156 213.195312 248.765625 212.898438 248.589844 C 212.621094 248.425781 212.09375 248.574219 211.722656 248.714844 C 211.472656 248.8125 211.265625 249.105469 211.105469 249.351562 C 210.1875 250.765625 209.183594 252.132812 208.40625 253.617188 C 206.960938 256.382812 204.582031 257.992188 201.90625 259.332031 C 200.316406 260.128906 198.671875 260.757812 197 261.347656 C 196.082031 261.671875 195.1875 261.621094 194.324219 261.296875 C 193.320312 260.917969 192.359375 260.429688 191.128906 259.878906 C 191.664062 259.644531 191.984375 259.472656 192.324219 259.363281 C 192.976562 259.148438 193.640625 258.957031 194.304688 258.785156 C 196.378906 258.25 197.8125 256.78125 199.265625 255.351562 C 199.722656 254.902344 200.136719 254.394531 200.515625 253.875 C 200.855469 253.40625 201.089844 252.855469 200.628906 252.324219 C 200.15625 251.78125 199.589844 251.976562 199.09375 252.285156 C 198.546875 252.625 198 252.988281 197.539062 253.429688 C 195.691406 255.191406 193.71875 256.683594 191.074219 257.003906 C 190.308594 257.097656 189.507812 257.210938 188.816406 257.523438 C 186.96875 258.359375 185.476562 257.492188 183.964844 256.65625 C 181.257812 255.164062 179.058594 252.992188 176.671875 251.078125 C 175.433594 250.085938 174.425781 248.808594 173.292969 247.679688 C 172.375 246.765625 171.394531 245.914062 170.5 244.980469 C 168.761719 243.175781 167.308594 241.136719 165.972656 239.019531 C 164.898438 237.308594 163.894531 235.550781 162.863281 233.816406 C 162.707031 233.554688 162.605469 233.253906 162.410156 233.03125 C 161.242188 231.691406 160.84375 230 160.25 228.394531 C 159.699219 226.898438 159.082031 225.421875 158.597656 223.902344 C 157.871094 221.640625 157.203125 219.363281 156.582031 217.070312 C 156.074219 215.195312 155.613281 213.304688 155.242188 211.398438 C 154.859375 209.445312 154.496094 207.472656 154.332031 205.492188 C 154 201.570312 153.921875 197.636719 154.207031 193.703125 C 154.3125 192.285156 154.445312 190.871094 154.570312 189.382812 C 154.78125 189.398438 154.957031 189.371094 155.089844 189.433594 C 157.101562 190.421875 159.308594 190.652344 161.453125 191.140625 C 162.46875 191.371094 163.441406 191.191406 164.347656 190.75 C 164.714844 190.570312 165.085938 190.257812 165.273438 189.910156 C 165.648438 189.226562 165.113281 188.351562 164.363281 188.492188 C 162.320312 188.863281 160.4375 188.144531 158.5 187.792969 C 157.605469 187.628906 156.722656 187.386719 155.832031 187.199219 C 155.214844 187.070312 154.933594 186.738281 155.058594 186.09375 C 155.304688 184.820312 155.542969 183.546875 155.785156 182.296875 C 156.929688 181.78125 157.980469 182.101562 158.988281 182.480469 C 159.539062 182.683594 160.003906 182.648438 160.476562 182.386719 C 160.925781 182.140625 161.199219 181.769531 161.136719 181.222656 C 161.078125 180.746094 160.855469 180.40625 160.371094 180.285156 C 159.363281 180.035156 158.359375 179.78125 157.355469 179.535156 C 157.117188 179.480469 156.867188 179.453125 156.460938 179.390625 Z M 254.503906 199.910156 C 254.273438 197.804688 254.070312 195.828125 253.835938 193.859375 C 253.730469 193.011719 253.675781 192.128906 253.382812 191.34375 C 252.832031 189.871094 252.160156 188.4375 251.476562 187.019531 C 250.933594 185.898438 250.320312 184.8125 249.703125 183.726562 C 249.300781 183.015625 248.902344 182.285156 248.390625 181.652344 C 246.195312 178.921875 243.878906 176.300781 241.191406 174.027344 C 240.765625 173.664062 240.355469 173.277344 239.882812 172.984375 C 238.558594 172.167969 237.183594 171.4375 235.878906 170.597656 C 234.046875 169.425781 231.960938 168.941406 229.90625 168.589844 C 227.84375 168.238281 225.710938 168.003906 223.589844 168.335938 C 223.421875 168.363281 223.238281 168.359375 223.070312 168.324219 C 220.847656 167.898438 218.699219 168.585938 216.523438 168.808594 C 213.933594 169.074219 211.464844 169.929688 209.035156 170.863281 C 207.382812 171.503906 205.6875 172.058594 204.089844 172.8125 C 201.617188 173.976562 199.835938 176.066406 197.808594 177.816406 C 196.207031 179.195312 195.40625 181.179688 194.351562 182.960938 C 192.445312 186.191406 192.039062 189.871094 191.328125 193.449219 C 190.867188 195.761719 191.125 198.105469 191.191406 200.433594 C 191.273438 203.035156 191.675781 205.601562 192.605469 208.039062 C 193.328125 209.925781 194.195312 211.757812 195.039062 213.597656 C 195.308594 214.179688 195.691406 214.71875 196.058594 215.25 C 196.671875 216.136719 197.273438 217.042969 197.964844 217.871094 C 199.015625 219.125 200.039062 220.425781 201.253906 221.503906 C 202.570312 222.675781 204.109375 223.597656 205.523438 224.660156 C 208.265625 226.714844 211.507812 227.476562 214.746094 228.179688 C 216.292969 228.515625 217.933594 228.40625 219.503906 228.671875 C 221.824219 229.066406 224.078125 228.605469 226.308594 228.191406 C 228.59375 227.765625 230.859375 227.125 233.058594 226.363281 C 234.925781 225.714844 236.78125 224.921875 238.472656 223.902344 C 240.308594 222.792969 242.203125 221.707031 243.671875 220.058594 C 245.082031 218.476562 246.566406 216.964844 247.984375 215.390625 C 248.761719 214.53125 249.542969 213.660156 250.195312 212.707031 C 251.769531 210.40625 252.613281 207.757812 253.460938 205.144531 C 254.015625 203.433594 254.179688 201.59375 254.5 199.902344 Z M 212.574219 244.882812 C 212.820312 245.226562 212.972656 245.664062 213.253906 245.769531 C 213.546875 245.882812 214.035156 245.78125 214.308594 245.589844 C 214.644531 245.355469 214.894531 244.953125 215.089844 244.578125 C 215.425781 243.929688 215.707031 243.25 215.976562 242.570312 C 216.253906 241.871094 216.058594 241.320312 215.472656 241.023438 C 214.953125 240.757812 214.105469 240.890625 213.859375 241.429688 C 213.371094 242.523438 213.015625 243.675781 212.578125 244.882812 Z M 254.90625 178.113281 C 254.941406 177.507812 254.574219 177.140625 253.96875 177.183594 C 253.132812 177.242188 252.195312 178.039062 252.019531 178.839844 C 251.847656 179.621094 252.429688 180.226562 253.199219 180.074219 C 253.789062 179.960938 254.871094 178.71875 254.90625 178.113281 Z M 254.90625 178.113281 "/><path style=" stroke:none;fill-rule:nonzero;fill:#ffffff;fill-opacity:1;" d="M 159.199219 163.09375 C 158.5 164.390625 157.703125 165.675781 157.089844 167.046875 C 156.4375 168.496094 155.964844 170.023438 155.40625 171.515625 C 155.210938 172.035156 154.996094 172.554688 154.785156 173.070312 C 153.8125 175.476562 153.246094 177.996094 152.691406 180.519531 C 152.433594 181.703125 151.957031 182.847656 151.773438 184.039062 C 151.367188 186.6875 151.03125 189.347656 150.765625 192.015625 C 150.59375 193.730469 150.558594 195.46875 150.53125 197.195312 C 150.488281 199.523438 150.253906 201.886719 150.5625 204.179688 C 151.101562 208.199219 151.324219 212.289062 152.597656 216.195312 C 153.019531 217.503906 153.222656 218.875 153.566406 220.207031 C 153.921875 221.582031 154.269531 222.960938 154.71875 224.308594 C 155.609375 227.011719 156.332031 229.785156 157.605469 232.355469 C 158.449219 234.054688 159.195312 235.808594 160.121094 237.460938 C 160.917969 238.886719 161.855469 240.242188 162.820312 241.5625 C 164.125 243.335938 165.460938 245.097656 166.894531 246.769531 C 167.867188 247.90625 169.035156 248.875 170.113281 249.921875 C 170.480469 250.28125 170.816406 250.667969 171.203125 251.003906 C 173.09375 252.640625 174.9375 254.332031 176.90625 255.863281 C 178.636719 257.21875 180.484375 258.429688 182.328125 259.640625 C 185.054688 261.433594 188.113281 262.542969 191.144531 263.667969 C 192.261719 264.082031 193.453125 264.25 194.5 264.925781 C 195.121094 265.328125 195.9375 265.441406 196.675781 265.660156 C 198.160156 266.109375 199.628906 266.636719 201.144531 266.964844 C 204.015625 267.585938 206.917969 268.011719 209.867188 268.074219 C 212.980469 268.136719 216.085938 268.269531 219.195312 268.355469 C 219.753906 268.371094 220.316406 268.300781 220.878906 268.265625 C 223.550781 268.121094 226.230469 268.007812 228.898438 267.816406 C 229.792969 267.753906 230.671875 267.460938 231.5625 267.308594 C 233.773438 266.933594 236.046875 266.777344 238.191406 266.164062 C 241.246094 265.289062 244.214844 264.109375 247.195312 262.996094 C 248.648438 262.457031 250.042969 261.773438 251.371094 261.195312 C 254.035156 263.460938 256.886719 265.234375 260.320312 265.941406 C 261.367188 266.160156 262.390625 266.5 263.4375 266.71875 C 265.703125 267.191406 267.957031 267.800781 270.242188 268.015625 C 272.164062 268.191406 274.082031 268.359375 275.972656 268.734375 C 276.773438 268.894531 277.59375 269.074219 278.332031 269.40625 C 278.800781 269.617188 279.210938 270.074219 279.511719 270.511719 C 279.800781 270.933594 279.511719 271.382812 279.132812 271.625 C 278.085938 272.300781 277.132812 273.101562 275.878906 273.453125 C 273.015625 274.253906 270.117188 274.574219 267.144531 274.433594 C 265.597656 274.363281 264.078125 274.15625 262.554688 273.878906 C 262.089844 273.792969 261.605469 273.84375 261.132812 273.78125 C 260.160156 273.65625 259.191406 273.59375 258.21875 273.28125 C 257.394531 273.011719 256.421875 273.222656 255.515625 273.1875 C 253.675781 273.109375 251.835938 272.972656 249.996094 272.933594 C 249.007812 272.914062 248.015625 273.011719 247.03125 273.105469 C 244.964844 273.300781 242.886719 273.441406 240.84375 273.777344 C 238.457031 274.167969 236.113281 274.785156 233.734375 275.21875 C 232.085938 275.519531 230.441406 275.824219 228.773438 276.035156 C 225.476562 276.449219 222.21875 276.28125 218.9375 276.066406 C 217.71875 275.988281 216.558594 275.746094 215.378906 275.503906 C 213.699219 275.160156 212.015625 274.851562 210.300781 274.710938 C 209.199219 274.617188 208.117188 274.269531 207.015625 274.136719 C 205.601562 273.964844 204.183594 273.847656 202.761719 273.792969 C 200.570312 273.707031 198.375 273.605469 196.183594 273.675781 C 194.085938 273.738281 191.984375 273.867188 189.90625 274.285156 C 188.261719 274.617188 186.574219 274.75 184.914062 275.03125 C 183.167969 275.328125 181.410156 275.609375 179.695312 276.066406 C 176.769531 276.84375 173.808594 277.398438 170.804688 277.75 C 170.082031 277.839844 169.332031 277.769531 168.601562 277.722656 C 166.054688 277.558594 163.507812 277.355469 160.960938 277.210938 C 158.839844 277.089844 156.753906 276.792969 154.699219 276.214844 C 152.914062 275.710938 151.117188 275.210938 149.300781 274.855469 C 145.351562 274.082031 141.394531 273.308594 137.351562 273.207031 C 134.488281 273.132812 131.652344 273.292969 128.832031 273.933594 C 126.3125 274.503906 123.816406 275.246094 121.1875 275.21875 C 120.285156 275.210938 119.382812 275.4375 118.476562 275.480469 C 116.714844 275.566406 114.941406 275.726562 113.191406 275.597656 C 112.355469 275.539062 111.578125 274.851562 110.742188 274.527344 C 109.769531 274.152344 109.597656 273.3125 109.414062 272.464844 C 109.292969 271.898438 108.757812 271.378906 109.167969 270.75 C 109.425781 270.355469 109.652344 269.902344 110.011719 269.628906 C 110.523438 269.242188 111.121094 268.945312 111.71875 268.703125 C 113.960938 267.792969 116.21875 266.917969 118.472656 266.035156 C 119.773438 265.523438 120.035156 264.527344 119.25 263.347656 C 118.128906 261.667969 117.074219 259.9375 115.964844 258.246094 C 115.144531 256.996094 114.199219 255.820312 113.460938 254.523438 C 112.742188 253.257812 111.664062 252.253906 111.117188 250.855469 C 110.5 249.292969 109.578125 247.851562 108.878906 246.316406 C 107.898438 244.160156 106.96875 241.976562 106.066406 239.78125 C 104.949219 237.078125 103.835938 234.371094 102.8125 231.632812 C 102.101562 229.734375 101.535156 227.78125 100.917969 225.847656 C 100.480469 224.488281 100.066406 223.125 99.636719 221.765625 C 99.378906 220.941406 99.003906 220.136719 98.875 219.292969 C 98.609375 217.550781 97.863281 215.910156 97.847656 214.109375 C 97.839844 213.40625 97.476562 212.710938 97.375 211.992188 C 97.007812 209.34375 96.542969 206.703125 96.390625 204.039062 C 96.253906 201.675781 95.613281 199.347656 95.894531 196.941406 C 95.992188 196.117188 95.675781 195.253906 95.664062 194.40625 C 95.640625 192.777344 95.71875 191.144531 95.714844 189.511719 C 95.714844 187.707031 95.664062 185.898438 95.648438 184.09375 C 95.644531 183.453125 95.667969 182.8125 95.71875 182.171875 C 95.859375 180.367188 96.007812 178.566406 96.179688 176.761719 C 96.261719 175.871094 96.394531 174.984375 96.507812 174.09375 C 96.734375 172.316406 96.878906 170.515625 97.214844 168.757812 C 97.65625 166.4375 98.167969 164.125 98.792969 161.847656 C 99.515625 159.21875 100.328125 156.609375 101.226562 154.035156 C 101.8125 152.371094 102.589844 150.769531 103.34375 149.171875 C 103.820312 148.160156 104.386719 147.195312 104.945312 146.230469 C 106.601562 143.378906 108.601562 140.765625 110.738281 138.265625 C 112.691406 135.984375 115.035156 134.222656 117.785156 132.890625 C 120.234375 131.703125 122.847656 131.144531 125.371094 130.269531 C 125.726562 130.144531 126.132812 130.132812 126.519531 130.125 C 128.851562 130.074219 131.191406 130.003906 133.484375 130.492188 C 134.957031 130.804688 136.398438 131.289062 137.851562 131.703125 C 140.320312 132.40625 142.414062 133.914062 144.726562 134.953125 C 145.253906 135.1875 145.6875 135.675781 146.105469 136.109375 C 147 137.03125 147.886719 137.96875 148.726562 138.949219 C 149.304688 139.625 149.820312 140.367188 150.324219 141.105469 C 151.320312 142.570312 152.503906 143.953125 153.226562 145.546875 C 154.363281 148.058594 155.15625 150.730469 156.160156 153.308594 C 157.199219 155.980469 157.867188 158.75 158.507812 161.535156 C 158.628906 162.070312 158.964844 162.558594 159.210938 163.097656 Z M 144.949219 161.988281 C 144.933594 160.269531 144.675781 158.660156 143.6875 157.167969 C 142.171875 154.875 139.066406 154.3125 137.246094 155.027344 C 134.929688 155.933594 133.464844 157.785156 133.242188 160.347656 C 133.136719 161.539062 133.144531 162.804688 133.425781 163.964844 C 134.015625 166.441406 135.410156 168.355469 138.03125 169.003906 C 139.113281 169.273438 140.347656 169.332031 141.296875 168.722656 C 143.714844 167.175781 145.054688 164.945312 144.949219 161.988281 Z M 119.703125 161.804688 C 119.644531 161.15625 119.59375 160.550781 119.535156 159.945312 C 119.195312 156.5625 116.011719 154.113281 112.652344 154.660156 C 112.355469 154.707031 112.050781 154.792969 111.785156 154.933594 C 109.8125 155.976562 108.347656 157.488281 108.039062 159.761719 C 107.773438 161.738281 107.773438 163.765625 108.777344 165.59375 C 109.671875 167.226562 110.878906 168.585938 112.835938 168.890625 C 113.890625 169.058594 115.070312 169.222656 116 168.621094 C 118.449219 167.03125 119.835938 164.789062 119.699219 161.804688 Z M 125.273438 173.070312 C 127.125 173.042969 128.546875 172.195312 129.710938 171 C 130.621094 170.066406 131.230469 168.878906 130.910156 167.464844 C 130.664062 166.390625 129.691406 166.007812 128.84375 166.691406 C 128.496094 166.972656 128.222656 167.410156 128.050781 167.832031 C 127.722656 168.632812 127.363281 169.34375 126.386719 169.433594 C 125.421875 169.523438 124.566406 169.378906 124.105469 168.359375 C 124.003906 168.128906 123.8125 167.925781 123.625 167.75 C 123.09375 167.257812 122.359375 167.160156 121.835938 167.511719 C 121.265625 167.898438 121.023438 168.484375 121.269531 169.101562 C 121.800781 170.421875 122.316406 171.789062 123.761719 172.4375 C 124.257812 172.660156 124.765625 172.855469 125.273438 173.070312 Z M 125.273438 173.070312 "/><path style=" stroke:none;fill-rule:nonzero;fill:#ffffff;fill-opacity:1;" d="M 106.699219 103.6875 C 106.53125 103.617188 106.199219 103.570312 106.007812 103.378906 C 105.300781 102.683594 105.058594 100.871094 105.523438 99.976562 C 105.789062 99.464844 106.121094 99.050781 106.804688 99.054688 C 107.464844 99.058594 107.984375 99.210938 108.28125 99.863281 C 108.476562 100.292969 108.757812 100.6875 108.933594 101.125 C 109.441406 102.410156 108.839844 103.382812 107.46875 103.550781 C 107.253906 103.578125 107.046875 103.628906 106.703125 103.691406 Z M 106.699219 103.6875 "/><path style=" stroke:none;fill-rule:nonzero;fill:#ffffff;fill-opacity:1;" d="M 136.195312 100.363281 C 136.289062 99.632812 136.300781 99.191406 136.40625 98.78125 C 136.609375 98.003906 137.277344 97.519531 138.117188 97.453125 C 138.902344 97.390625 139.121094 97.972656 139.382812 98.519531 C 139.402344 98.558594 139.425781 98.597656 139.441406 98.632812 C 139.875 99.613281 139.824219 100.578125 139.316406 101.039062 C 138.800781 101.511719 137.257812 101.730469 136.617188 101.28125 C 136.320312 101.070312 136.261719 100.523438 136.195312 100.363281 Z M 136.195312 100.363281 "/><path style=" stroke:none;fill-rule:nonzero;fill:#0381ff;fill-opacity:1;" d="M 254.503906 199.910156 C 254.179688 201.601562 254.015625 203.4375 253.460938 205.152344 C 252.617188 207.765625 251.773438 210.414062 250.195312 212.714844 C 249.542969 213.667969 248.761719 214.539062 247.988281 215.398438 C 246.570312 216.96875 245.082031 218.484375 243.675781 220.066406 C 242.203125 221.714844 240.3125 222.800781 238.472656 223.910156 C 236.785156 224.925781 234.929688 225.722656 233.0625 226.371094 C 230.859375 227.132812 228.59375 227.777344 226.308594 228.199219 C 224.082031 228.613281 221.828125 229.074219 219.503906 228.679688 C 217.9375 228.414062 216.296875 228.527344 214.75 228.1875 C 211.511719 227.484375 208.269531 226.71875 205.527344 224.667969 C 204.109375 223.605469 202.574219 222.679688 201.257812 221.511719 C 200.042969 220.433594 199.019531 219.128906 197.96875 217.878906 C 197.277344 217.050781 196.675781 216.144531 196.058594 215.257812 C 195.691406 214.722656 195.3125 214.1875 195.042969 213.605469 C 194.199219 211.765625 193.332031 209.933594 192.609375 208.046875 C 191.679688 205.609375 191.273438 203.042969 191.195312 200.441406 C 191.125 198.113281 190.871094 195.769531 191.332031 193.457031 C 192.042969 189.878906 192.445312 186.199219 194.355469 182.96875 C 195.40625 181.1875 196.210938 179.203125 197.8125 177.820312 C 199.835938 176.074219 201.621094 173.984375 204.089844 172.820312 C 205.6875 172.0625 207.382812 171.511719 209.039062 170.871094 C 211.464844 169.9375 213.933594 169.082031 216.527344 168.816406 C 218.699219 168.589844 220.851562 167.910156 223.074219 168.332031 C 223.242188 168.363281 223.421875 168.371094 223.589844 168.34375 C 225.714844 168.011719 227.84375 168.246094 229.910156 168.597656 C 231.964844 168.945312 234.050781 169.433594 235.878906 170.605469 C 237.1875 171.445312 238.5625 172.175781 239.886719 172.988281 C 240.359375 173.28125 240.769531 173.671875 241.195312 174.035156 C 243.878906 176.308594 246.195312 178.929688 248.394531 181.660156 C 248.902344 182.292969 249.300781 183.023438 249.707031 183.734375 C 250.320312 184.820312 250.9375 185.90625 251.480469 187.027344 C 252.160156 188.445312 252.835938 189.878906 253.382812 191.351562 C 253.675781 192.136719 253.734375 193.019531 253.835938 193.867188 C 254.074219 195.835938 254.277344 197.8125 254.507812 199.917969 Z M 250.308594 198.855469 C 250.5 196.175781 250.117188 193.722656 249.195312 191.359375 C 248.789062 190.324219 248.296875 189.316406 247.835938 188.300781 C 247.496094 187.558594 247.226562 186.757812 246.769531 186.09375 C 245.050781 183.5625 243.390625 181.019531 241.03125 178.953125 C 239.40625 177.527344 237.851562 176.054688 236 174.929688 C 234.304688 173.898438 232.617188 172.828125 230.574219 172.597656 C 230.101562 172.542969 229.566406 172.628906 229.160156 172.4375 C 227.398438 171.597656 225.507812 172.070312 223.691406 171.871094 C 222.34375 171.722656 220.925781 171.996094 219.570312 172.242188 C 216.589844 172.785156 213.617188 173.371094 210.667969 174.046875 C 208.816406 174.46875 206.953125 174.957031 205.347656 176.042969 C 204.058594 176.917969 202.75 177.789062 201.585938 178.808594 C 200.183594 180.039062 198.902344 181.464844 198.140625 183.167969 C 196.925781 185.882812 195.9375 188.714844 195.53125 191.675781 C 195.21875 193.933594 195.09375 196.222656 195.03125 198.503906 C 194.984375 200.269531 195.167969 202.039062 195.253906 203.808594 C 195.257812 203.933594 195.304688 204.058594 195.339844 204.1875 C 196.113281 206.804688 196.96875 209.386719 198.5 211.691406 C 198.8125 212.15625 199.058594 212.671875 199.257812 213.195312 C 199.671875 214.296875 200.15625 215.320312 201.042969 216.15625 C 202.082031 217.128906 202.949219 218.289062 204.023438 219.214844 C 205.195312 220.230469 206.410156 221.296875 207.796875 221.933594 C 210.046875 222.976562 212.351562 223.996094 214.890625 224.199219 C 215.097656 224.214844 215.304688 224.316406 215.507812 224.382812 C 217.28125 224.972656 219.121094 225.257812 220.972656 225.160156 C 222.859375 225.066406 224.734375 224.835938 226.605469 224.425781 C 229.601562 223.769531 232.566406 223.082031 235.34375 221.71875 C 237.933594 220.445312 240.261719 218.808594 242.277344 216.761719 C 243.550781 215.46875 244.683594 214.042969 245.90625 212.703125 C 246.964844 211.542969 247.890625 210.320312 248.300781 208.765625 C 248.628906 207.519531 248.9375 206.257812 249.375 205.050781 C 250.121094 202.992188 250.617188 200.914062 250.308594 198.855469 Z M 250.308594 198.855469 "/><path style=" stroke:none;fill-rule:nonzero;fill:#0381ff;fill-opacity:1;" d="M 212.574219 244.882812 C 213.011719 243.675781 213.367188 242.523438 213.855469 241.429688 C 214.101562 240.886719 214.949219 240.757812 215.46875 241.023438 C 216.054688 241.320312 216.25 241.871094 215.972656 242.570312 C 215.699219 243.25 215.417969 243.929688 215.085938 244.578125 C 214.890625 244.953125 214.640625 245.355469 214.304688 245.589844 C 214.03125 245.78125 213.542969 245.882812 213.246094 245.769531 C 212.96875 245.664062 212.816406 245.226562 212.570312 244.882812 Z M 212.574219 244.882812 "/><path style=" stroke:none;fill-rule:nonzero;fill:#0381ff;fill-opacity:1;" d="M 254.902344 178.113281 C 254.867188 178.71875 253.789062 179.960938 253.195312 180.074219 C 252.421875 180.226562 251.839844 179.621094 252.015625 178.839844 C 252.191406 178.035156 253.128906 177.242188 253.964844 177.183594 C 254.566406 177.140625 254.9375 177.507812 254.902344 178.113281 Z M 254.902344 178.113281 "/><path style=" stroke:none;fill-rule:nonzero;fill:#0381ff;fill-opacity:1;" d="M 144.949219 161.988281 C 145.058594 164.945312 143.714844 167.175781 141.296875 168.722656 C 140.351562 169.332031 139.117188 169.277344 138.03125 169.003906 C 135.414062 168.355469 134.015625 166.441406 133.425781 163.964844 C 133.152344 162.804688 133.140625 161.542969 133.246094 160.347656 C 133.464844 157.78125 134.929688 155.933594 137.25 155.027344 C 139.070312 154.3125 142.175781 154.875 143.6875 157.167969 C 144.675781 158.660156 144.9375 160.269531 144.953125 161.988281 Z M 140.390625 160.71875 C 140.828125 159.476562 140.785156 159.261719 140.109375 158.78125 C 139.691406 158.480469 139.3125 158.496094 138.964844 158.867188 C 138.542969 159.3125 138.402344 159.832031 138.722656 160.390625 C 139.160156 161.15625 139.800781 160.839844 140.390625 160.71875 Z M 140.390625 160.71875 "/><path style=" stroke:none;fill-rule:nonzero;fill:#0381ff;fill-opacity:1;" d="M 119.703125 161.804688 C 119.839844 164.789062 118.457031 167.03125 116.003906 168.621094 C 115.078125 169.222656 113.898438 169.058594 112.84375 168.890625 C 110.882812 168.585938 109.679688 167.226562 108.78125 165.59375 C 107.777344 163.765625 107.777344 161.738281 108.046875 159.761719 C 108.351562 157.488281 109.816406 155.976562 111.789062 154.933594 C 112.054688 154.796875 112.359375 154.707031 112.65625 154.660156 C 116.019531 154.113281 119.203125 156.5625 119.539062 159.945312 C 119.601562 160.550781 119.648438 161.15625 119.707031 161.804688 Z M 115.167969 160.566406 C 115.53125 159.335938 115.488281 159.082031 114.898438 158.6875 C 114.511719 158.429688 114.113281 158.339844 113.738281 158.71875 C 113.3125 159.152344 113.128906 159.632812 113.4375 160.21875 C 113.855469 161.007812 114.488281 160.734375 115.167969 160.566406 Z M 115.167969 160.566406 "/><path style=" stroke:none;fill-rule:nonzero;fill:#0381ff;fill-opacity:1;" d="M 125.273438 173.070312 C 124.769531 172.863281 124.261719 172.664062 123.761719 172.4375 C 122.320312 171.789062 121.804688 170.425781 121.273438 169.105469 C 121.023438 168.488281 121.265625 167.898438 121.839844 167.515625 C 122.363281 167.164062 123.101562 167.261719 123.628906 167.753906 C 123.8125 167.929688 124.007812 168.132812 124.109375 168.359375 C 124.566406 169.378906 125.421875 169.523438 126.386719 169.4375 C 127.367188 169.34375 127.722656 168.632812 128.050781 167.835938 C 128.226562 167.410156 128.5 166.972656 128.847656 166.691406 C 129.695312 166.011719 130.667969 166.390625 130.910156 167.46875 C 131.230469 168.878906 130.625 170.070312 129.710938 171.003906 C 128.546875 172.195312 127.125 173.042969 125.273438 173.070312 Z M 125.273438 173.070312 "/><path style=" stroke:none;fill-rule:nonzero;fill:#ffffff;fill-opacity:1;" d="M 250.308594 198.855469 C 250.617188 200.914062 250.121094 202.992188 249.375 205.050781 C 248.9375 206.257812 248.625 207.519531 248.296875 208.765625 C 247.890625 210.320312 246.960938 211.542969 245.902344 212.703125 C 244.683594 214.042969 243.546875 215.46875 242.277344 216.761719 C 240.257812 218.808594 237.933594 220.445312 235.339844 221.71875 C 232.566406 223.085938 229.601562 223.769531 226.601562 224.425781 C 224.734375 224.835938 222.855469 225.066406 220.96875 225.160156 C 219.117188 225.257812 217.277344 224.972656 215.507812 224.382812 C 215.300781 224.3125 215.097656 224.214844 214.886719 224.199219 C 212.347656 223.996094 210.042969 222.972656 207.792969 221.933594 C 206.410156 221.296875 205.195312 220.230469 204.023438 219.214844 C 202.949219 218.289062 202.078125 217.128906 201.042969 216.15625 C 200.15625 215.320312 199.671875 214.296875 199.253906 213.195312 C 199.058594 212.671875 198.808594 212.152344 198.496094 211.691406 C 196.964844 209.386719 196.109375 206.804688 195.339844 204.1875 C 195.300781 204.058594 195.253906 203.933594 195.25 203.808594 C 195.164062 202.039062 194.984375 200.269531 195.03125 198.503906 C 195.089844 196.222656 195.214844 193.933594 195.527344 191.675781 C 195.9375 188.71875 196.921875 185.882812 198.136719 183.167969 C 198.898438 181.464844 200.183594 180.039062 201.582031 178.808594 C 202.75 177.789062 204.054688 176.917969 205.34375 176.042969 C 206.949219 174.957031 208.816406 174.46875 210.664062 174.046875 C 213.613281 173.371094 216.585938 172.78125 219.566406 172.242188 C 220.925781 171.996094 222.34375 171.722656 223.6875 171.871094 C 225.503906 172.070312 227.394531 171.597656 229.160156 172.4375 C 229.5625 172.628906 230.097656 172.546875 230.570312 172.597656 C 232.613281 172.828125 234.300781 173.898438 236 174.929688 C 237.847656 176.054688 239.402344 177.527344 241.027344 178.953125 C 243.386719 181.019531 245.046875 183.566406 246.769531 186.09375 C 247.222656 186.757812 247.492188 187.558594 247.832031 188.300781 C 248.296875 189.316406 248.785156 190.324219 249.191406 191.359375 C 250.117188 193.71875 250.5 196.175781 250.304688 198.855469 Z M 223.734375 211.683594 C 225 211.457031 226.730469 211.382812 228.292969 210.832031 C 231.496094 209.699219 234.539062 208.234375 236.183594 204.933594 C 236.527344 204.246094 237.140625 203.691406 237.472656 203 C 237.9375 202.035156 238.320312 201.019531 238.625 199.996094 C 239.152344 198.214844 239.746094 196.433594 239.292969 194.519531 C 239.136719 193.851562 239.015625 193.160156 238.984375 192.476562 C 238.871094 189.832031 237.644531 187.753906 235.71875 186.058594 C 234.785156 185.238281 233.714844 184.570312 232.726562 183.804688 C 231.746094 183.046875 230.644531 182.546875 229.417969 182.472656 C 227.484375 182.355469 225.558594 182.25 223.609375 182.421875 C 221.976562 182.558594 220.472656 183.007812 219.046875 183.699219 C 218.085938 184.167969 217.210938 184.851562 216.390625 185.550781 C 215.445312 186.367188 214.449219 187.191406 213.753906 188.207031 C 212.539062 189.984375 211.519531 191.902344 211.160156 194.082031 C 210.859375 195.9375 210.046875 197.773438 210.960938 199.667969 C 210.871094 201.769531 211.71875 203.636719 212.460938 205.519531 C 213.316406 207.703125 214.847656 209.375 217.007812 210.253906 C 219.003906 211.066406 221.160156 211.367188 223.730469 211.683594 Z M 223.734375 211.683594 "/><path style=" stroke:none;fill-rule:nonzero;fill:#ffffff;fill-opacity:1;" d="M 140.390625 160.71875 C 139.800781 160.832031 139.164062 161.152344 138.722656 160.386719 C 138.402344 159.828125 138.542969 159.3125 138.964844 158.863281 C 139.3125 158.496094 139.691406 158.480469 140.109375 158.777344 C 140.785156 159.261719 140.828125 159.476562 140.390625 160.714844 Z M 140.390625 160.71875 "/><path style=" stroke:none;fill-rule:nonzero;fill:#ffffff;fill-opacity:1;" d="M 115.167969 160.566406 C 114.488281 160.734375 113.855469 161.007812 113.4375 160.21875 C 113.128906 159.632812 113.3125 159.152344 113.738281 158.71875 C 114.113281 158.339844 114.507812 158.429688 114.898438 158.6875 C 115.488281 159.082031 115.527344 159.335938 115.167969 160.566406 Z M 115.167969 160.566406 "/><path style=" stroke:none;fill-rule:nonzero;fill:#0381ff;fill-opacity:1;" d="M 223.734375 211.679688 C 221.164062 211.363281 219.003906 211.058594 217.011719 210.25 C 214.847656 209.371094 213.320312 207.699219 212.460938 205.511719 C 211.722656 203.632812 210.875 201.765625 210.964844 199.664062 C 210.046875 197.769531 210.859375 195.933594 211.164062 194.078125 C 211.519531 191.898438 212.539062 189.980469 213.757812 188.203125 C 214.449219 187.1875 215.445312 186.359375 216.394531 185.546875 C 217.210938 184.847656 218.089844 184.160156 219.050781 183.691406 C 220.472656 183 221.976562 182.554688 223.609375 182.414062 C 225.5625 182.246094 227.488281 182.355469 229.421875 182.46875 C 230.648438 182.539062 231.746094 183.042969 232.730469 183.800781 C 233.71875 184.566406 234.789062 185.234375 235.722656 186.054688 C 237.644531 187.75 238.871094 189.828125 238.988281 192.46875 C 239.019531 193.15625 239.140625 193.84375 239.296875 194.515625 C 239.746094 196.429688 239.15625 198.207031 238.625 199.988281 C 238.320312 201.015625 237.9375 202.035156 237.472656 202.996094 C 237.140625 203.6875 236.527344 204.242188 236.1875 204.925781 C 234.542969 208.230469 231.5 209.695312 228.296875 210.824219 C 226.730469 211.378906 225 211.453125 223.738281 211.679688 Z M 224.871094 185.6875 C 223.6875 185.367188 222.421875 186.019531 221.164062 186.699219 C 220.746094 186.925781 220.359375 187.214844 219.929688 187.410156 C 217.929688 188.332031 216.410156 189.734375 215.507812 191.765625 C 214.914062 193.101562 214.136719 194.390625 214.152344 195.917969 C 214.167969 197.867188 213.875 199.855469 214.992188 201.679688 C 215.546875 202.585938 215.785156 203.6875 216.332031 204.605469 C 216.996094 205.710938 217.785156 206.6875 219.054688 207.292969 C 220.34375 207.902344 221.585938 208.121094 223.011719 208.113281 C 225.644531 208.101562 228.078125 207.613281 230.261719 206.113281 C 231.507812 205.257812 232.792969 204.363281 233.535156 203.019531 C 234.945312 200.453125 235.679688 197.675781 235.917969 194.746094 C 235.988281 193.851562 235.867188 193.105469 235.441406 192.300781 C 234.414062 190.367188 233.171875 188.738281 231.273438 187.480469 C 229.375 186.222656 227.410156 185.671875 224.875 185.691406 Z M 224.871094 185.6875 "/><path style=" stroke:none;fill-rule:nonzero;fill:#ffffff;fill-opacity:1;" d="M 224.871094 185.6875 C 227.40625 185.664062 229.367188 186.21875 231.273438 187.480469 C 233.167969 188.730469 234.410156 190.363281 235.441406 192.296875 C 235.867188 193.101562 235.988281 193.847656 235.914062 194.742188 C 235.679688 197.671875 234.945312 200.453125 233.53125 203.015625 C 232.789062 204.363281 231.507812 205.253906 230.257812 206.113281 C 228.074219 207.609375 225.640625 208.097656 223.007812 208.113281 C 221.582031 208.121094 220.339844 207.898438 219.050781 207.289062 C 217.78125 206.6875 216.992188 205.707031 216.332031 204.601562 C 215.785156 203.6875 215.546875 202.585938 214.988281 201.675781 C 213.875 199.851562 214.167969 197.867188 214.148438 195.914062 C 214.132812 194.386719 214.914062 193.097656 215.507812 191.761719 C 216.410156 189.730469 217.929688 188.332031 219.925781 187.410156 C 220.355469 187.210938 220.742188 186.921875 221.160156 186.695312 C 222.417969 186.015625 223.683594 185.363281 224.871094 185.6875 Z M 224.871094 185.6875 "/><path style=" stroke:none;fill-rule:nonzero;fill:#0381ff;fill-opacity:1;" d="M 244.515625 213.035156 C 244.335938 212.929688 244.183594 212.796875 244.054688 212.632812 C 243.929688 212.464844 243.839844 212.285156 243.785156 212.082031 C 243.730469 211.882812 243.71875 211.679688 243.746094 211.476562 C 243.773438 211.269531 243.839844 211.078125 243.941406 210.898438 C 244.046875 210.71875 244.179688 210.5625 244.34375 210.4375 C 244.507812 210.3125 244.691406 210.222656 244.890625 210.167969 C 245.09375 210.113281 245.296875 210.101562 245.5 210.128906 C 245.707031 210.15625 245.898438 210.21875 246.078125 210.324219 L 248.730469 211.855469 C 250.914062 207.625 252.113281 203.136719 252.328125 198.382812 L 249.277344 198.382812 C 249.070312 198.382812 248.871094 198.34375 248.679688 198.261719 C 248.488281 198.183594 248.320312 198.070312 248.171875 197.925781 C 248.027344 197.777344 247.914062 197.609375 247.832031 197.417969 C 247.753906 197.226562 247.714844 197.027344 247.714844 196.820312 C 247.714844 196.609375 247.753906 196.410156 247.832031 196.21875 C 247.914062 196.027344 248.027344 195.859375 248.171875 195.710938 C 248.320312 195.566406 248.488281 195.453125 248.679688 195.375 C 248.871094 195.292969 249.070312 195.253906 249.277344 195.253906 L 252.328125 195.253906 C 252.113281 190.5 250.914062 186.011719 248.730469 181.78125 L 246.078125 183.3125 C 245.898438 183.417969 245.707031 183.480469 245.5 183.507812 C 245.296875 183.535156 245.09375 183.523438 244.890625 183.46875 C 244.691406 183.414062 244.507812 183.324219 244.34375 183.199219 C 244.179688 183.074219 244.046875 182.921875 243.941406 182.742188 C 243.839844 182.5625 243.773438 182.367188 243.746094 182.164062 C 243.71875 181.957031 243.730469 181.753906 243.785156 181.554688 C 243.839844 181.351562 243.929688 181.171875 244.054688 181.003906 C 244.183594 180.839844 244.335938 180.707031 244.515625 180.601562 L 247.160156 179.074219 C 244.582031 175.082031 241.296875 171.792969 237.300781 169.214844 L 235.773438 171.863281 C 235.667969 172.042969 235.535156 172.195312 235.371094 172.320312 C 235.207031 172.449219 235.023438 172.539062 234.824219 172.59375 C 234.621094 172.644531 234.417969 172.660156 234.214844 172.632812 C 234.007812 172.605469 233.816406 172.539062 233.636719 172.4375 C 233.457031 172.332031 233.300781 172.199219 233.175781 172.035156 C 233.050781 171.867188 232.960938 171.6875 232.90625 171.484375 C 232.851562 171.285156 232.839844 171.082031 232.867188 170.875 C 232.894531 170.671875 232.960938 170.476562 233.0625 170.296875 L 234.59375 167.644531 C 230.367188 165.464844 225.875 164.265625 221.121094 164.046875 L 221.121094 167.097656 C 221.121094 167.304688 221.082031 167.503906 221.003906 167.695312 C 220.921875 167.886719 220.808594 168.058594 220.664062 168.203125 C 220.515625 168.351562 220.347656 168.464844 220.15625 168.542969 C 219.964844 168.621094 219.765625 168.664062 219.558594 168.664062 C 219.351562 168.664062 219.152344 168.621094 218.960938 168.542969 C 218.765625 168.464844 218.597656 168.351562 218.453125 168.203125 C 218.304688 168.058594 218.191406 167.886719 218.113281 167.695312 C 218.035156 167.503906 217.992188 167.304688 217.992188 167.097656 L 217.992188 164.046875 C 213.242188 164.265625 208.75 165.464844 204.523438 167.644531 L 206.050781 170.296875 C 206.15625 170.476562 206.222656 170.671875 206.25 170.875 C 206.277344 171.082031 206.261719 171.285156 206.207031 171.484375 C 206.15625 171.6875 206.066406 171.867188 205.9375 172.03125 C 205.8125 172.199219 205.660156 172.332031 205.480469 172.433594 C 205.300781 172.539062 205.105469 172.605469 204.902344 172.632812 C 204.695312 172.660156 204.492188 172.644531 204.292969 172.589844 C 204.09375 172.539062 203.910156 172.449219 203.746094 172.320312 C 203.582031 172.195312 203.445312 172.042969 203.34375 171.863281 L 201.816406 169.214844 C 197.820312 171.792969 194.53125 175.082031 191.957031 179.074219 L 194.601562 180.601562 C 194.78125 180.707031 194.933594 180.839844 195.058594 181.003906 C 195.1875 181.171875 195.277344 181.351562 195.328125 181.554688 C 195.382812 181.753906 195.398438 181.957031 195.371094 182.164062 C 195.34375 182.367188 195.277344 182.5625 195.175781 182.742188 C 195.070312 182.921875 194.9375 183.074219 194.769531 183.199219 C 194.605469 183.324219 194.425781 183.414062 194.222656 183.46875 C 194.023438 183.523438 193.820312 183.535156 193.613281 183.507812 C 193.410156 183.480469 193.214844 183.417969 193.035156 183.3125 L 190.386719 181.78125 C 188.203125 186.011719 187.003906 190.5 186.789062 195.253906 L 189.835938 195.253906 C 190.042969 195.253906 190.246094 195.292969 190.4375 195.375 C 190.628906 195.453125 190.796875 195.566406 190.945312 195.710938 C 191.089844 195.859375 191.203125 196.027344 191.28125 196.21875 C 191.363281 196.410156 191.402344 196.609375 191.402344 196.820312 C 191.402344 197.027344 191.363281 197.226562 191.28125 197.417969 C 191.203125 197.609375 191.089844 197.777344 190.945312 197.925781 C 190.796875 198.070312 190.628906 198.183594 190.4375 198.261719 C 190.246094 198.34375 190.042969 198.382812 189.835938 198.382812 L 186.789062 198.382812 C 187.003906 203.136719 188.203125 207.625 190.386719 211.855469 L 193.035156 210.324219 C 193.214844 210.21875 193.410156 210.15625 193.613281 210.128906 C 193.820312 210.101562 194.023438 210.113281 194.222656 210.167969 C 194.425781 210.222656 194.605469 210.3125 194.769531 210.4375 C 194.933594 210.566406 195.070312 210.71875 195.171875 210.898438 C 195.277344 211.078125 195.34375 211.269531 195.367188 211.476562 C 195.394531 211.679688 195.382812 211.882812 195.328125 212.082031 C 195.277344 212.285156 195.1875 212.464844 195.058594 212.632812 C 194.933594 212.796875 194.78125 212.929688 194.601562 213.035156 L 191.957031 214.5625 C 194.53125 218.558594 197.820312 221.84375 201.816406 224.421875 L 203.34375 221.773438 C 203.445312 221.59375 203.582031 221.441406 203.746094 221.316406 C 203.910156 221.1875 204.09375 221.097656 204.292969 221.046875 C 204.492188 220.992188 204.695312 220.976562 204.902344 221.003906 C 205.105469 221.03125 205.300781 221.097656 205.480469 221.203125 C 205.660156 221.304688 205.8125 221.441406 205.9375 221.605469 C 206.066406 221.769531 206.15625 221.949219 206.207031 222.152344 C 206.261719 222.351562 206.277344 222.554688 206.25 222.761719 C 206.222656 222.964844 206.15625 223.160156 206.050781 223.339844 L 204.523438 225.992188 C 208.75 228.171875 213.242188 229.371094 217.992188 229.589844 L 217.992188 226.539062 C 217.992188 226.332031 218.035156 226.132812 218.113281 225.941406 C 218.191406 225.75 218.304688 225.578125 218.453125 225.433594 C 218.597656 225.285156 218.765625 225.171875 218.960938 225.09375 C 219.152344 225.015625 219.351562 224.976562 219.558594 224.976562 C 219.765625 224.976562 219.964844 225.015625 220.15625 225.09375 C 220.347656 225.171875 220.515625 225.285156 220.664062 225.433594 C 220.808594 225.578125 220.921875 225.75 221.003906 225.941406 C 221.082031 226.132812 221.121094 226.332031 221.121094 226.539062 L 221.121094 229.589844 C 225.875 229.371094 230.367188 228.171875 234.59375 225.992188 L 233.0625 223.339844 C 232.960938 223.160156 232.894531 222.964844 232.867188 222.761719 C 232.839844 222.554688 232.851562 222.351562 232.90625 222.152344 C 232.960938 221.949219 233.050781 221.769531 233.175781 221.605469 C 233.304688 221.441406 233.457031 221.304688 233.636719 221.203125 C 233.816406 221.097656 234.007812 221.03125 234.214844 221.003906 C 234.417969 220.976562 234.621094 220.992188 234.824219 221.046875 C 235.023438 221.097656 235.207031 221.1875 235.371094 221.316406 C 235.535156 221.441406 235.667969 221.59375 235.773438 221.773438 L 237.300781 224.421875 C 241.296875 221.84375 244.582031 218.558594 247.160156 214.5625 Z M 233.398438 205.46875 C 233.289062 205.644531 233.148438 205.792969 232.980469 205.914062 C 232.8125 206.035156 232.625 206.117188 232.421875 206.164062 C 232.222656 206.210938 232.019531 206.214844 231.8125 206.183594 C 231.609375 206.148438 231.417969 206.074219 231.242188 205.964844 L 218.730469 198.144531 C 218.238281 197.839844 217.992188 197.394531 217.992188 196.820312 L 217.992188 179.613281 C 217.992188 179.40625 218.035156 179.203125 218.113281 179.011719 C 218.191406 178.820312 218.304688 178.652344 218.453125 178.503906 C 218.597656 178.359375 218.765625 178.246094 218.960938 178.167969 C 219.152344 178.085938 219.351562 178.046875 219.558594 178.046875 C 219.765625 178.046875 219.964844 178.085938 220.15625 178.167969 C 220.347656 178.246094 220.515625 178.359375 220.664062 178.503906 C 220.808594 178.652344 220.921875 178.820312 221.003906 179.011719 C 221.082031 179.203125 221.121094 179.40625 221.121094 179.613281 L 221.121094 195.949219 L 232.898438 203.3125 C 233.078125 203.421875 233.226562 203.5625 233.34375 203.730469 C 233.464844 203.902344 233.550781 204.085938 233.597656 204.289062 C 233.644531 204.492188 233.648438 204.695312 233.613281 204.898438 C 233.582031 205.101562 233.507812 205.292969 233.398438 205.46875 Z M 233.398438 205.46875 "/><g clip-rule="nonzero" clip-path="url(#f1776f7827)"><path style=" stroke:none;fill-rule:nonzero;fill:#0381ff;fill-opacity:1;" d="M 219.558594 154.585938 C 218.175781 154.585938 216.792969 154.652344 215.417969 154.789062 C 214.042969 154.921875 212.675781 155.125 211.316406 155.394531 C 209.960938 155.664062 208.621094 156 207.296875 156.402344 C 205.972656 156.804688 204.671875 157.269531 203.394531 157.800781 C 202.117188 158.328125 200.867188 158.917969 199.648438 159.570312 C 198.429688 160.222656 197.242188 160.933594 196.09375 161.703125 C 194.945312 162.46875 193.832031 163.292969 192.765625 164.171875 C 191.695312 165.046875 190.671875 165.976562 189.695312 166.953125 C 188.714844 167.933594 187.789062 168.957031 186.910156 170.023438 C 186.03125 171.09375 185.210938 172.203125 184.441406 173.355469 C 183.671875 174.503906 182.960938 175.6875 182.308594 176.910156 C 181.660156 178.128906 181.066406 179.378906 180.539062 180.65625 C 180.007812 181.933594 179.542969 183.234375 179.140625 184.558594 C 178.742188 185.882812 178.40625 187.222656 178.136719 188.578125 C 177.863281 189.9375 177.664062 191.300781 177.527344 192.679688 C 177.390625 194.054688 177.324219 195.433594 177.324219 196.820312 C 177.324219 198.203125 177.390625 199.582031 177.527344 200.957031 C 177.664062 202.335938 177.863281 203.703125 178.136719 205.058594 C 178.40625 206.414062 178.742188 207.753906 179.140625 209.078125 C 179.542969 210.402344 180.007812 211.703125 180.539062 212.980469 C 181.066406 214.257812 181.660156 215.507812 182.308594 216.726562 C 182.960938 217.949219 183.671875 219.132812 184.441406 220.28125 C 185.210938 221.433594 186.03125 222.542969 186.910156 223.613281 C 187.789062 224.679688 188.714844 225.703125 189.695312 226.683594 C 190.671875 227.660156 191.695312 228.589844 192.765625 229.464844 C 193.832031 230.34375 194.945312 231.167969 196.09375 231.933594 C 197.242188 232.703125 198.429688 233.414062 199.648438 234.066406 C 200.867188 234.71875 202.117188 235.308594 203.394531 235.839844 C 204.671875 236.367188 205.972656 236.832031 207.296875 237.234375 C 208.621094 237.636719 209.960938 237.972656 211.316406 238.242188 C 212.675781 238.511719 214.042969 238.714844 215.417969 238.847656 C 216.792969 238.984375 218.175781 239.054688 219.558594 239.054688 C 220.941406 239.054688 222.320312 238.984375 223.699219 238.847656 C 225.074219 238.714844 226.441406 238.511719 227.796875 238.242188 C 229.152344 237.972656 230.492188 237.636719 231.816406 237.234375 C 233.140625 236.832031 234.441406 236.367188 235.71875 235.839844 C 237 235.308594 238.246094 234.71875 239.46875 234.066406 C 240.6875 233.414062 241.871094 232.703125 243.023438 231.933594 C 244.171875 231.167969 245.28125 230.34375 246.351562 229.464844 C 247.421875 228.589844 248.445312 227.660156 249.421875 226.683594 C 250.398438 225.703125 251.328125 224.679688 252.207031 223.613281 C 253.082031 222.542969 253.90625 221.433594 254.675781 220.28125 C 255.441406 219.132812 256.152344 217.949219 256.804688 216.726562 C 257.457031 215.507812 258.046875 214.257812 258.578125 212.980469 C 259.105469 211.703125 259.570312 210.402344 259.972656 209.078125 C 260.375 207.753906 260.710938 206.414062 260.980469 205.058594 C 261.25 203.703125 261.453125 202.335938 261.589844 200.957031 C 261.722656 199.582031 261.792969 198.203125 261.792969 196.820312 C 261.789062 195.4375 261.722656 194.054688 261.585938 192.679688 C 261.449219 191.304688 261.242188 189.9375 260.972656 188.582031 C 260.703125 187.226562 260.363281 185.886719 259.960938 184.5625 C 259.558594 183.242188 259.09375 181.941406 258.5625 180.664062 C 258.035156 179.386719 257.445312 178.136719 256.789062 176.917969 C 256.136719 175.699219 255.429688 174.515625 254.660156 173.367188 C 253.890625 172.214844 253.066406 171.105469 252.191406 170.039062 C 251.3125 168.96875 250.386719 167.945312 249.40625 166.96875 C 248.429688 165.992188 247.40625 165.0625 246.339844 164.1875 C 245.269531 163.308594 244.160156 162.484375 243.011719 161.714844 C 241.859375 160.949219 240.675781 160.238281 239.457031 159.585938 C 238.238281 158.933594 236.988281 158.339844 235.710938 157.8125 C 234.433594 157.28125 233.136719 156.816406 231.8125 156.414062 C 230.488281 156.011719 229.148438 155.675781 227.792969 155.402344 C 226.4375 155.132812 225.070312 154.929688 223.695312 154.792969 C 222.320312 154.65625 220.941406 154.585938 219.558594 154.585938 Z M 219.558594 232.796875 C 218.378906 232.796875 217.203125 232.738281 216.03125 232.621094 C 214.859375 232.507812 213.695312 232.335938 212.539062 232.105469 C 211.382812 231.875 210.242188 231.589844 209.113281 231.246094 C 207.988281 230.90625 206.878906 230.507812 205.789062 230.058594 C 204.703125 229.605469 203.636719 229.101562 202.597656 228.546875 C 201.558594 227.992188 200.550781 227.386719 199.570312 226.734375 C 198.589844 226.078125 197.644531 225.375 196.734375 224.628906 C 195.824219 223.882812 194.949219 223.089844 194.117188 222.257812 C 193.285156 221.425781 192.496094 220.554688 191.746094 219.640625 C 191 218.730469 190.296875 217.785156 189.644531 216.804688 C 188.988281 215.828125 188.382812 214.816406 187.828125 213.777344 C 187.273438 212.738281 186.769531 211.675781 186.320312 210.585938 C 185.867188 209.496094 185.472656 208.390625 185.128906 207.261719 C 184.789062 206.132812 184.5 204.992188 184.273438 203.835938 C 184.042969 202.683594 183.867188 201.515625 183.753906 200.34375 C 183.636719 199.171875 183.582031 197.996094 183.582031 196.820312 C 183.582031 195.640625 183.636719 194.464844 183.753906 193.292969 C 183.867188 192.121094 184.042969 190.957031 184.273438 189.800781 C 184.5 188.644531 184.789062 187.503906 185.128906 186.375 C 185.472656 185.246094 185.867188 184.140625 186.320312 183.050781 C 186.769531 181.960938 187.273438 180.898438 187.828125 179.859375 C 188.382812 178.820312 188.988281 177.808594 189.644531 176.832031 C 190.296875 175.851562 191 174.90625 191.746094 173.996094 C 192.496094 173.082031 193.285156 172.210938 194.117188 171.378906 C 194.949219 170.546875 195.824219 169.753906 196.734375 169.007812 C 197.644531 168.261719 198.589844 167.558594 199.570312 166.90625 C 200.550781 166.25 201.558594 165.644531 202.597656 165.089844 C 203.636719 164.535156 204.703125 164.03125 205.789062 163.578125 C 206.878906 163.128906 207.988281 162.730469 209.113281 162.390625 C 210.242188 162.046875 211.382812 161.761719 212.539062 161.53125 C 213.695312 161.300781 214.859375 161.128906 216.03125 161.015625 C 217.203125 160.898438 218.378906 160.839844 219.558594 160.839844 C 220.734375 160.839844 221.910156 160.898438 223.085938 161.015625 C 224.257812 161.128906 225.421875 161.300781 226.578125 161.53125 C 227.730469 161.761719 228.875 162.046875 230 162.390625 C 231.128906 162.730469 232.238281 163.128906 233.324219 163.578125 C 234.414062 164.03125 235.476562 164.535156 236.515625 165.089844 C 237.554688 165.644531 238.566406 166.25 239.546875 166.90625 C 240.527344 167.558594 241.472656 168.261719 242.382812 169.007812 C 243.292969 169.753906 244.164062 170.546875 244.996094 171.378906 C 245.832031 172.210938 246.621094 173.082031 247.367188 173.996094 C 248.117188 174.90625 248.816406 175.851562 249.472656 176.832031 C 250.125 177.808594 250.730469 178.820312 251.285156 179.859375 C 251.84375 180.898438 252.34375 181.960938 252.796875 183.050781 C 253.246094 184.140625 253.644531 185.246094 253.984375 186.375 C 254.328125 187.503906 254.613281 188.644531 254.84375 189.800781 C 255.074219 190.957031 255.246094 192.121094 255.363281 193.292969 C 255.476562 194.464844 255.535156 195.640625 255.535156 196.820312 C 255.53125 197.996094 255.472656 199.171875 255.355469 200.34375 C 255.238281 201.515625 255.066406 202.679688 254.832031 203.832031 C 254.601562 204.988281 254.316406 206.128906 253.972656 207.253906 C 253.628906 208.382812 253.230469 209.488281 252.777344 210.578125 C 252.328125 211.664062 251.824219 212.726562 251.269531 213.765625 C 250.710938 214.804688 250.105469 215.8125 249.453125 216.792969 C 248.796875 217.769531 248.097656 218.714844 247.347656 219.625 C 246.601562 220.535156 245.8125 221.40625 244.980469 222.238281 C 244.144531 223.070312 243.273438 223.863281 242.363281 224.609375 C 241.453125 225.355469 240.507812 226.058594 239.53125 226.710938 C 238.550781 227.367188 237.542969 227.972656 236.503906 228.527344 C 235.464844 229.085938 234.402344 229.589844 233.316406 230.039062 C 232.226562 230.492188 231.121094 230.890625 229.996094 231.230469 C 228.867188 231.574219 227.726562 231.863281 226.570312 232.09375 C 225.417969 232.324219 224.253906 232.5 223.082031 232.617188 C 221.910156 232.734375 220.734375 232.792969 219.558594 232.796875 Z M 219.558594 232.796875 "/></g><g style="fill:#0381ff;fill-opacity:1;"><g transform="translate(225.459086, 257.461697)"><path style="stroke:none" d="M 0.921875 -2.671875 L 0.921875 -12.140625 C 0.921875 -13.015625 1.148438 -13.675781 1.609375 -14.125 C 2.066406 -14.582031 2.726562 -14.8125 3.59375 -14.8125 L 5.671875 -14.8125 C 6.546875 -14.8125 7.207031 -14.582031 7.65625 -14.125 C 8.101562 -13.675781 8.328125 -13.015625 8.328125 -12.140625 L 8.328125 -2.671875 C 8.328125 -1.804688 8.101562 -1.144531 7.65625 -0.6875 C 7.207031 -0.226562 6.546875 0 5.671875 0 L 3.59375 0 C 2.726562 0 2.066406 -0.226562 1.609375 -0.6875 C 1.148438 -1.144531 0.921875 -1.804688 0.921875 -2.671875 Z M 4.125 -2.390625 L 5.203125 -2.390625 C 5.691406 -2.390625 5.9375 -2.632812 5.9375 -3.125 L 5.9375 -11.6875 C 5.9375 -12.175781 5.691406 -12.421875 5.203125 -12.421875 L 4.125 -12.421875 C 3.632812 -12.421875 3.390625 -12.175781 3.390625 -11.6875 L 3.390625 -3.125 C 3.390625 -2.632812 3.632812 -2.390625 4.125 -2.390625 Z M 4.125 -2.390625 "/></g></g><g style="fill:#0381ff;fill-opacity:1;"><g transform="translate(234.716909, 257.461697)"><path style="stroke:none" d="M 0.921875 -0.375 L 0.921875 -2.078125 C 0.921875 -2.316406 1.046875 -2.4375 1.296875 -2.4375 L 2.984375 -2.4375 C 3.222656 -2.4375 3.34375 -2.316406 3.34375 -2.078125 L 3.34375 -0.375 C 3.34375 -0.125 3.222656 0 2.984375 0 L 1.296875 0 C 1.046875 0 0.921875 -0.125 0.921875 -0.375 Z M 0.921875 -0.375 "/></g></g><g style="fill:#0381ff;fill-opacity:1;"><g transform="translate(238.994024, 257.461697)"><path style="stroke:none" d="M 1.484375 -14.8125 L 7.78125 -14.8125 C 8.019531 -14.8125 8.140625 -14.6875 8.140625 -14.4375 L 8.140625 -12.734375 C 8.140625 -12.492188 8.019531 -12.375 7.78125 -12.375 L 3.609375 -12.375 L 3.609375 -9.46875 L 8.015625 -8.078125 C 8.222656 -8.003906 8.328125 -7.867188 8.328125 -7.671875 L 8.328125 -2.59375 C 8.328125 -1.75 8.101562 -1.101562 7.65625 -0.65625 C 7.21875 -0.21875 6.578125 0 5.734375 0 L 3.515625 0 C 2.679688 0 2.039062 -0.21875 1.59375 -0.65625 C 1.144531 -1.101562 0.921875 -1.75 0.921875 -2.59375 L 0.921875 -3.1875 C 0.921875 -3.4375 1.046875 -3.5625 1.296875 -3.5625 L 3.078125 -3.5625 C 3.316406 -3.5625 3.4375 -3.4375 3.4375 -3.1875 L 3.4375 -2.4375 L 5.46875 -2.4375 C 5.707031 -2.4375 5.828125 -2.5625 5.828125 -2.8125 L 5.828125 -6.203125 L 1.421875 -7.59375 C 1.210938 -7.664062 1.109375 -7.800781 1.109375 -8 L 1.109375 -14.4375 C 1.109375 -14.6875 1.234375 -14.8125 1.484375 -14.8125 Z M 1.484375 -14.8125 "/></g></g></g></svg>