<svg xmlns="http://www.w3.org/2000/svg" xmlns:xlink="http://www.w3.org/1999/xlink" width="500" zoomAndPan="magnify" viewBox="0 0 375 374.999991" height="500" preserveAspectRatio="xMidYMid meet" version="1.2"><defs><clipPath id="e2da190814"><path d="M 78.035156 148.421875 L 255 148.421875 L 255 214.996094 L 78.035156 214.996094 Z M 78.035156 148.421875 "/></clipPath><clipPath id="de19d79c35"><path d="M 86.285156 148.421875 L 246.636719 148.421875 C 248.824219 148.421875 250.921875 149.292969 252.472656 150.839844 C 254.019531 152.386719 254.886719 154.484375 254.886719 156.671875 L 254.886719 206.746094 C 254.886719 208.933594 254.019531 211.03125 252.472656 212.578125 C 250.921875 214.125 248.824219 214.996094 246.636719 214.996094 L 86.285156 214.996094 C 84.097656 214.996094 82 214.125 80.453125 212.578125 C 78.902344 211.03125 78.035156 208.933594 78.035156 206.746094 L 78.035156 156.671875 C 78.035156 154.484375 78.902344 152.386719 80.453125 150.839844 C 82 149.292969 84.097656 148.421875 86.285156 148.421875 Z M 86.285156 148.421875 "/></clipPath><clipPath id="9c6e1558d3"><path d="M 78.046875 148.421875 L 255 148.421875 L 255 215 L 78.046875 215 Z M 78.046875 148.421875 "/></clipPath><clipPath id="1e213515cb"><path d="M 86.292969 148.421875 L 246.625 148.421875 C 248.8125 148.421875 250.910156 149.292969 252.457031 150.839844 C 254.003906 152.386719 254.871094 154.484375 254.871094 156.671875 L 254.871094 206.738281 C 254.871094 208.925781 254.003906 211.023438 252.457031 212.570312 C 250.910156 214.117188 248.8125 214.984375 246.625 214.984375 L 86.292969 214.984375 C 84.105469 214.984375 82.007812 214.117188 80.460938 212.570312 C 78.914062 211.023438 78.046875 208.925781 78.046875 206.738281 L 78.046875 156.671875 C 78.046875 154.484375 78.914062 152.386719 80.460938 150.839844 C 82.007812 149.292969 84.105469 148.421875 86.292969 148.421875 Z M 86.292969 148.421875 "/></clipPath><clipPath id="8c42795e76"><path d="M 102.574219 168.738281 L 128 168.738281 L 128 206.238281 L 102.574219 206.238281 Z M 102.574219 168.738281 "/></clipPath></defs><g id="1aec1df5cc"><g clip-rule="nonzero" clip-path="url(#e2da190814)"><g clip-rule="nonzero" clip-path="url(#de19d79c35)"><path style=" stroke:none;fill-rule:nonzero;fill:#ffffff;fill-opacity:1;" d="M 78.035156 148.421875 L 254.867188 148.421875 L 254.867188 214.996094 L 78.035156 214.996094 Z M 78.035156 148.421875 "/></g></g><g clip-rule="nonzero" clip-path="url(#9c6e1558d3)"><g clip-rule="nonzero" clip-path="url(#1e213515cb)"><path style="fill:none;stroke-width:2;stroke-linecap:butt;stroke-linejoin:miter;stroke:#000000;stroke-opacity:1;stroke-miterlimit:4;" d="M 10.996923 -0.00130247 L 224.772992 -0.00130247 C 227.689659 -0.00130247 230.486535 1.160156 232.549035 3.222656 C 234.611535 5.285157 235.767785 8.082032 235.767785 10.998699 L 235.767785 77.753916 C 235.767785 80.670583 234.611535 83.467458 232.549035 85.529959 C 230.486535 87.592459 227.689659 88.748709 224.772992 88.748709 L 10.996923 88.748709 C 8.080256 88.748709 5.28338 87.592459 3.22088 85.529959 C 1.15838 83.467458 0.00212963 80.670583 0.00212963 77.753916 L 0.00212963 10.998699 C 0.00212963 8.082032 1.15838 5.285157 3.22088 3.222656 C 5.28338 1.160156 8.080256 -0.00130247 10.996923 -0.00130247 Z M 10.996923 -0.00130247 " transform="matrix(0.75,0,0,0.75,78.045278,148.422852)"/></g></g><path style=" stroke:none;fill-rule:nonzero;fill:#1e04ff;fill-opacity:1;" d="M 88.722656 155.445312 L 259.707031 155.445312 C 260.632812 155.445312 261.523438 155.8125 262.175781 156.46875 C 262.832031 157.125 263.199219 158.011719 263.199219 158.9375 L 263.199219 215.476562 C 263.199219 216.40625 262.832031 217.292969 262.175781 217.949219 C 261.523438 218.605469 260.632812 218.972656 259.707031 218.972656 L 88.722656 218.972656 C 87.796875 218.972656 86.90625 218.605469 86.253906 217.949219 C 85.597656 217.292969 85.230469 216.40625 85.230469 215.476562 L 85.230469 158.9375 C 85.230469 158.011719 85.597656 157.125 86.253906 156.46875 C 86.90625 155.8125 87.796875 155.445312 88.722656 155.445312 Z M 88.722656 155.445312 "/><g style="fill:#ffffff;fill-opacity:1;"><g transform="translate(96.968362, 205.155802)"><path style="stroke:none" d=""/></g></g><g style="fill:#ffffff;fill-opacity:1;"><g transform="translate(115.025294, 205.155802)"><path style="stroke:none" d=""/></g></g><g style="fill:#ffffff;fill-opacity:1;"><g transform="translate(133.082227, 205.155802)"><path style="stroke:none" d=""/></g></g><g style="fill:#ffffff;fill-opacity:1;"><g transform="translate(151.139624, 205.155802)"><path style="stroke:none" d="M 20.6875 -36.109375 L 20.6875 -31.5 C 20.6875 -30.976562 20.4375 -30.71875 19.9375 -30.71875 L 8.421875 -30.71875 L 8.421875 -21.515625 L 17.234375 -21.515625 C 17.722656 -21.515625 17.96875 -21.253906 17.96875 -20.734375 L 17.96875 -16.171875 C 17.96875 -15.648438 17.722656 -15.390625 17.234375 -15.390625 L 8.421875 -15.390625 L 8.421875 -6.078125 L 19.9375 -6.078125 C 20.4375 -6.078125 20.6875 -5.832031 20.6875 -5.34375 L 20.6875 -0.734375 C 20.6875 -0.242188 20.4375 0 19.9375 0 L 3 0 C 2.53125 0 2.296875 -0.242188 2.296875 -0.734375 L 2.296875 -36.109375 C 2.296875 -36.597656 2.53125 -36.84375 3 -36.84375 L 19.9375 -36.84375 C 20.4375 -36.84375 20.6875 -36.597656 20.6875 -36.109375 Z M 20.6875 -36.109375 "/></g></g><g style="fill:#ffffff;fill-opacity:1;"><g transform="translate(180.666053, 205.155802)"><path style="stroke:none" d="M 16.53125 -16.484375 L 24.28125 -1.109375 C 24.425781 -0.796875 24.4375 -0.53125 24.3125 -0.3125 C 24.195312 -0.101562 23.953125 0 23.578125 0 L 18.84375 0 C 18.351562 0 18 -0.210938 17.78125 -0.640625 L 12.890625 -10.640625 L 8.015625 -0.640625 C 7.796875 -0.210938 7.441406 0 6.953125 0 L 2.21875 0 C 1.84375 0 1.59375 -0.101562 1.46875 -0.3125 C 1.351562 -0.53125 1.367188 -0.796875 1.515625 -1.109375 L 9.296875 -16.484375 L 1.984375 -31.140625 C 1.828125 -31.441406 1.8125 -31.703125 1.9375 -31.921875 C 2.0625 -32.140625 2.304688 -32.25 2.671875 -32.25 L 7.421875 -32.25 C 7.910156 -32.25 8.257812 -32.03125 8.46875 -31.59375 L 12.890625 -22.296875 L 17.3125 -31.59375 C 17.53125 -32.03125 17.882812 -32.25 18.375 -32.25 L 23.125 -32.25 C 23.488281 -32.25 23.734375 -32.140625 23.859375 -31.921875 C 23.984375 -31.703125 23.96875 -31.441406 23.8125 -31.140625 Z M 16.53125 -16.484375 "/></g></g><g style="fill:#ffffff;fill-opacity:1;"><g transform="translate(213.462905, 205.155802)"><path style="stroke:none" d="M 3.046875 0 L 7.828125 0 C 8.316406 0 8.5625 -0.242188 8.5625 -0.734375 L 8.5625 -31.5 C 8.5625 -32 8.316406 -32.25 7.828125 -32.25 L 3.046875 -32.25 C 2.546875 -32.25 2.296875 -32 2.296875 -31.5 L 2.296875 -0.734375 C 2.296875 -0.242188 2.546875 0 3.046875 0 Z M 3.046875 0 "/></g></g><g style="fill:#ffffff;fill-opacity:1;"><g transform="translate(230.414307, 205.155802)"><path style="stroke:none" d="M 19.0625 -32.25 L 2.125 -32.25 C 1.625 -32.25 1.375 -32 1.375 -31.5 L 1.375 -26.90625 C 1.375 -26.40625 1.625 -26.15625 2.125 -26.15625 L 7.46875 -26.15625 L 7.46875 -0.734375 C 7.46875 -0.242188 7.710938 0 8.203125 0 L 12.984375 0 C 13.484375 0 13.734375 -0.242188 13.734375 -0.734375 L 13.734375 -26.15625 L 19.0625 -26.15625 C 19.5625 -26.15625 19.8125 -26.40625 19.8125 -26.90625 L 19.8125 -31.5 C 19.8125 -32 19.5625 -32.25 19.0625 -32.25 Z M 19.0625 -32.25 "/></g></g><path style=" stroke:none;fill-rule:nonzero;fill:#ffffff;fill-opacity:1;" d="M 139.324219 186.054688 L 132.042969 178.773438 C 131.863281 178.59375 131.652344 178.453125 131.417969 178.355469 C 131.179688 178.257812 130.933594 178.210938 130.679688 178.210938 C 130.421875 178.210938 130.175781 178.257812 129.941406 178.355469 C 129.703125 178.453125 129.496094 178.59375 129.3125 178.773438 C 129.132812 178.957031 128.992188 179.164062 128.894531 179.402344 C 128.796875 179.636719 128.75 179.882812 128.75 180.140625 C 128.75 180.394531 128.796875 180.640625 128.894531 180.878906 C 128.992188 181.113281 129.132812 181.324219 129.3125 181.503906 L 133.296875 185.488281 L 112.222656 185.488281 C 111.96875 185.488281 111.722656 185.535156 111.484375 185.636719 C 111.25 185.734375 111.039062 185.871094 110.859375 186.054688 C 110.679688 186.234375 110.539062 186.441406 110.441406 186.679688 C 110.34375 186.917969 110.292969 187.164062 110.292969 187.417969 C 110.292969 187.675781 110.34375 187.921875 110.441406 188.15625 C 110.539062 188.394531 110.679688 188.601562 110.859375 188.78125 C 111.039062 188.964844 111.25 189.101562 111.484375 189.203125 C 111.722656 189.300781 111.96875 189.347656 112.222656 189.347656 L 133.296875 189.347656 L 129.3125 193.332031 C 129.132812 193.511719 128.992188 193.722656 128.894531 193.957031 C 128.796875 194.195312 128.75 194.441406 128.75 194.695312 C 128.75 194.953125 128.796875 195.199219 128.894531 195.4375 C 128.992188 195.671875 129.132812 195.878906 129.3125 196.0625 C 129.496094 196.242188 129.703125 196.382812 129.941406 196.480469 C 130.175781 196.578125 130.421875 196.628906 130.679688 196.628906 C 130.933594 196.628906 131.179688 196.578125 131.417969 196.480469 C 131.652344 196.382812 131.863281 196.242188 132.042969 196.0625 L 139.324219 188.78125 C 139.503906 188.601562 139.644531 188.394531 139.742188 188.15625 C 139.839844 187.921875 139.886719 187.675781 139.886719 187.417969 C 139.886719 187.164062 139.839844 186.914062 139.742188 186.679688 C 139.644531 186.441406 139.503906 186.234375 139.324219 186.054688 Z M 139.324219 186.054688 "/><g clip-rule="nonzero" clip-path="url(#8c42795e76)"><path style=" stroke:none;fill-rule:nonzero;fill:#ffffff;fill-opacity:1;" d="M 125.089844 198.355469 C 124.835938 198.355469 124.589844 198.40625 124.351562 198.503906 C 124.117188 198.601562 123.90625 198.738281 123.726562 198.921875 C 123.546875 199.101562 123.40625 199.308594 123.308594 199.546875 C 123.210938 199.785156 123.160156 200.03125 123.160156 200.285156 L 123.160156 202.214844 L 106.433594 202.214844 L 106.433594 172.621094 L 123.160156 172.621094 L 123.160156 174.550781 C 123.160156 174.808594 123.210938 175.054688 123.308594 175.289062 C 123.40625 175.527344 123.546875 175.734375 123.726562 175.914062 C 123.90625 176.097656 124.117188 176.234375 124.351562 176.335938 C 124.589844 176.433594 124.835938 176.480469 125.089844 176.480469 C 125.347656 176.480469 125.59375 176.433594 125.828125 176.335938 C 126.066406 176.234375 126.273438 176.097656 126.457031 175.914062 C 126.636719 175.734375 126.777344 175.527344 126.875 175.289062 C 126.972656 175.054688 127.019531 174.808594 127.019531 174.550781 L 127.019531 171.976562 C 127.019531 171.550781 126.9375 171.140625 126.777344 170.746094 C 126.613281 170.351562 126.378906 170.003906 126.078125 169.703125 C 125.777344 169.402344 125.429688 169.167969 125.035156 169.003906 C 124.640625 168.84375 124.230469 168.761719 123.804688 168.761719 L 105.789062 168.761719 C 105.363281 168.761719 104.953125 168.84375 104.558594 169.003906 C 104.164062 169.167969 103.816406 169.402344 103.515625 169.703125 C 103.214844 170.003906 102.980469 170.351562 102.816406 170.746094 C 102.65625 171.140625 102.574219 171.550781 102.574219 171.976562 L 102.574219 202.859375 C 102.574219 203.285156 102.65625 203.695312 102.816406 204.089844 C 102.980469 204.484375 103.214844 204.832031 103.515625 205.132812 C 103.816406 205.433594 104.164062 205.667969 104.558594 205.832031 C 104.953125 205.992188 105.363281 206.074219 105.789062 206.074219 L 123.804688 206.074219 C 124.230469 206.074219 124.640625 205.992188 125.035156 205.832031 C 125.429688 205.667969 125.777344 205.433594 126.078125 205.132812 C 126.378906 204.832031 126.613281 204.484375 126.777344 204.089844 C 126.9375 203.695312 127.019531 203.285156 127.019531 202.859375 L 127.019531 200.285156 C 127.019531 200.03125 126.972656 199.785156 126.875 199.546875 C 126.777344 199.308594 126.636719 199.101562 126.457031 198.921875 C 126.273438 198.738281 126.066406 198.601562 125.828125 198.503906 C 125.59375 198.40625 125.347656 198.355469 125.089844 198.355469 Z M 125.089844 198.355469 "/></g></g></svg>