<svg xmlns="http://www.w3.org/2000/svg" xmlns:xlink="http://www.w3.org/1999/xlink" width="500" zoomAndPan="magnify" viewBox="0 0 375 374.999991" height="500" preserveAspectRatio="xMidYMid meet" version="1.2"><defs><clipPath id="75f7d14075"><path d="M 37.5 148.421875 L 324.332031 148.421875 L 324.332031 214.996094 L 37.5 214.996094 Z M 37.5 148.421875 "/></clipPath><clipPath id="13fa556dee"><path d="M 45.75 148.421875 L 316.042969 148.421875 C 318.230469 148.421875 320.328125 149.292969 321.875 150.839844 C 323.421875 152.386719 324.292969 154.484375 324.292969 156.671875 L 324.292969 206.746094 C 324.292969 208.933594 323.421875 211.03125 321.875 212.578125 C 320.328125 214.125 318.230469 214.996094 316.042969 214.996094 L 45.75 214.996094 C 43.5625 214.996094 41.464844 214.125 39.917969 212.578125 C 38.371094 211.03125 37.5 208.933594 37.5 206.746094 L 37.5 156.671875 C 37.5 154.484375 38.371094 152.386719 39.917969 150.839844 C 41.464844 149.292969 43.5625 148.421875 45.75 148.421875 Z M 45.75 148.421875 "/></clipPath><clipPath id="d0446ee8d9"><path d="M 37.515625 148.421875 L 324 148.421875 L 324 215 L 37.515625 215 Z M 37.515625 148.421875 "/></clipPath><clipPath id="357f04fcad"><path d="M 45.753906 148.421875 L 315.746094 148.421875 C 317.929688 148.421875 320.027344 149.289062 321.570312 150.835938 C 323.117188 152.382812 323.984375 154.476562 323.984375 156.664062 L 323.984375 206.679688 C 323.984375 208.863281 323.117188 210.960938 321.570312 212.507812 C 320.027344 214.050781 317.929688 214.921875 315.746094 214.921875 L 45.753906 214.921875 C 43.570312 214.921875 41.472656 214.050781 39.929688 212.507812 C 38.382812 210.960938 37.515625 208.863281 37.515625 206.679688 L 37.515625 156.664062 C 37.515625 154.476562 38.382812 152.382812 39.929688 150.835938 C 41.472656 149.289062 43.570312 148.421875 45.753906 148.421875 Z M 45.753906 148.421875 "/></clipPath><clipPath id="e347a67f2f"><path d="M 58.152344 167.304688 L 98.652344 167.304688 L 98.652344 207.804688 L 58.152344 207.804688 Z M 58.152344 167.304688 "/></clipPath></defs><g id="2c538b2eb0"><g clip-rule="nonzero" clip-path="url(#75f7d14075)"><g clip-rule="nonzero" clip-path="url(#13fa556dee)"><path style=" stroke:none;fill-rule:nonzero;fill:#ffffff;fill-opacity:1;" d="M 37.5 148.421875 L 324.332031 148.421875 L 324.332031 214.996094 L 37.5 214.996094 Z M 37.5 148.421875 "/></g></g><g clip-rule="nonzero" clip-path="url(#d0446ee8d9)"><g clip-rule="nonzero" clip-path="url(#357f04fcad)"><path style="fill:none;stroke-width:2;stroke-linecap:butt;stroke-linejoin:miter;stroke:#000000;stroke-opacity:1;stroke-miterlimit:4;" d="M 10.996107 -0.00118523 L 371.339092 -0.00118523 C 374.253409 -0.00118523 377.053029 1.1562 379.112341 3.220725 C 381.176866 5.285249 382.334251 8.079657 382.334251 10.999187 L 382.334251 77.752154 C 382.334251 80.66647 381.176866 83.466091 379.112341 85.530616 C 377.053029 87.589927 374.253409 88.752526 371.339092 88.752526 L 10.996107 88.752526 C 8.081791 88.752526 5.28217 87.589927 3.222859 85.530616 C 1.158334 83.466091 0.000948668 80.66647 0.000948668 77.752154 L 0.000948668 10.999187 C 0.000948668 8.079657 1.158334 5.285249 3.222859 3.220725 C 5.28217 1.1562 8.081791 -0.00118523 10.996107 -0.00118523 Z M 10.996107 -0.00118523 " transform="matrix(0.749264,0,0,0.749264,37.514914,148.422763)"/></g></g><path style=" stroke:none;fill-rule:nonzero;fill:#1e04ff;fill-opacity:1;" d="M 45.730469 155.445312 L 329.074219 155.445312 C 330 155.445312 330.886719 155.8125 331.542969 156.46875 C 332.199219 157.121094 332.566406 158.011719 332.566406 158.9375 L 332.566406 215.488281 C 332.566406 216.417969 332.199219 217.304688 331.542969 217.960938 C 330.886719 218.617188 330 218.984375 329.074219 218.984375 L 45.730469 218.984375 C 44.804688 218.984375 43.917969 218.617188 43.261719 217.960938 C 42.605469 217.304688 42.238281 216.417969 42.238281 215.488281 L 42.238281 158.9375 C 42.238281 158.011719 42.605469 157.121094 43.261719 156.46875 C 43.917969 155.8125 44.804688 155.445312 45.730469 155.445312 Z M 45.730469 155.445312 "/><g style="fill:#ffffff;fill-opacity:1;"><g transform="translate(53.978204, 205.155773)"><path style="stroke:none" d=""/></g></g><g style="fill:#ffffff;fill-opacity:1;"><g transform="translate(72.035136, 205.155773)"><path style="stroke:none" d=""/></g></g><g style="fill:#ffffff;fill-opacity:1;"><g transform="translate(90.092069, 205.155773)"><path style="stroke:none" d=""/></g></g><g style="fill:#ffffff;fill-opacity:1;"><g transform="translate(108.149466, 205.155773)"><path style="stroke:none" d="M 8.9375 -36.84375 L 14.09375 -36.84375 C 16.269531 -36.84375 17.921875 -36.28125 19.046875 -35.15625 C 20.171875 -34.039062 20.734375 -32.394531 20.734375 -30.21875 L 20.734375 -25.328125 C 20.734375 -24.835938 20.484375 -24.59375 19.984375 -24.59375 L 15.203125 -24.59375 C 14.710938 -24.59375 14.46875 -24.835938 14.46875 -25.328125 L 14.46875 -28.921875 C 14.46875 -30.148438 13.851562 -30.765625 12.625 -30.765625 L 10.40625 -30.765625 C 9.175781 -30.765625 8.5625 -30.148438 8.5625 -28.921875 L 8.5625 -22.578125 L 19.53125 -18.984375 C 20.332031 -18.640625 20.734375 -18.066406 20.734375 -17.265625 L 20.734375 -6.640625 C 20.734375 -4.484375 20.171875 -2.835938 19.046875 -1.703125 C 17.921875 -0.566406 16.269531 0 14.09375 0 L 8.9375 0 C 6.789062 0 5.144531 -0.566406 4 -1.703125 C 2.863281 -2.835938 2.296875 -4.484375 2.296875 -6.640625 L 2.296875 -11.46875 C 2.296875 -11.957031 2.546875 -12.203125 3.046875 -12.203125 L 7.828125 -12.203125 C 8.316406 -12.203125 8.5625 -11.957031 8.5625 -11.46875 L 8.5625 -7.921875 C 8.5625 -6.691406 9.175781 -6.078125 10.40625 -6.078125 L 12.625 -6.078125 C 13.851562 -6.078125 14.46875 -6.691406 14.46875 -7.921875 L 14.46875 -14.046875 L 3.546875 -17.640625 C 2.710938 -17.921875 2.296875 -18.488281 2.296875 -19.34375 L 2.296875 -30.21875 C 2.296875 -32.394531 2.863281 -34.039062 4 -35.15625 C 5.144531 -36.28125 6.789062 -36.84375 8.9375 -36.84375 Z M 8.9375 -36.84375 "/></g></g><g style="fill:#ffffff;fill-opacity:1;"><g transform="translate(137.721956, 205.155773)"><path style="stroke:none" d="M 20.6875 -31.5 L 20.6875 -26.90625 C 20.6875 -26.382812 20.4375 -26.125 19.9375 -26.125 L 8.5625 -26.125 L 8.5625 -19.03125 L 17.234375 -19.03125 C 17.722656 -19.03125 17.96875 -18.765625 17.96875 -18.234375 L 17.96875 -13.6875 C 17.96875 -13.15625 17.722656 -12.890625 17.234375 -12.890625 L 8.5625 -12.890625 L 8.5625 -6.078125 L 19.9375 -6.078125 C 20.4375 -6.078125 20.6875 -5.832031 20.6875 -5.34375 L 20.6875 -0.734375 C 20.6875 -0.242188 20.4375 0 19.9375 0 L 3 0 C 2.53125 0 2.296875 -0.242188 2.296875 -0.734375 L 2.296875 -31.5 C 2.296875 -32 2.53125 -32.25 3 -32.25 L 19.9375 -32.25 C 20.4375 -32.25 20.6875 -32 20.6875 -31.5 Z M 20.6875 -31.5 "/></g></g><g style="fill:#ffffff;fill-opacity:1;"><g transform="translate(166.327072, 205.155773)"><path style="stroke:none" d="M 19.0625 -32.25 L 2.125 -32.25 C 1.625 -32.25 1.375 -32 1.375 -31.5 L 1.375 -26.90625 C 1.375 -26.40625 1.625 -26.15625 2.125 -26.15625 L 7.46875 -26.15625 L 7.46875 -0.734375 C 7.46875 -0.242188 7.710938 0 8.203125 0 L 12.984375 0 C 13.484375 0 13.734375 -0.242188 13.734375 -0.734375 L 13.734375 -26.15625 L 19.0625 -26.15625 C 19.5625 -26.15625 19.8125 -26.40625 19.8125 -26.90625 L 19.8125 -31.5 C 19.8125 -32 19.5625 -32.25 19.0625 -32.25 Z M 19.0625 -32.25 "/></g></g><g style="fill:#ffffff;fill-opacity:1;"><g transform="translate(192.905435, 205.155773)"><path style="stroke:none" d="M 19.0625 -32.25 L 2.125 -32.25 C 1.625 -32.25 1.375 -32 1.375 -31.5 L 1.375 -26.90625 C 1.375 -26.40625 1.625 -26.15625 2.125 -26.15625 L 7.46875 -26.15625 L 7.46875 -0.734375 C 7.46875 -0.242188 7.710938 0 8.203125 0 L 12.984375 0 C 13.484375 0 13.734375 -0.242188 13.734375 -0.734375 L 13.734375 -26.15625 L 19.0625 -26.15625 C 19.5625 -26.15625 19.8125 -26.40625 19.8125 -26.90625 L 19.8125 -31.5 C 19.8125 -32 19.5625 -32.25 19.0625 -32.25 Z M 19.0625 -32.25 "/></g></g><g style="fill:#ffffff;fill-opacity:1;"><g transform="translate(220.174785, 205.155773)"><path style="stroke:none" d="M 3.046875 0 L 7.828125 0 C 8.316406 0 8.5625 -0.242188 8.5625 -0.734375 L 8.5625 -31.5 C 8.5625 -32 8.316406 -32.25 7.828125 -32.25 L 3.046875 -32.25 C 2.546875 -32.25 2.296875 -32 2.296875 -31.5 L 2.296875 -0.734375 C 2.296875 -0.242188 2.546875 0 3.046875 0 Z M 3.046875 0 "/></g></g><g style="fill:#ffffff;fill-opacity:1;"><g transform="translate(237.58684, 205.155773)"><path style="stroke:none" d="M 16.90625 -32.25 L 21.234375 -32.25 C 21.722656 -32.25 21.96875 -32 21.96875 -31.5 L 21.96875 -0.734375 C 21.96875 -0.242188 21.722656 0 21.234375 0 L 17.59375 0 C 17.226562 0 16.953125 -0.195312 16.765625 -0.59375 L 8.109375 -18.1875 L 8.109375 -0.734375 C 8.109375 -0.242188 7.863281 0 7.375 0 L 3.046875 0 C 2.546875 0 2.296875 -0.242188 2.296875 -0.734375 L 2.296875 -31.5 C 2.296875 -32 2.546875 -32.25 3.046875 -32.25 L 6.671875 -32.25 C 7.046875 -32.25 7.328125 -32.046875 7.515625 -31.640625 L 16.171875 -14.046875 L 16.171875 -31.5 C 16.171875 -32 16.414062 -32.25 16.90625 -32.25 Z M 16.90625 -32.25 "/></g></g><g style="fill:#ffffff;fill-opacity:1;"><g transform="translate(268.403015, 205.155773)"><path style="stroke:none" d="M 2.296875 -6.640625 L 2.296875 -25.609375 C 2.296875 -27.785156 2.863281 -29.4375 4 -30.5625 C 5.144531 -31.6875 6.789062 -32.25 8.9375 -32.25 L 14.09375 -32.25 C 16.238281 -32.25 17.878906 -31.6875 19.015625 -30.5625 C 20.160156 -29.4375 20.734375 -27.785156 20.734375 -25.609375 L 20.734375 -22.203125 C 20.734375 -21.710938 20.484375 -21.46875 19.984375 -21.46875 L 15.65625 -21.46875 C 15.164062 -21.46875 14.921875 -21.710938 14.921875 -22.203125 L 14.921875 -24.453125 C 14.921875 -25.679688 14.304688 -26.296875 13.078125 -26.296875 L 10.140625 -26.296875 C 8.910156 -26.296875 8.296875 -25.679688 8.296875 -24.453125 L 8.296875 -7.78125 C 8.296875 -6.550781 8.910156 -5.9375 10.140625 -5.9375 L 13.078125 -5.9375 C 14.304688 -5.9375 14.921875 -6.550781 14.921875 -7.78125 L 14.921875 -11.796875 L 12.53125 -11.796875 C 12.039062 -11.796875 11.796875 -12.039062 11.796875 -12.53125 L 11.796875 -17.140625 C 11.796875 -17.628906 12.039062 -17.875 12.53125 -17.875 L 19.984375 -17.875 C 20.484375 -17.875 20.734375 -17.628906 20.734375 -17.140625 L 20.734375 -6.640625 C 20.734375 -4.484375 20.160156 -2.835938 19.015625 -1.703125 C 17.878906 -0.566406 16.238281 0 14.09375 0 L 8.9375 0 C 6.789062 0 5.144531 -0.566406 4 -1.703125 C 2.863281 -2.835938 2.296875 -4.484375 2.296875 -6.640625 Z M 2.296875 -6.640625 "/></g></g><g style="fill:#ffffff;fill-opacity:1;"><g transform="translate(297.975512, 205.155773)"><path style="stroke:none" d="M 8.9375 -32.25 L 14.09375 -32.25 C 16.269531 -32.25 17.921875 -31.6875 19.046875 -30.5625 C 20.171875 -29.4375 20.734375 -27.785156 20.734375 -25.609375 L 20.734375 -22.578125 C 20.734375 -22.078125 20.484375 -21.828125 19.984375 -21.828125 L 15.34375 -21.828125 C 14.851562 -21.828125 14.609375 -22.078125 14.609375 -22.578125 L 14.609375 -24.5 C 14.609375 -25.726562 13.992188 -26.34375 12.765625 -26.34375 L 10.21875 -26.34375 C 9 -26.34375 8.390625 -25.726562 8.390625 -24.5 L 8.390625 -20.59375 L 19.53125 -17 C 20.332031 -16.71875 20.734375 -16.148438 20.734375 -15.296875 L 20.734375 -6.640625 C 20.734375 -4.484375 20.171875 -2.835938 19.046875 -1.703125 C 17.921875 -0.566406 16.269531 0 14.09375 0 L 8.9375 0 C 6.789062 0 5.144531 -0.566406 4 -1.703125 C 2.863281 -2.835938 2.296875 -4.484375 2.296875 -6.640625 L 2.296875 -9.625 C 2.296875 -10.113281 2.546875 -10.359375 3.046875 -10.359375 L 7.6875 -10.359375 C 8.175781 -10.359375 8.421875 -10.113281 8.421875 -9.625 L 8.421875 -7.6875 C 8.421875 -6.457031 9.035156 -5.84375 10.265625 -5.84375 L 12.765625 -5.84375 C 13.992188 -5.84375 14.609375 -6.457031 14.609375 -7.6875 L 14.609375 -12.34375 L 3.546875 -15.9375 C 2.710938 -16.21875 2.296875 -16.785156 2.296875 -17.640625 L 2.296875 -25.609375 C 2.296875 -27.785156 2.863281 -29.4375 4 -30.5625 C 5.144531 -31.6875 6.789062 -32.25 8.9375 -32.25 Z M 8.9375 -32.25 "/></g></g><path style=" stroke:none;fill-rule:nonzero;fill:#ffffff;fill-opacity:1;" d="M 78.34375 184.023438 C 77.882812 184.023438 77.441406 184.113281 77.015625 184.289062 C 76.589844 184.464844 76.214844 184.714844 75.886719 185.039062 C 75.5625 185.367188 75.3125 185.742188 75.136719 186.167969 C 74.960938 186.59375 74.871094 187.035156 74.871094 187.496094 C 74.871094 187.957031 74.960938 188.398438 75.136719 188.824219 C 75.3125 189.25 75.5625 189.625 75.886719 189.953125 C 76.214844 190.277344 76.589844 190.527344 77.015625 190.703125 C 77.441406 190.882812 77.882812 190.96875 78.34375 190.96875 C 78.804688 190.96875 79.246094 190.882812 79.671875 190.703125 C 80.097656 190.527344 80.472656 190.277344 80.800781 189.953125 C 81.125 189.625 81.375 189.25 81.550781 188.824219 C 81.730469 188.398438 81.816406 187.957031 81.816406 187.496094 C 81.816406 187.035156 81.726562 186.59375 81.550781 186.167969 C 81.375 185.742188 81.121094 185.367188 80.796875 185.042969 C 80.472656 184.71875 80.097656 184.464844 79.671875 184.289062 C 79.246094 184.113281 78.804688 184.023438 78.34375 184.023438 Z M 78.34375 184.023438 "/><g clip-rule="nonzero" clip-path="url(#e347a67f2f)"><path style=" stroke:none;fill-rule:nonzero;fill:#ffffff;fill-opacity:1;" d="M 78.34375 167.304688 C 77.683594 167.304688 77.023438 167.335938 76.363281 167.402344 C 75.707031 167.46875 75.054688 167.5625 74.40625 167.691406 C 73.757812 167.820312 73.117188 167.984375 72.484375 168.175781 C 71.851562 168.367188 71.226562 168.589844 70.617188 168.84375 C 70.007812 169.09375 69.410156 169.378906 68.824219 169.6875 C 68.242188 170 67.675781 170.339844 67.125 170.707031 C 66.578125 171.074219 66.046875 171.46875 65.535156 171.886719 C 65.023438 172.308594 64.535156 172.75 64.066406 173.21875 C 63.597656 173.6875 63.15625 174.175781 62.734375 174.6875 C 62.316406 175.199219 61.921875 175.730469 61.554688 176.277344 C 61.1875 176.828125 60.847656 177.394531 60.535156 177.976562 C 60.226562 178.5625 59.941406 179.160156 59.691406 179.769531 C 59.4375 180.378906 59.214844 181.003906 59.023438 181.636719 C 58.832031 182.269531 58.667969 182.910156 58.539062 183.558594 C 58.410156 184.207031 58.316406 184.859375 58.25 185.515625 C 58.183594 186.175781 58.152344 186.835938 58.152344 187.496094 C 58.152344 188.15625 58.183594 188.816406 58.25 189.476562 C 58.316406 190.132812 58.410156 190.785156 58.539062 191.433594 C 58.667969 192.085938 58.832031 192.726562 59.023438 193.359375 C 59.214844 193.992188 59.4375 194.613281 59.691406 195.222656 C 59.941406 195.835938 60.226562 196.429688 60.535156 197.015625 C 60.847656 197.597656 61.1875 198.164062 61.554688 198.714844 C 61.921875 199.265625 62.316406 199.792969 62.734375 200.304688 C 63.15625 200.816406 63.597656 201.304688 64.066406 201.773438 C 64.535156 202.242188 65.023438 202.683594 65.535156 203.105469 C 66.046875 203.523438 66.578125 203.917969 67.125 204.285156 C 67.675781 204.652344 68.242188 204.992188 68.824219 205.304688 C 69.410156 205.617188 70.007812 205.898438 70.617188 206.152344 C 71.226562 206.402344 71.851562 206.625 72.484375 206.816406 C 73.117188 207.011719 73.757812 207.171875 74.40625 207.300781 C 75.054688 207.429688 75.707031 207.527344 76.363281 207.589844 C 77.023438 207.65625 77.683594 207.6875 78.34375 207.6875 C 79.003906 207.6875 79.664062 207.65625 80.324219 207.589844 C 80.980469 207.527344 81.632812 207.429688 82.285156 207.300781 C 82.933594 207.171875 83.574219 207.011719 84.207031 206.816406 C 84.839844 206.625 85.460938 206.402344 86.070312 206.152344 C 86.683594 205.898438 87.277344 205.617188 87.863281 205.304688 C 88.445312 204.992188 89.011719 204.652344 89.5625 204.285156 C 90.113281 203.917969 90.640625 203.523438 91.152344 203.105469 C 91.664062 202.683594 92.152344 202.242188 92.621094 201.773438 C 93.089844 201.304688 93.53125 200.816406 93.953125 200.304688 C 94.371094 199.792969 94.765625 199.265625 95.132812 198.714844 C 95.5 198.164062 95.839844 197.597656 96.152344 197.015625 C 96.464844 196.429688 96.746094 195.835938 97 195.222656 C 97.25 194.613281 97.472656 193.992188 97.667969 193.359375 C 97.859375 192.726562 98.019531 192.085938 98.148438 191.433594 C 98.277344 190.785156 98.375 190.132812 98.4375 189.476562 C 98.503906 188.816406 98.535156 188.15625 98.535156 187.496094 C 98.535156 186.835938 98.503906 186.175781 98.4375 185.515625 C 98.371094 184.859375 98.277344 184.207031 98.144531 183.558594 C 98.015625 182.910156 97.855469 182.269531 97.664062 181.636719 C 97.472656 181.003906 97.25 180.382812 96.996094 179.769531 C 96.742188 179.160156 96.460938 178.5625 96.148438 177.980469 C 95.835938 177.398438 95.496094 176.832031 95.128906 176.28125 C 94.761719 175.730469 94.371094 175.199219 93.949219 174.6875 C 93.53125 174.179688 93.085938 173.6875 92.621094 173.222656 C 92.152344 172.753906 91.664062 172.308594 91.152344 171.890625 C 90.640625 171.472656 90.109375 171.078125 89.558594 170.710938 C 89.011719 170.34375 88.445312 170.003906 87.859375 169.691406 C 87.277344 169.378906 86.679688 169.097656 86.070312 168.84375 C 85.460938 168.589844 84.835938 168.367188 84.203125 168.175781 C 83.570312 167.984375 82.929688 167.824219 82.28125 167.695312 C 81.632812 167.566406 80.980469 167.46875 80.324219 167.402344 C 79.664062 167.335938 79.003906 167.304688 78.34375 167.304688 Z M 88.128906 189.488281 L 89.460938 191.304688 C 89.636719 191.546875 89.667969 191.808594 89.558594 192.085938 C 89.144531 193.105469 88.597656 194.050781 87.914062 194.914062 C 87.730469 195.144531 87.492188 195.242188 87.203125 195.210938 L 84.96875 194.96875 C 84.609375 194.929688 84.257812 194.949219 83.910156 195.023438 C 83.558594 195.097656 83.230469 195.222656 82.917969 195.402344 C 82.609375 195.582031 82.335938 195.804688 82.097656 196.070312 C 81.859375 196.335938 81.664062 196.632812 81.519531 196.960938 L 80.605469 199.019531 C 80.488281 199.292969 80.28125 199.457031 79.988281 199.503906 C 78.890625 199.648438 77.796875 199.648438 76.703125 199.503906 C 76.40625 199.457031 76.199219 199.292969 76.082031 199.019531 L 75.179688 196.972656 C 75.035156 196.644531 74.84375 196.34375 74.605469 196.078125 C 74.367188 195.808594 74.089844 195.585938 73.777344 195.40625 C 73.46875 195.222656 73.136719 195.097656 72.785156 195.023438 C 72.433594 194.945312 72.078125 194.929688 71.722656 194.96875 L 69.488281 195.210938 C 69.195312 195.238281 68.957031 195.140625 68.773438 194.914062 C 68.089844 194.050781 67.542969 193.105469 67.132812 192.085938 C 67.019531 191.808594 67.050781 191.546875 67.226562 191.304688 L 68.558594 189.488281 C 68.769531 189.199219 68.933594 188.886719 69.046875 188.546875 C 69.160156 188.203125 69.214844 187.855469 69.214844 187.496094 C 69.214844 187.136719 69.160156 186.789062 69.046875 186.449219 C 68.933594 186.105469 68.769531 185.792969 68.558594 185.503906 L 67.226562 183.6875 C 67.050781 183.445312 67.019531 183.183594 67.132812 182.90625 C 67.542969 181.886719 68.089844 180.945312 68.773438 180.078125 C 68.957031 179.847656 69.195312 179.75 69.488281 179.785156 L 71.722656 180.027344 C 72.078125 180.066406 72.429688 180.046875 72.78125 179.972656 C 73.128906 179.898438 73.460938 179.773438 73.769531 179.59375 C 74.082031 179.414062 74.355469 179.191406 74.59375 178.925781 C 74.832031 178.660156 75.023438 178.359375 75.167969 178.035156 L 76.082031 175.972656 C 76.203125 175.703125 76.410156 175.546875 76.703125 175.503906 C 77.796875 175.339844 78.890625 175.339844 79.988281 175.503906 C 80.28125 175.546875 80.488281 175.703125 80.605469 175.972656 L 81.507812 178.019531 C 81.652344 178.347656 81.84375 178.648438 82.082031 178.914062 C 82.324219 179.183594 82.597656 179.40625 82.910156 179.589844 C 83.21875 179.769531 83.550781 179.894531 83.902344 179.972656 C 84.253906 180.046875 84.609375 180.0625 84.96875 180.027344 L 87.203125 179.785156 C 87.492188 179.75 87.730469 179.847656 87.914062 180.078125 C 88.597656 180.945312 89.144531 181.886719 89.558594 182.90625 C 89.667969 183.183594 89.636719 183.445312 89.460938 183.6875 L 88.128906 185.503906 C 87.917969 185.792969 87.753906 186.105469 87.640625 186.449219 C 87.53125 186.789062 87.472656 187.136719 87.472656 187.496094 C 87.472656 187.855469 87.53125 188.203125 87.640625 188.546875 C 87.753906 188.886719 87.917969 189.199219 88.128906 189.488281 Z M 88.128906 189.488281 "/></g></g></svg>