<svg xmlns="http://www.w3.org/2000/svg" xmlns:xlink="http://www.w3.org/1999/xlink" width="300" zoomAndPan="magnify" viewBox="0 0 224.87999 149.999998" height="200" preserveAspectRatio="xMidYMid meet" version="1.2"><defs><clipPath id="59429f4efa"><path d="M 19.546875 38.191406 L 191.410156 38.191406 L 191.410156 92.644531 L 19.546875 92.644531 Z M 19.546875 38.191406 "/></clipPath><clipPath id="9c8c31aef1"><path d="M 22.847656 38.191406 L 188.066406 38.191406 C 188.941406 38.191406 189.777344 38.539062 190.398438 39.160156 C 191.015625 39.777344 191.363281 40.617188 191.363281 41.492188 L 191.363281 89.34375 C 191.363281 90.21875 191.015625 91.058594 190.398438 91.679688 C 189.777344 92.296875 188.941406 92.644531 188.066406 92.644531 L 22.847656 92.644531 C 21.972656 92.644531 21.132812 92.296875 20.515625 91.679688 C 19.894531 91.058594 19.546875 90.21875 19.546875 89.34375 L 19.546875 41.492188 C 19.546875 40.617188 19.894531 39.777344 20.515625 39.160156 C 21.132812 38.539062 21.972656 38.191406 22.847656 38.191406 Z M 22.847656 38.191406 "/></clipPath><clipPath id="a3bd78704e"><path d="M 37.238281 53.351562 L 64.488281 53.351562 L 64.488281 86.796875 L 37.238281 86.796875 Z M 37.238281 53.351562 "/></clipPath></defs><g id="5532a737ab"><g clip-rule="nonzero" clip-path="url(#59429f4efa)"><g clip-rule="nonzero" clip-path="url(#9c8c31aef1)"><path style=" stroke:none;fill-rule:nonzero;fill:#ffffff;fill-opacity:1;" d="M 19.546875 38.191406 L 191.410156 38.191406 L 191.410156 92.644531 L 19.546875 92.644531 Z M 19.546875 38.191406 "/></g></g><path style=" stroke:none;fill-rule:nonzero;fill:#1e04ff;fill-opacity:1;" d="M 25.980469 43.953125 L 195.421875 43.953125 C 196.179688 43.953125 196.910156 44.253906 197.445312 44.792969 C 197.980469 45.328125 198.28125 46.054688 198.28125 46.8125 L 198.28125 93.078125 C 198.28125 93.835938 197.980469 94.566406 197.445312 95.101562 C 196.910156 95.636719 196.179688 95.9375 195.421875 95.9375 L 25.980469 95.9375 C 25.222656 95.9375 24.496094 95.636719 23.960938 95.101562 C 23.421875 94.566406 23.121094 93.835938 23.121094 93.078125 L 23.121094 46.8125 C 23.121094 46.054688 23.421875 45.328125 23.960938 44.792969 C 24.496094 44.253906 25.222656 43.953125 25.980469 43.953125 Z M 25.980469 43.953125 "/><g style="fill:#ffffff;fill-opacity:1;"><g transform="translate(32.726259, 84.599603)"><path style="stroke:none" d=""/></g></g><g style="fill:#ffffff;fill-opacity:1;"><g transform="translate(47.489166, 84.599603)"><path style="stroke:none" d=""/></g></g><g style="fill:#ffffff;fill-opacity:1;"><g transform="translate(62.252072, 84.599603)"><path style="stroke:none" d=""/></g></g><g style="fill:#ffffff;fill-opacity:1;"><g transform="translate(77.015359, 84.599603)"><path style="stroke:none" d="M 7.3125 -30.125 L 11.515625 -30.125 C 13.304688 -30.125 14.660156 -29.664062 15.578125 -28.75 C 16.492188 -27.832031 16.953125 -26.484375 16.953125 -24.703125 L 16.953125 -20.71875 C 16.953125 -20.3125 16.75 -20.109375 16.34375 -20.109375 L 12.421875 -20.109375 C 12.023438 -20.109375 11.828125 -20.3125 11.828125 -20.71875 L 11.828125 -23.640625 C 11.828125 -24.648438 11.320312 -25.15625 10.3125 -25.15625 L 8.515625 -25.15625 C 7.503906 -25.15625 7 -24.648438 7 -23.640625 L 7 -18.453125 L 15.96875 -15.515625 C 16.625 -15.234375 16.953125 -14.769531 16.953125 -14.125 L 16.953125 -5.421875 C 16.953125 -3.660156 16.492188 -2.316406 15.578125 -1.390625 C 14.660156 -0.460938 13.304688 0 11.515625 0 L 7.3125 0 C 5.550781 0 4.207031 -0.460938 3.28125 -1.390625 C 2.351562 -2.316406 1.890625 -3.660156 1.890625 -5.421875 L 1.890625 -9.375 C 1.890625 -9.78125 2.085938 -9.984375 2.484375 -9.984375 L 6.40625 -9.984375 C 6.800781 -9.984375 7 -9.78125 7 -9.375 L 7 -6.484375 C 7 -5.472656 7.503906 -4.96875 8.515625 -4.96875 L 10.3125 -4.96875 C 11.320312 -4.96875 11.828125 -5.472656 11.828125 -6.484375 L 11.828125 -11.484375 L 2.90625 -14.421875 C 2.226562 -14.648438 1.890625 -15.113281 1.890625 -15.8125 L 1.890625 -24.703125 C 1.890625 -26.484375 2.351562 -27.832031 3.28125 -28.75 C 4.207031 -29.664062 5.550781 -30.125 7.3125 -30.125 Z M 7.3125 -30.125 "/></g></g><g style="fill:#ffffff;fill-opacity:1;"><g transform="translate(101.193102, 84.599603)"><path style="stroke:none" d="M 15.59375 -26.359375 L 1.734375 -26.359375 C 1.328125 -26.359375 1.125 -26.15625 1.125 -25.75 L 1.125 -21.984375 C 1.125 -21.585938 1.328125 -21.390625 1.734375 -21.390625 L 6.09375 -21.390625 L 6.09375 -0.609375 C 6.09375 -0.203125 6.296875 0 6.703125 0 L 10.625 0 C 11.019531 0 11.21875 -0.203125 11.21875 -0.609375 L 11.21875 -21.390625 L 15.59375 -21.390625 C 15.988281 -21.390625 16.1875 -21.585938 16.1875 -21.984375 L 16.1875 -25.75 C 16.1875 -26.15625 15.988281 -26.359375 15.59375 -26.359375 Z M 15.59375 -26.359375 "/></g></g><g style="fill:#ffffff;fill-opacity:1;"><g transform="translate(120.851503, 84.599603)"><path style="stroke:none" d="M 19.65625 0 L 16 0 C 15.675781 0 15.476562 -0.175781 15.40625 -0.53125 L 14.203125 -5.265625 L 7.109375 -5.265625 L 5.953125 -0.53125 C 5.878906 -0.175781 5.675781 0 5.34375 0 L 1.65625 0 C 1.207031 0 1.046875 -0.210938 1.171875 -0.640625 L 7.421875 -25.828125 C 7.492188 -26.179688 7.707031 -26.359375 8.0625 -26.359375 L 13.296875 -26.359375 C 13.640625 -26.359375 13.851562 -26.179688 13.9375 -25.828125 L 20.1875 -0.640625 C 20.3125 -0.210938 20.132812 0 19.65625 0 Z M 13.03125 -9.640625 L 10.65625 -19.875 L 8.28125 -9.640625 Z M 13.03125 -9.640625 "/></g></g><g style="fill:#ffffff;fill-opacity:1;"><g transform="translate(147.175808, 84.599603)"><path style="stroke:none" d="M 16.953125 -20.9375 L 16.953125 -13.375 C 16.953125 -11.1875 16.25 -9.65625 14.84375 -8.78125 L 16.796875 -0.671875 C 16.921875 -0.222656 16.742188 0 16.265625 0 L 12.578125 0 C 12.222656 0 12.007812 -0.175781 11.9375 -0.53125 L 10.125 -7.953125 L 6.78125 -7.953125 L 6.78125 -0.609375 C 6.78125 -0.203125 6.578125 0 6.171875 0 L 2.484375 0 C 2.085938 0 1.890625 -0.203125 1.890625 -0.609375 L 1.890625 -25.75 C 1.890625 -26.15625 2.085938 -26.359375 2.484375 -26.359375 L 11.515625 -26.359375 C 13.304688 -26.359375 14.660156 -25.898438 15.578125 -24.984375 C 16.492188 -24.066406 16.953125 -22.71875 16.953125 -20.9375 Z M 6.78125 -12.796875 L 10.546875 -12.796875 C 11.546875 -12.796875 12.046875 -13.300781 12.046875 -14.3125 L 12.046875 -20 C 12.046875 -21 11.546875 -21.5 10.546875 -21.5 L 6.78125 -21.5 Z M 6.78125 -12.796875 "/></g></g><g style="fill:#ffffff;fill-opacity:1;"><g transform="translate(171.353552, 84.599603)"><path style="stroke:none" d="M 15.59375 -26.359375 L 1.734375 -26.359375 C 1.328125 -26.359375 1.125 -26.15625 1.125 -25.75 L 1.125 -21.984375 C 1.125 -21.585938 1.328125 -21.390625 1.734375 -21.390625 L 6.09375 -21.390625 L 6.09375 -0.609375 C 6.09375 -0.203125 6.296875 0 6.703125 0 L 10.625 0 C 11.019531 0 11.21875 -0.203125 11.21875 -0.609375 L 11.21875 -21.390625 L 15.59375 -21.390625 C 15.988281 -21.390625 16.1875 -21.585938 16.1875 -21.984375 L 16.1875 -25.75 C 16.1875 -26.15625 15.988281 -26.359375 15.59375 -26.359375 Z M 15.59375 -26.359375 "/></g></g><g clip-rule="nonzero" clip-path="url(#a3bd78704e)"><path style=" stroke:none;fill-rule:nonzero;fill:#ffffff;fill-opacity:1;" d="M 63.019531 72.203125 L 41.191406 86.140625 C 40.789062 86.398438 40.351562 86.53125 39.878906 86.550781 C 39.402344 86.566406 38.957031 86.460938 38.542969 86.230469 C 38.125 86.003906 37.796875 85.683594 37.554688 85.277344 C 37.3125 84.867188 37.191406 84.425781 37.191406 83.949219 L 37.191406 56.074219 C 37.191406 55.597656 37.3125 55.15625 37.554688 54.746094 C 37.796875 54.339844 38.125 54.019531 38.542969 53.792969 C 38.957031 53.5625 39.402344 53.457031 39.878906 53.476562 C 40.351562 53.492188 40.789062 53.628906 41.191406 53.882812 L 63.019531 67.824219 C 63.203125 67.941406 63.371094 68.078125 63.519531 68.238281 C 63.667969 68.398438 63.796875 68.574219 63.898438 68.765625 C 64.003906 68.957031 64.085938 69.15625 64.136719 69.367188 C 64.191406 69.578125 64.21875 69.792969 64.21875 70.011719 C 64.21875 70.230469 64.191406 70.445312 64.136719 70.65625 C 64.085938 70.867188 64.003906 71.070312 63.898438 71.261719 C 63.796875 71.453125 63.667969 71.625 63.519531 71.785156 C 63.371094 71.945312 63.203125 72.082031 63.019531 72.203125 Z M 63.019531 72.203125 "/></g></g></svg>