<svg xmlns="http://www.w3.org/2000/svg" xmlns:xlink="http://www.w3.org/1999/xlink" width="500" zoomAndPan="magnify" viewBox="0 0 375 374.999991" height="500" preserveAspectRatio="xMidYMid meet" version="1.2"><defs><clipPath id="11b878f25c"><path d="M 30.054688 148.816406 L 330.777344 148.816406 L 330.777344 215.816406 L 30.054688 215.816406 Z M 30.054688 148.816406 "/></clipPath><clipPath id="0334f7b3a0"><path d="M 33.804688 148.816406 L 326.917969 148.816406 C 327.910156 148.816406 328.863281 149.210938 329.566406 149.914062 C 330.269531 150.617188 330.667969 151.570312 330.667969 152.566406 L 330.667969 212.066406 C 330.667969 213.0625 330.269531 214.015625 329.566406 214.71875 C 328.863281 215.421875 327.910156 215.816406 326.917969 215.816406 L 33.804688 215.816406 C 32.808594 215.816406 31.855469 215.421875 31.152344 214.71875 C 30.449219 214.015625 30.054688 213.0625 30.054688 212.066406 L 30.054688 152.566406 C 30.054688 151.570312 30.449219 150.617188 31.152344 149.914062 C 31.855469 149.210938 32.808594 148.816406 33.804688 148.816406 Z M 33.804688 148.816406 "/></clipPath><clipPath id="f9d6b717c7"><path d="M 30.066406 148.816406 L 330.804688 148.816406 L 330.804688 215.566406 L 30.066406 215.566406 Z M 30.066406 148.816406 "/></clipPath><clipPath id="15da0a6b1f"><path d="M 33.816406 148.816406 L 327.042969 148.816406 C 328.035156 148.816406 328.992188 149.210938 329.695312 149.910156 C 330.398438 150.613281 330.792969 151.5625 330.792969 152.550781 L 330.792969 211.832031 C 330.792969 212.820312 330.398438 213.773438 329.695312 214.472656 C 328.992188 215.171875 328.035156 215.566406 327.042969 215.566406 L 33.816406 215.566406 C 32.824219 215.566406 31.867188 215.171875 31.164062 214.472656 C 30.460938 213.773438 30.066406 212.820312 30.066406 211.832031 L 30.066406 152.550781 C 30.066406 151.5625 30.460938 150.613281 31.164062 149.910156 C 31.867188 149.210938 32.824219 148.816406 33.816406 148.816406 Z M 33.816406 148.816406 "/></clipPath><clipPath id="380032a0d2"><path d="M 51.5625 164.125 L 91.3125 164.125 L 91.3125 210.625 L 51.5625 210.625 Z M 51.5625 164.125 "/></clipPath></defs><g id="8950301158"><g clip-rule="nonzero" clip-path="url(#11b878f25c)"><g clip-rule="nonzero" clip-path="url(#0334f7b3a0)"><path style=" stroke:none;fill-rule:nonzero;fill:#ffffff;fill-opacity:1;" d="M 30.054688 148.816406 L 330.777344 148.816406 L 330.777344 215.816406 L 30.054688 215.816406 Z M 30.054688 148.816406 "/></g></g><g clip-rule="nonzero" clip-path="url(#f9d6b717c7)"><g clip-rule="nonzero" clip-path="url(#15da0a6b1f)"><path style="fill:none;stroke-width:2;stroke-linecap:butt;stroke-linejoin:miter;stroke:#000000;stroke-opacity:1;stroke-miterlimit:4;" d="M 4.997941 -0.000456045 L 395.783892 -0.000456045 C 397.10619 -0.000456045 398.381635 0.527525 399.318696 1.463254 C 400.255758 2.404211 400.781554 3.674502 400.781554 4.997068 L 400.781554 84.330155 C 400.781554 85.652722 400.255758 86.928241 399.318696 87.86397 C 398.381635 88.799699 397.10619 89.32768 395.783892 89.32768 L 4.997941 89.32768 C 3.675643 89.32768 2.400198 88.799699 1.463136 87.86397 C 0.526075 86.928241 0.000278969 85.652722 0.000278969 84.330155 L 0.000278969 4.997068 C 0.000278969 3.674502 0.526075 2.404211 1.463136 1.463254 C 2.400198 0.527525 3.675643 -0.000456045 4.997941 -0.000456045 Z M 4.997941 -0.000456045 " transform="matrix(0.750351,0,0,0.747245,30.066197,148.816747)"/></g></g><path style=" stroke:none;fill-rule:nonzero;fill:#1e04ff;fill-opacity:1;" d="M 39.207031 154.480469 L 335.785156 154.480469 C 336.738281 154.480469 337.65625 154.859375 338.332031 155.535156 C 339.007812 156.210938 339.386719 157.128906 339.386719 158.082031 L 339.386719 216.367188 C 339.386719 217.320312 339.007812 218.238281 338.332031 218.914062 C 337.65625 219.589844 336.738281 219.96875 335.785156 219.96875 L 39.207031 219.96875 C 38.25 219.96875 37.335938 219.589844 36.660156 218.914062 C 35.984375 218.238281 35.605469 217.320312 35.605469 216.367188 L 35.605469 158.082031 C 35.605469 157.128906 35.984375 156.210938 36.660156 155.535156 C 37.335938 154.859375 38.25 154.480469 39.207031 154.480469 Z M 39.207031 154.480469 "/><g style="fill:#ffffff;fill-opacity:1;"><g transform="translate(47.702579, 205.684591)"><path style="stroke:none" d=""/></g></g><g style="fill:#ffffff;fill-opacity:1;"><g transform="translate(66.300335, 205.684591)"><path style="stroke:none" d=""/></g></g><g style="fill:#ffffff;fill-opacity:1;"><g transform="translate(84.89809, 205.684591)"><path style="stroke:none" d=""/></g></g><g style="fill:#ffffff;fill-opacity:1;"><g transform="translate(103.496325, 205.684591)"><path style="stroke:none" d="M 2.1875 -37.96875 L 19.640625 -37.96875 C 20.148438 -37.96875 20.40625 -37.710938 20.40625 -37.203125 L 20.40625 -32.453125 C 20.40625 -31.953125 20.148438 -31.703125 19.640625 -31.703125 L 14.140625 -31.703125 L 14.140625 -0.765625 C 14.140625 -0.253906 13.882812 0 13.375 0 L 8.453125 0 C 7.941406 0 7.6875 -0.253906 7.6875 -0.765625 L 7.6875 -31.703125 L 2.1875 -31.703125 C 1.675781 -31.703125 1.421875 -31.953125 1.421875 -32.453125 L 1.421875 -37.203125 C 1.421875 -37.710938 1.675781 -37.96875 2.1875 -37.96875 Z M 2.1875 -37.96875 "/></g></g><g style="fill:#ffffff;fill-opacity:1;"><g transform="translate(132.056869, 205.684591)"><path style="stroke:none" d="M 16.046875 -37.96875 L 20.40625 -37.96875 C 20.65625 -37.96875 20.875 -37.867188 21.0625 -37.671875 C 21.257812 -37.484375 21.359375 -37.265625 21.359375 -37.015625 L 21.359375 -6.828125 C 21.359375 -4.617188 20.78125 -2.925781 19.625 -1.75 C 18.46875 -0.582031 16.765625 0 14.515625 0 L 9.203125 0 C 6.992188 0 5.300781 -0.582031 4.125 -1.75 C 2.957031 -2.925781 2.375 -4.617188 2.375 -6.828125 L 2.375 -37.015625 C 2.375 -37.265625 2.46875 -37.484375 2.65625 -37.671875 C 2.84375 -37.867188 3.066406 -37.96875 3.328125 -37.96875 L 7.875 -37.96875 C 8.125 -37.96875 8.34375 -37.867188 8.53125 -37.671875 C 8.726562 -37.484375 8.828125 -37.265625 8.828125 -37.015625 L 8.828125 -8.15625 C 8.828125 -6.894531 9.457031 -6.265625 10.71875 -6.265625 L 13.1875 -6.265625 C 14.457031 -6.265625 15.09375 -6.894531 15.09375 -8.15625 L 15.09375 -37.015625 C 15.09375 -37.265625 15.1875 -37.484375 15.375 -37.671875 C 15.5625 -37.867188 15.785156 -37.96875 16.046875 -37.96875 Z M 16.046875 -37.96875 "/></g></g><g style="fill:#ffffff;fill-opacity:1;"><g transform="translate(162.515084, 205.684591)"><path style="stroke:none" d="M 2.1875 -37.96875 L 19.640625 -37.96875 C 20.148438 -37.96875 20.40625 -37.710938 20.40625 -37.203125 L 20.40625 -32.453125 C 20.40625 -31.953125 20.148438 -31.703125 19.640625 -31.703125 L 14.140625 -31.703125 L 14.140625 -0.765625 C 14.140625 -0.253906 13.882812 0 13.375 0 L 8.453125 0 C 7.941406 0 7.6875 -0.253906 7.6875 -0.765625 L 7.6875 -31.703125 L 2.1875 -31.703125 C 1.675781 -31.703125 1.421875 -31.953125 1.421875 -32.453125 L 1.421875 -37.203125 C 1.421875 -37.710938 1.675781 -37.96875 2.1875 -37.96875 Z M 2.1875 -37.96875 "/></g></g><g style="fill:#ffffff;fill-opacity:1;"><g transform="translate(190.126721, 205.684591)"><path style="stroke:none" d="M 2.375 -6.828125 L 2.375 -31.125 C 2.375 -33.375 2.957031 -35.078125 4.125 -36.234375 C 5.300781 -37.390625 6.992188 -37.96875 9.203125 -37.96875 L 14.515625 -37.96875 C 16.765625 -37.96875 18.46875 -37.390625 19.625 -36.234375 C 20.78125 -35.078125 21.359375 -33.375 21.359375 -31.125 L 21.359375 -6.828125 C 21.359375 -4.617188 20.78125 -2.925781 19.625 -1.75 C 18.46875 -0.582031 16.765625 0 14.515625 0 L 9.203125 0 C 6.992188 0 5.300781 -0.582031 4.125 -1.75 C 2.957031 -2.925781 2.375 -4.617188 2.375 -6.828125 Z M 10.578125 -6.125 L 13.328125 -6.125 C 14.597656 -6.125 15.234375 -6.753906 15.234375 -8.015625 L 15.234375 -29.9375 C 15.234375 -31.207031 14.597656 -31.84375 13.328125 -31.84375 L 10.578125 -31.84375 C 9.316406 -31.84375 8.6875 -31.207031 8.6875 -29.9375 L 8.6875 -8.015625 C 8.6875 -6.753906 9.316406 -6.125 10.578125 -6.125 Z M 10.578125 -6.125 "/></g></g><g style="fill:#ffffff;fill-opacity:1;"><g transform="translate(220.584936, 205.684591)"><path style="stroke:none" d="M 21.875 -31.125 L 21.875 -19.546875 C 21.875 -16.390625 20.71875 -14.300781 18.40625 -13.28125 L 21.6875 -0.859375 C 21.84375 -0.285156 21.617188 0 21.015625 0 L 16.09375 0 C 15.644531 0 15.375 -0.222656 15.28125 -0.671875 L 12.09375 -12.71875 L 8.828125 -12.71875 L 8.828125 -0.765625 C 8.828125 -0.253906 8.570312 0 8.0625 0 L 3.125 0 C 2.625 0 2.375 -0.253906 2.375 -0.765625 L 2.375 -37.203125 C 2.375 -37.710938 2.625 -37.96875 3.125 -37.96875 L 15.046875 -37.96875 C 17.285156 -37.96875 18.984375 -37.390625 20.140625 -36.234375 C 21.296875 -35.078125 21.875 -33.375 21.875 -31.125 Z M 8.828125 -18.984375 L 13.53125 -18.984375 C 14.789062 -18.984375 15.421875 -19.613281 15.421875 -20.875 L 15.421875 -29.796875 C 15.421875 -31.066406 14.789062 -31.703125 13.53125 -31.703125 L 8.828125 -31.703125 Z M 8.828125 -18.984375 "/></g></g><g style="fill:#ffffff;fill-opacity:1;"><g transform="translate(251.565007, 205.684591)"><path style="stroke:none" d="M 3.125 -37.96875 L 8.0625 -37.96875 C 8.570312 -37.96875 8.828125 -37.710938 8.828125 -37.203125 L 8.828125 -0.765625 C 8.828125 -0.253906 8.570312 0 8.0625 0 L 3.125 0 C 2.625 0 2.375 -0.253906 2.375 -0.765625 L 2.375 -37.203125 C 2.375 -37.710938 2.625 -37.96875 3.125 -37.96875 Z M 3.125 -37.96875 "/></g></g><g style="fill:#ffffff;fill-opacity:1;"><g transform="translate(269.498579, 205.684591)"><path style="stroke:none" d="M 25.25 0 L 20.21875 0 C 19.800781 0 19.546875 -0.222656 19.453125 -0.671875 L 18.125 -7.59375 L 9.6875 -7.59375 L 8.40625 -0.671875 C 8.300781 -0.222656 8.046875 0 7.640625 0 L 2.5625 0 C 1.988281 0 1.785156 -0.269531 1.953125 -0.8125 L 9.828125 -37.296875 C 9.921875 -37.742188 10.1875 -37.96875 10.625 -37.96875 L 17.21875 -37.96875 C 17.664062 -37.96875 17.9375 -37.742188 18.03125 -37.296875 L 25.90625 -0.8125 C 26 -0.269531 25.78125 0 25.25 0 Z M 16.9375 -13.09375 L 13.90625 -29.65625 L 10.859375 -13.09375 Z M 16.9375 -13.09375 "/></g></g><g style="fill:#ffffff;fill-opacity:1;"><g transform="translate(304.036785, 205.684591)"><path style="stroke:none" d="M 8.828125 -6.265625 L 8.828125 -37.203125 C 8.828125 -37.710938 8.570312 -37.96875 8.0625 -37.96875 L 3.125 -37.96875 C 2.625 -37.96875 2.375 -37.710938 2.375 -37.203125 L 2.375 -0.765625 C 2.375 -0.253906 2.625 0 3.125 0 L 20.125 0 C 20.625 0 20.875 -0.253906 20.875 -0.765625 L 20.875 -5.5 C 20.875 -6.007812 20.625 -6.265625 20.125 -6.265625 Z M 8.828125 -6.265625 "/></g></g><path style=" stroke:none;fill-rule:evenodd;fill:#ffffff;fill-opacity:1;" d="M 72.109375 205.332031 C 74.144531 203.554688 76.730469 202.574219 79.445312 202.574219 L 86.355469 202.574219 C 86.640625 202.574219 86.867188 202.339844 86.867188 202.058594 L 86.867188 187.347656 L 89.328125 187.347656 C 89.75 187.347656 90.09375 187.691406 90.09375 188.113281 L 90.09375 205.253906 C 90.09375 205.675781 89.75 206.023438 89.328125 206.023438 L 79.445312 206.023438 C 76.984375 206.023438 74.6875 207.203125 73.226562 209.179688 L 73.167969 209.253906 L 69.714844 209.253906 L 69.65625 209.179688 C 68.195312 207.203125 65.890625 206.023438 63.429688 206.023438 L 53.554688 206.023438 C 53.132812 206.023438 52.789062 205.675781 52.789062 205.253906 L 52.789062 188.113281 C 52.789062 187.691406 53.132812 187.347656 53.554688 187.347656 L 56.007812 187.347656 L 56.007812 202.058594 C 56.007812 202.34375 56.238281 202.574219 56.523438 202.574219 L 63.429688 202.574219 C 66.289062 202.574219 69.003906 203.664062 71.085938 205.621094 C 71.285156 205.808594 71.589844 205.804688 71.792969 205.617188 L 72.109375 205.324219 Z M 67.09375 186.898438 L 67.09375 198.746094 L 77.355469 192.820312 Z M 67.09375 186.898438 "/><g clip-rule="nonzero" clip-path="url(#380032a0d2)"><path style=" stroke:none;fill-rule:evenodd;fill:#ffffff;fill-opacity:1;" d="M 71.371094 178.671875 C 71.09375 178.671875 70.867188 178.445312 70.867188 178.167969 C 70.867188 177.886719 71.09375 177.660156 71.371094 177.660156 C 72.039062 177.660156 72.042969 178.671875 71.371094 178.671875 Z M 71.371094 176.257812 C 70.316406 176.257812 69.464844 177.113281 69.464844 178.167969 C 69.464844 179.222656 70.316406 180.078125 71.371094 180.078125 C 72.429688 180.078125 73.289062 179.222656 73.289062 178.167969 C 73.289062 177.113281 72.429688 176.257812 71.371094 176.257812 Z M 67.878906 165.71875 C 68.773438 164.703125 70.070312 164.125 71.417969 164.125 C 74.027344 164.125 76.152344 166.246094 76.152344 168.855469 C 76.152344 170.875 74.871094 172.671875 72.960938 173.332031 C 72.441406 173.511719 72.121094 173.964844 72.121094 174.515625 C 72.121094 174.902344 71.808594 175.21875 71.417969 175.21875 C 71.03125 175.21875 70.714844 174.902344 70.714844 174.515625 C 70.714844 173.363281 71.417969 172.378906 72.507812 172.003906 C 73.84375 171.539062 74.75 170.277344 74.75 168.855469 C 74.75 167.023438 73.25 165.527344 71.417969 165.527344 C 70.464844 165.527344 69.558594 165.9375 68.925781 166.652344 C 68.671875 166.941406 68.226562 166.964844 67.9375 166.710938 C 67.648438 166.453125 67.617188 166.007812 67.878906 165.71875 Z M 89.90625 205.253906 C 89.90625 205.574219 89.648438 205.835938 89.328125 205.835938 L 79.445312 205.835938 C 76.933594 205.835938 74.578125 207.035156 73.074219 209.066406 L 69.808594 209.066406 C 68.304688 207.035156 65.945312 205.835938 63.429688 205.835938 L 53.554688 205.835938 C 53.234375 205.835938 52.976562 205.574219 52.976562 205.253906 L 52.976562 188.113281 C 52.976562 187.792969 53.234375 187.535156 53.554688 187.535156 L 55.820312 187.535156 L 55.820312 202.058594 C 55.820312 202.445312 56.132812 202.761719 56.523438 202.761719 L 63.429688 202.761719 C 66.226562 202.761719 68.902344 203.824219 70.957031 205.757812 C 71.226562 206.007812 71.640625 206.011719 71.921875 205.753906 L 71.921875 205.757812 C 73.972656 203.824219 76.648438 202.761719 79.445312 202.761719 L 86.355469 202.761719 C 86.742188 202.761719 87.054688 202.445312 87.054688 202.058594 L 87.054688 187.535156 L 89.328125 187.535156 C 89.648438 187.535156 89.90625 187.792969 89.90625 188.113281 Z M 57.222656 180.777344 L 57.222656 201.355469 L 63.429688 201.355469 C 66.074219 201.355469 68.617188 202.195312 70.738281 203.75 L 70.738281 198.046875 L 66.933594 200.246094 C 66.476562 200.511719 65.878906 200.183594 65.878906 199.636719 L 65.878906 186.003906 C 65.878906 185.464844 66.464844 185.125 66.933594 185.394531 L 70.738281 187.59375 L 70.738281 183.570312 C 68.714844 181.765625 66.128906 180.777344 63.429688 180.777344 Z M 76.980469 192.820312 L 67.28125 187.222656 L 67.28125 198.421875 Z M 85.652344 180.777344 L 79.445312 180.777344 C 76.75 180.777344 74.164062 181.765625 72.140625 183.570312 L 72.140625 188.402344 L 78.734375 192.214844 C 79.210938 192.484375 79.207031 193.160156 78.734375 193.429688 L 72.140625 197.238281 L 72.140625 203.75 C 74.257812 202.195312 76.800781 201.355469 79.445312 201.355469 L 85.652344 201.355469 Z M 89.328125 186.128906 C 90.421875 186.128906 91.308594 187.019531 91.308594 188.113281 L 91.308594 205.253906 C 91.308594 206.347656 90.421875 207.238281 89.328125 207.238281 L 79.445312 207.238281 C 77.273438 207.238281 75.246094 208.332031 74.019531 210.160156 C 73.890625 210.355469 73.671875 210.472656 73.433594 210.472656 L 69.441406 210.472656 C 69.203125 210.472656 68.992188 210.355469 68.863281 210.160156 C 67.632812 208.332031 65.601562 207.238281 63.429688 207.238281 L 53.554688 207.238281 C 52.460938 207.238281 51.566406 206.347656 51.566406 205.253906 L 51.566406 188.113281 C 51.566406 187.019531 52.460938 186.128906 53.554688 186.128906 L 55.820312 186.128906 L 55.820312 180.074219 C 55.820312 179.6875 56.132812 179.371094 56.523438 179.371094 L 63.429688 179.371094 C 66.375 179.371094 69.191406 180.414062 71.441406 182.320312 C 73.683594 180.414062 76.503906 179.371094 79.445312 179.371094 L 86.355469 179.371094 C 86.742188 179.371094 87.054688 179.6875 87.054688 180.074219 L 87.054688 186.128906 Z M 89.328125 186.128906 "/></g></g></svg>