<svg xmlns="http://www.w3.org/2000/svg" xmlns:xlink="http://www.w3.org/1999/xlink" width="500" zoomAndPan="magnify" viewBox="0 0 375 374.999991" height="500" preserveAspectRatio="xMidYMid meet" version="1.2"><defs><clipPath id="d7578a53bc"><path d="M 49.511719 139.105469 L 309.65625 139.105469 L 309.65625 221.527344 L 49.511719 221.527344 Z M 49.511719 139.105469 "/></clipPath><clipPath id="c104edca2d"><path d="M 57.761719 139.105469 L 301.339844 139.105469 C 303.527344 139.105469 305.625 139.972656 307.171875 141.519531 C 308.71875 143.066406 309.589844 145.167969 309.589844 147.355469 L 309.589844 213.277344 C 309.589844 215.464844 308.71875 217.5625 307.171875 219.109375 C 305.625 220.65625 303.527344 221.527344 301.339844 221.527344 L 57.761719 221.527344 C 55.574219 221.527344 53.476562 220.65625 51.929688 219.109375 C 50.382812 217.5625 49.511719 215.464844 49.511719 213.277344 L 49.511719 147.355469 C 49.511719 145.167969 50.382812 143.066406 51.929688 141.519531 C 53.476562 139.972656 55.574219 139.105469 57.761719 139.105469 Z M 57.761719 139.105469 "/></clipPath><clipPath id="6d588b63d1"><path d="M 49.519531 139.105469 L 309.660156 139.105469 L 309.660156 221.605469 L 49.519531 221.605469 Z M 49.519531 139.105469 "/></clipPath><clipPath id="72c1bbde35"><path d="M 57.765625 139.105469 L 301.332031 139.105469 C 303.519531 139.105469 305.617188 139.972656 307.164062 141.519531 C 308.710938 143.066406 309.578125 145.164062 309.578125 147.355469 L 309.578125 213.273438 C 309.578125 215.460938 308.710938 217.558594 307.164062 219.105469 C 305.617188 220.652344 303.519531 221.523438 301.332031 221.523438 L 57.765625 221.523438 C 55.578125 221.523438 53.480469 220.652344 51.933594 219.105469 C 50.386719 217.558594 49.519531 215.460938 49.519531 213.273438 L 49.519531 147.355469 C 49.519531 145.164062 50.386719 143.066406 51.933594 141.519531 C 53.480469 139.972656 55.578125 139.105469 57.765625 139.105469 Z M 57.765625 139.105469 "/></clipPath><clipPath id="b47079038c"><path d="M 76.289062 162.050781 L 117.539062 162.050781 L 117.539062 213 L 76.289062 213 Z M 76.289062 162.050781 "/></clipPath></defs><g id="2d827aaa66"><g clip-rule="nonzero" clip-path="url(#d7578a53bc)"><g clip-rule="nonzero" clip-path="url(#c104edca2d)"><path style=" stroke:none;fill-rule:nonzero;fill:#ffffff;fill-opacity:1;" d="M 49.511719 139.105469 L 309.65625 139.105469 L 309.65625 221.527344 L 49.511719 221.527344 Z M 49.511719 139.105469 "/></g></g><g clip-rule="nonzero" clip-path="url(#6d588b63d1)"><g clip-rule="nonzero" clip-path="url(#72c1bbde35)"><path style="fill:none;stroke-width:2;stroke-linecap:butt;stroke-linejoin:miter;stroke:#000000;stroke-opacity:1;stroke-miterlimit:4;" d="M 10.996852 0.00170491 L 335.752103 0.00170491 C 338.66877 0.00170491 341.465645 1.157955 343.528145 3.220455 C 345.590646 5.282956 346.746896 8.079831 346.746896 11.001706 L 346.746896 98.892343 C 346.746896 101.80901 345.590646 104.605885 343.528145 106.668385 C 341.465645 108.730886 338.66877 109.892344 335.752103 109.892344 L 10.996852 109.892344 C 8.080185 109.892344 5.28331 108.730886 3.22081 106.668385 C 1.158309 104.605885 0.0020592 101.80901 0.0020592 98.892343 L 0.0020592 11.001706 C 0.0020592 8.079831 1.158309 5.282956 3.22081 3.220455 C 5.28331 1.157955 8.080185 0.00170491 10.996852 0.00170491 Z M 10.996852 0.00170491 " transform="matrix(0.75,0,0,0.75,49.517987,139.10419)"/></g></g><path style=" stroke:none;fill-rule:nonzero;fill:#1e04ff;fill-opacity:1;" d="M 59.25 147.824219 L 315.734375 147.824219 C 316.882812 147.824219 317.980469 148.28125 318.792969 149.09375 C 319.605469 149.902344 320.0625 151.003906 320.0625 152.152344 L 320.0625 222.183594 C 320.0625 223.332031 319.605469 224.433594 318.792969 225.246094 C 317.980469 226.058594 316.882812 226.511719 315.734375 226.511719 L 59.25 226.511719 C 58.101562 226.511719 57 226.058594 56.191406 225.246094 C 55.378906 224.433594 54.921875 223.332031 54.921875 222.183594 L 54.921875 152.152344 C 54.921875 151.003906 55.378906 149.902344 56.191406 149.09375 C 57 148.28125 58.101562 147.824219 59.25 147.824219 Z M 59.25 147.824219 "/><g style="fill:#ffffff;fill-opacity:1;"><g transform="translate(69.459574, 209.350211)"><path style="stroke:none" d=""/></g></g><g style="fill:#ffffff;fill-opacity:1;"><g transform="translate(91.806199, 209.350211)"><path style="stroke:none" d=""/></g></g><g style="fill:#ffffff;fill-opacity:1;"><g transform="translate(114.152824, 209.350211)"><path style="stroke:none" d=""/></g></g><g style="fill:#ffffff;fill-opacity:1;"><g transform="translate(136.500025, 209.350211)"><path style="stroke:none" d="M 11.0625 -45.609375 L 17.453125 -45.609375 C 20.148438 -45.609375 22.191406 -44.914062 23.578125 -43.53125 C 24.960938 -42.144531 25.65625 -40.101562 25.65625 -37.40625 L 25.65625 -31.359375 C 25.65625 -30.753906 25.351562 -30.453125 24.75 -30.453125 L 18.8125 -30.453125 C 18.207031 -30.453125 17.90625 -30.753906 17.90625 -31.359375 L 17.90625 -35.8125 C 17.90625 -37.332031 17.144531 -38.09375 15.625 -38.09375 L 12.890625 -38.09375 C 11.367188 -38.09375 10.609375 -37.332031 10.609375 -35.8125 L 10.609375 -27.9375 L 24.171875 -23.484375 C 25.160156 -23.066406 25.65625 -22.363281 25.65625 -21.375 L 25.65625 -8.203125 C 25.65625 -5.546875 24.960938 -3.515625 23.578125 -2.109375 C 22.191406 -0.703125 20.148438 0 17.453125 0 L 11.0625 0 C 8.394531 0 6.359375 -0.703125 4.953125 -2.109375 C 3.546875 -3.515625 2.84375 -5.546875 2.84375 -8.203125 L 2.84375 -14.203125 C 2.84375 -14.804688 3.148438 -15.109375 3.765625 -15.109375 L 9.6875 -15.109375 C 10.300781 -15.109375 10.609375 -14.804688 10.609375 -14.203125 L 10.609375 -9.8125 C 10.609375 -8.289062 11.367188 -7.53125 12.890625 -7.53125 L 15.625 -7.53125 C 17.144531 -7.53125 17.90625 -8.289062 17.90625 -9.8125 L 17.90625 -17.390625 L 4.390625 -21.84375 C 3.359375 -22.175781 2.84375 -22.878906 2.84375 -23.953125 L 2.84375 -37.40625 C 2.84375 -40.101562 3.546875 -42.144531 4.953125 -43.53125 C 6.359375 -44.914062 8.394531 -45.609375 11.0625 -45.609375 Z M 11.0625 -45.609375 "/></g></g><g style="fill:#ffffff;fill-opacity:1;"><g transform="translate(173.097899, 209.350211)"><path style="stroke:none" d="M 23.609375 -39.90625 L 2.625 -39.90625 C 2.007812 -39.90625 1.703125 -39.601562 1.703125 -39 L 1.703125 -33.296875 C 1.703125 -32.691406 2.007812 -32.390625 2.625 -32.390625 L 9.234375 -32.390625 L 9.234375 -0.90625 C 9.234375 -0.300781 9.539062 0 10.15625 0 L 16.078125 0 C 16.679688 0 16.984375 -0.300781 16.984375 -0.90625 L 16.984375 -32.390625 L 23.609375 -32.390625 C 24.210938 -32.390625 24.515625 -32.691406 24.515625 -33.296875 L 24.515625 -39 C 24.515625 -39.601562 24.210938 -39.90625 23.609375 -39.90625 Z M 23.609375 -39.90625 "/></g></g><g style="fill:#ffffff;fill-opacity:1;"><g transform="translate(202.854839, 209.350211)"><path style="stroke:none" d="M 29.765625 0 L 24.234375 0 C 23.734375 0 23.425781 -0.265625 23.3125 -0.796875 L 21.5 -7.984375 L 10.78125 -7.984375 L 9.015625 -0.796875 C 8.898438 -0.265625 8.59375 0 8.09375 0 L 2.515625 0 C 1.828125 0 1.578125 -0.320312 1.765625 -0.96875 L 11.234375 -39.109375 C 11.347656 -39.640625 11.671875 -39.90625 12.203125 -39.90625 L 20.125 -39.90625 C 20.65625 -39.90625 20.976562 -39.640625 21.09375 -39.109375 L 30.5625 -0.96875 C 30.75 -0.320312 30.484375 0 29.765625 0 Z M 19.734375 -14.59375 L 16.140625 -30.109375 L 12.546875 -14.59375 Z M 19.734375 -14.59375 "/></g></g><g style="fill:#ffffff;fill-opacity:1;"><g transform="translate(242.701965, 209.350211)"><path style="stroke:none" d="M 25.65625 -31.703125 L 25.65625 -20.234375 C 25.65625 -16.929688 24.59375 -14.613281 22.46875 -13.28125 L 25.421875 -1.03125 C 25.617188 -0.34375 25.351562 0 24.625 0 L 19.046875 0 C 18.515625 0 18.191406 -0.265625 18.078125 -0.796875 L 15.34375 -12.03125 L 10.265625 -12.03125 L 10.265625 -0.90625 C 10.265625 -0.300781 9.957031 0 9.34375 0 L 3.765625 0 C 3.148438 0 2.84375 -0.300781 2.84375 -0.90625 L 2.84375 -39 C 2.84375 -39.601562 3.148438 -39.90625 3.765625 -39.90625 L 17.453125 -39.90625 C 20.148438 -39.90625 22.191406 -39.210938 23.578125 -37.828125 C 24.960938 -36.441406 25.65625 -34.398438 25.65625 -31.703125 Z M 10.265625 -19.390625 L 15.96875 -19.390625 C 17.488281 -19.390625 18.25 -20.148438 18.25 -21.671875 L 18.25 -30.28125 C 18.25 -31.800781 17.488281 -32.5625 15.96875 -32.5625 L 10.265625 -32.5625 Z M 10.265625 -19.390625 "/></g></g><g style="fill:#ffffff;fill-opacity:1;"><g transform="translate(279.299839, 209.350211)"><path style="stroke:none" d="M 23.609375 -39.90625 L 2.625 -39.90625 C 2.007812 -39.90625 1.703125 -39.601562 1.703125 -39 L 1.703125 -33.296875 C 1.703125 -32.691406 2.007812 -32.390625 2.625 -32.390625 L 9.234375 -32.390625 L 9.234375 -0.90625 C 9.234375 -0.300781 9.539062 0 10.15625 0 L 16.078125 0 C 16.679688 0 16.984375 -0.300781 16.984375 -0.90625 L 16.984375 -32.390625 L 23.609375 -32.390625 C 24.210938 -32.390625 24.515625 -32.691406 24.515625 -33.296875 L 24.515625 -39 C 24.515625 -39.601562 24.210938 -39.90625 23.609375 -39.90625 Z M 23.609375 -39.90625 "/></g></g><g clip-rule="nonzero" clip-path="url(#b47079038c)"><path style=" stroke:none;fill-rule:nonzero;fill:#ffffff;fill-opacity:1;" d="M 115.515625 190.734375 L 82.300781 211.941406 C 81.695312 212.332031 81.027344 212.539062 80.304688 212.5625 C 79.585938 212.585938 78.90625 212.425781 78.273438 212.078125 C 77.636719 211.734375 77.136719 211.25 76.769531 210.625 C 76.398438 210.003906 76.214844 209.332031 76.214844 208.609375 L 76.214844 166.195312 C 76.214844 165.472656 76.398438 164.800781 76.769531 164.179688 C 77.136719 163.558594 77.636719 163.074219 78.273438 162.726562 C 78.90625 162.378906 79.585938 162.21875 80.304688 162.242188 C 81.027344 162.269531 81.695312 162.476562 82.300781 162.867188 L 115.515625 184.074219 C 115.792969 184.25 116.046875 184.460938 116.273438 184.703125 C 116.5 184.945312 116.691406 185.214844 116.851562 185.503906 C 117.011719 185.796875 117.132812 186.101562 117.214844 186.421875 C 117.296875 186.746094 117.335938 187.070312 117.335938 187.402344 C 117.335938 187.734375 117.296875 188.0625 117.214844 188.382812 C 117.132812 188.703125 117.011719 189.011719 116.851562 189.300781 C 116.691406 189.59375 116.5 189.859375 116.273438 190.101562 C 116.046875 190.34375 115.792969 190.554688 115.515625 190.734375 Z M 115.515625 190.734375 "/></g></g></svg>