<svg xmlns="http://www.w3.org/2000/svg" xmlns:xlink="http://www.w3.org/1999/xlink" width="500" zoomAndPan="magnify" viewBox="0 0 375 374.999991" height="500" preserveAspectRatio="xMidYMid meet" version="1.2"><defs><clipPath id="3c1c8f125d"><path d="M 64.480469 155.042969 L 295.359375 155.042969 L 295.359375 220.785156 L 64.480469 220.785156 Z M 64.480469 155.042969 "/></clipPath><clipPath id="5ff538d67f"><path d="M 72.730469 155.042969 L 287.058594 155.042969 C 289.25 155.042969 291.347656 155.910156 292.894531 157.457031 C 294.441406 159.003906 295.3125 161.101562 295.308594 163.292969 L 295.308594 212.535156 C 295.3125 214.722656 294.441406 216.824219 292.894531 218.371094 C 291.347656 219.917969 289.25 220.785156 287.058594 220.785156 L 72.730469 220.785156 C 70.542969 220.785156 68.445312 219.917969 66.898438 218.371094 C 65.351562 216.824219 64.480469 214.722656 64.480469 212.535156 L 64.480469 163.292969 C 64.480469 161.101562 65.351562 159.003906 66.898438 157.457031 C 68.445312 155.910156 70.542969 155.042969 72.730469 155.042969 Z M 72.730469 155.042969 "/></clipPath><clipPath id="b8efe4ed58"><path d="M 64.484375 155.042969 L 295.480469 155.042969 L 295.480469 221 L 64.484375 221 Z M 64.484375 155.042969 "/></clipPath><clipPath id="acb6b6f307"><path d="M 72.734375 155.042969 L 287.054688 155.042969 C 289.242188 155.042969 291.339844 155.910156 292.886719 157.457031 C 294.433594 159.003906 295.304688 161.101562 295.304688 163.289062 L 295.304688 212.535156 C 295.304688 214.722656 294.433594 216.820312 292.886719 218.367188 C 291.339844 219.914062 289.242188 220.785156 287.054688 220.785156 L 72.734375 220.785156 C 70.546875 220.785156 68.445312 219.914062 66.898438 218.367188 C 65.351562 216.820312 64.484375 214.722656 64.484375 212.535156 L 64.484375 163.289062 C 64.484375 161.101562 65.351562 159.003906 66.898438 157.457031 C 68.445312 155.910156 70.546875 155.042969 72.734375 155.042969 Z M 72.734375 155.042969 "/></clipPath><clipPath id="a776820fd4"><path d="M 86.277344 174.75 L 126.777344 174.75 L 126.777344 215.25 L 86.277344 215.25 Z M 86.277344 174.75 "/></clipPath></defs><g id="faa43c9b75"><g clip-rule="nonzero" clip-path="url(#3c1c8f125d)"><g clip-rule="nonzero" clip-path="url(#5ff538d67f)"><path style=" stroke:none;fill-rule:nonzero;fill:#ffffff;fill-opacity:1;" d="M 64.480469 155.042969 L 295.359375 155.042969 L 295.359375 220.785156 L 64.480469 220.785156 Z M 64.480469 155.042969 "/></g></g><g clip-rule="nonzero" clip-path="url(#b8efe4ed58)"><g clip-rule="nonzero" clip-path="url(#acb6b6f307)"><path style="fill:none;stroke-width:2;stroke-linecap:butt;stroke-linejoin:miter;stroke:#000000;stroke-opacity:1;stroke-miterlimit:4;" d="M 11.000866 0.00225351 L 296.761283 0.00225351 C 299.677949 0.00225351 302.474824 1.158504 304.537324 3.221004 C 306.599824 5.283504 307.761283 8.080379 307.761283 10.997045 L 307.761283 76.658504 C 307.761283 79.57517 306.599824 82.372045 304.537324 84.434545 C 302.474824 86.497045 299.677949 87.658504 296.761283 87.658504 L 11.000866 87.658504 C 8.084199 87.658504 5.282116 86.497045 3.219616 84.434545 C 1.157116 82.372045 0.000865513 79.57517 0.000865513 76.658504 L 0.000865513 10.997045 C 0.000865513 8.080379 1.157116 5.283504 3.219616 3.221004 C 5.282116 1.158504 8.084199 0.00225351 11.000866 0.00225351 Z M 11.000866 0.00225351 " transform="matrix(0.75,0,0,0.75,64.483726,155.041279)"/></g></g><path style=" stroke:none;fill-rule:nonzero;fill:#1e04ff;fill-opacity:1;" d="M 73.84375 162.953125 L 301.109375 162.953125 C 302.03125 162.953125 302.914062 163.320312 303.566406 163.972656 C 304.21875 164.625 304.585938 165.507812 304.585938 166.433594 L 304.585938 222.699219 C 304.585938 223.621094 304.21875 224.507812 303.566406 225.160156 C 302.914062 225.8125 302.03125 226.175781 301.109375 226.175781 L 73.84375 226.175781 C 72.921875 226.175781 72.035156 225.8125 71.382812 225.160156 C 70.730469 224.507812 70.367188 223.621094 70.367188 222.699219 L 70.367188 166.433594 C 70.367188 165.507812 70.730469 164.625 71.382812 163.972656 C 72.035156 163.320312 72.921875 162.953125 73.84375 162.953125 Z M 73.84375 162.953125 "/><g style="fill:#ffffff;fill-opacity:1;"><g transform="translate(82.121836, 212.194908)"><path style="stroke:none" d=""/></g></g><g style="fill:#ffffff;fill-opacity:1;"><g transform="translate(100.1905, 212.194908)"><path style="stroke:none" d=""/></g></g><g style="fill:#ffffff;fill-opacity:1;"><g transform="translate(118.259163, 212.194908)"><path style="stroke:none" d=""/></g></g><g style="fill:#ffffff;fill-opacity:1;"><g transform="translate(136.33277, 212.194908)"><path style="stroke:none" d="M 20.78125 -30.234375 L 20.78125 -25.265625 C 20.78125 -24.765625 20.535156 -24.515625 20.046875 -24.515625 L 15.4375 -24.515625 C 14.945312 -24.515625 14.703125 -24.765625 14.703125 -25.265625 L 14.703125 -28.953125 C 14.703125 -30.179688 14.085938 -30.796875 12.859375 -30.796875 L 10.46875 -30.796875 C 9.238281 -30.796875 8.625 -30.179688 8.625 -28.953125 L 8.625 -7.921875 C 8.625 -6.691406 9.238281 -6.078125 10.46875 -6.078125 L 12.859375 -6.078125 C 14.085938 -6.078125 14.703125 -6.691406 14.703125 -7.921875 L 14.703125 -11.609375 C 14.703125 -12.109375 14.945312 -12.359375 15.4375 -12.359375 L 20.046875 -12.359375 C 20.535156 -12.359375 20.78125 -12.109375 20.78125 -11.609375 L 20.78125 -6.640625 C 20.78125 -4.484375 20.210938 -2.835938 19.078125 -1.703125 C 17.941406 -0.566406 16.300781 0 14.15625 0 L 8.984375 0 C 6.835938 0 5.1875 -0.566406 4.03125 -1.703125 C 2.875 -2.835938 2.296875 -4.484375 2.296875 -6.640625 L 2.296875 -30.234375 C 2.296875 -32.421875 2.875 -34.070312 4.03125 -35.1875 C 5.1875 -36.3125 6.835938 -36.875 8.984375 -36.875 L 14.15625 -36.875 C 16.300781 -36.875 17.941406 -36.3125 19.078125 -35.1875 C 20.210938 -34.070312 20.78125 -32.421875 20.78125 -30.234375 Z M 20.78125 -30.234375 "/></g></g><g style="fill:#ffffff;fill-opacity:1;"><g transform="translate(165.969979, 212.194908)"><path style="stroke:none" d="M 20.734375 -25.625 L 20.734375 -16.359375 C 20.734375 -13.691406 19.875 -11.816406 18.15625 -10.734375 L 20.5625 -0.828125 C 20.707031 -0.273438 20.488281 0 19.90625 0 L 15.390625 0 C 14.960938 0 14.703125 -0.210938 14.609375 -0.640625 L 12.40625 -9.71875 L 8.296875 -9.71875 L 8.296875 -0.734375 C 8.296875 -0.242188 8.050781 0 7.5625 0 L 3.046875 0 C 2.546875 0 2.296875 -0.242188 2.296875 -0.734375 L 2.296875 -31.53125 C 2.296875 -32.019531 2.546875 -32.265625 3.046875 -32.265625 L 14.109375 -32.265625 C 16.285156 -32.265625 17.929688 -31.703125 19.046875 -30.578125 C 20.171875 -29.460938 20.734375 -27.8125 20.734375 -25.625 Z M 8.296875 -15.671875 L 12.90625 -15.671875 C 14.132812 -15.671875 14.75 -16.285156 14.75 -17.515625 L 14.75 -24.46875 C 14.75 -25.695312 14.132812 -26.3125 12.90625 -26.3125 L 8.296875 -26.3125 Z M 8.296875 -15.671875 "/></g></g><g style="fill:#ffffff;fill-opacity:1;"><g transform="translate(195.561091, 212.194908)"><path style="stroke:none" d="M 20.703125 -31.53125 L 20.703125 -26.921875 C 20.703125 -26.398438 20.453125 -26.140625 19.953125 -26.140625 L 8.578125 -26.140625 L 8.578125 -19.03125 L 17.234375 -19.03125 C 17.722656 -19.03125 17.96875 -18.769531 17.96875 -18.25 L 17.96875 -13.6875 C 17.96875 -13.164062 17.722656 -12.90625 17.234375 -12.90625 L 8.578125 -12.90625 L 8.578125 -6.078125 L 19.953125 -6.078125 C 20.453125 -6.078125 20.703125 -5.832031 20.703125 -5.34375 L 20.703125 -0.734375 C 20.703125 -0.242188 20.453125 0 19.953125 0 L 3 0 C 2.53125 0 2.296875 -0.242188 2.296875 -0.734375 L 2.296875 -31.53125 C 2.296875 -32.019531 2.53125 -32.265625 3 -32.265625 L 19.953125 -32.265625 C 20.453125 -32.265625 20.703125 -32.019531 20.703125 -31.53125 Z M 20.703125 -31.53125 "/></g></g><g style="fill:#ffffff;fill-opacity:1;"><g transform="translate(225.106118, 212.194908)"><path style="stroke:none" d="M 2.296875 -0.734375 L 2.296875 -31.53125 C 2.296875 -32.019531 2.546875 -32.265625 3.046875 -32.265625 L 14.109375 -32.265625 C 16.285156 -32.265625 17.929688 -31.695312 19.046875 -30.5625 C 20.171875 -29.425781 20.734375 -27.765625 20.734375 -25.578125 L 20.734375 -6.640625 C 20.734375 -4.484375 20.171875 -2.835938 19.046875 -1.703125 C 17.929688 -0.566406 16.285156 0 14.109375 0 L 3.046875 0 C 2.546875 0 2.296875 -0.242188 2.296875 -0.734375 Z M 8.578125 -6.078125 L 12.8125 -6.078125 C 14.039062 -6.078125 14.65625 -6.691406 14.65625 -7.921875 L 14.65625 -24.296875 C 14.65625 -25.554688 14.039062 -26.1875 12.8125 -26.1875 L 8.578125 -26.1875 Z M 8.578125 -6.078125 "/></g></g><g style="fill:#ffffff;fill-opacity:1;"><g transform="translate(254.697231, 212.194908)"><path style="stroke:none" d="M 3.046875 0 L 7.828125 0 C 8.328125 0 8.578125 -0.242188 8.578125 -0.734375 L 8.578125 -31.53125 C 8.578125 -32.019531 8.328125 -32.265625 7.828125 -32.265625 L 3.046875 -32.265625 C 2.546875 -32.265625 2.296875 -32.019531 2.296875 -31.53125 L 2.296875 -0.734375 C 2.296875 -0.242188 2.546875 0 3.046875 0 Z M 3.046875 0 "/></g></g><g style="fill:#ffffff;fill-opacity:1;"><g transform="translate(271.659686, 212.194908)"><path style="stroke:none" d="M 19.078125 -32.265625 L 2.125 -32.265625 C 1.625 -32.265625 1.375 -32.019531 1.375 -31.53125 L 1.375 -26.921875 C 1.375 -26.429688 1.625 -26.1875 2.125 -26.1875 L 7.46875 -26.1875 L 7.46875 -0.734375 C 7.46875 -0.242188 7.710938 0 8.203125 0 L 13 0 C 13.488281 0 13.734375 -0.242188 13.734375 -0.734375 L 13.734375 -26.1875 L 19.078125 -26.1875 C 19.566406 -26.1875 19.8125 -26.429688 19.8125 -26.921875 L 19.8125 -31.53125 C 19.8125 -32.019531 19.566406 -32.265625 19.078125 -32.265625 Z M 19.078125 -32.265625 "/></g></g><path style=" stroke:none;fill-rule:nonzero;fill:#ffffff;fill-opacity:1;" d="M 106.46875 191.46875 C 106.011719 191.46875 105.566406 191.554688 105.140625 191.734375 C 104.714844 191.910156 104.339844 192.160156 104.015625 192.484375 C 103.6875 192.8125 103.4375 193.1875 103.261719 193.613281 C 103.085938 194.039062 102.996094 194.480469 102.996094 194.941406 C 102.996094 195.402344 103.085938 195.84375 103.261719 196.269531 C 103.4375 196.695312 103.6875 197.070312 104.015625 197.398438 C 104.339844 197.722656 104.714844 197.972656 105.140625 198.148438 C 105.566406 198.324219 106.011719 198.414062 106.46875 198.414062 C 106.929688 198.414062 107.375 198.324219 107.800781 198.148438 C 108.226562 197.972656 108.601562 197.722656 108.925781 197.398438 C 109.25 197.070312 109.503906 196.695312 109.679688 196.269531 C 109.855469 195.84375 109.941406 195.402344 109.941406 194.941406 C 109.941406 194.480469 109.851562 194.039062 109.675781 193.613281 C 109.5 193.1875 109.25 192.8125 108.921875 192.488281 C 108.597656 192.164062 108.222656 191.910156 107.796875 191.734375 C 107.375 191.558594 106.929688 191.46875 106.46875 191.46875 Z M 106.46875 191.46875 "/><g clip-rule="nonzero" clip-path="url(#a776820fd4)"><path style=" stroke:none;fill-rule:nonzero;fill:#ffffff;fill-opacity:1;" d="M 106.46875 174.75 C 105.808594 174.75 105.148438 174.78125 104.492188 174.847656 C 103.832031 174.910156 103.179688 175.007812 102.53125 175.136719 C 101.882812 175.265625 101.242188 175.425781 100.609375 175.621094 C 99.976562 175.8125 99.355469 176.035156 98.742188 176.285156 C 98.132812 176.539062 97.535156 176.820312 96.953125 177.132812 C 96.367188 177.445312 95.800781 177.785156 95.253906 178.152344 C 94.703125 178.519531 94.171875 178.914062 93.660156 179.332031 C 93.148438 179.753906 92.660156 180.195312 92.191406 180.664062 C 91.726562 181.132812 91.28125 181.621094 90.863281 182.132812 C 90.441406 182.644531 90.050781 183.171875 89.683594 183.722656 C 89.316406 184.273438 88.976562 184.839844 88.664062 185.421875 C 88.351562 186.007812 88.070312 186.601562 87.816406 187.214844 C 87.5625 187.824219 87.339844 188.445312 87.148438 189.078125 C 86.957031 189.710938 86.796875 190.351562 86.667969 191.003906 C 86.539062 191.652344 86.441406 192.304688 86.375 192.960938 C 86.3125 193.621094 86.277344 194.28125 86.277344 194.941406 C 86.277344 195.601562 86.3125 196.261719 86.375 196.921875 C 86.441406 197.578125 86.539062 198.230469 86.667969 198.878906 C 86.796875 199.527344 86.957031 200.167969 87.148438 200.800781 C 87.339844 201.433594 87.5625 202.058594 87.816406 202.667969 C 88.070312 203.277344 88.351562 203.875 88.664062 204.460938 C 88.976562 205.042969 89.316406 205.609375 89.683594 206.160156 C 90.050781 206.707031 90.441406 207.238281 90.863281 207.75 C 91.28125 208.261719 91.726562 208.75 92.191406 209.21875 C 92.660156 209.6875 93.148438 210.128906 93.660156 210.550781 C 94.171875 210.96875 94.703125 211.363281 95.253906 211.730469 C 95.800781 212.097656 96.367188 212.4375 96.953125 212.75 C 97.535156 213.058594 98.132812 213.34375 98.742188 213.59375 C 99.355469 213.847656 99.976562 214.070312 100.609375 214.261719 C 101.242188 214.457031 101.882812 214.617188 102.53125 214.746094 C 103.179688 214.875 103.832031 214.96875 104.492188 215.035156 C 105.148438 215.101562 105.808594 215.132812 106.46875 215.132812 C 107.132812 215.132812 107.792969 215.101562 108.449219 215.035156 C 109.109375 214.96875 109.761719 214.875 110.410156 214.746094 C 111.058594 214.617188 111.699219 214.457031 112.332031 214.261719 C 112.964844 214.070312 113.585938 213.847656 114.199219 213.59375 C 114.808594 213.34375 115.40625 213.058594 115.988281 212.75 C 116.570312 212.4375 117.136719 212.097656 117.6875 211.730469 C 118.238281 211.363281 118.769531 210.96875 119.28125 210.550781 C 119.789062 210.128906 120.28125 209.6875 120.746094 209.21875 C 121.214844 208.75 121.660156 208.261719 122.078125 207.75 C 122.5 207.238281 122.890625 206.707031 123.257812 206.160156 C 123.625 205.609375 123.964844 205.042969 124.277344 204.460938 C 124.589844 203.875 124.871094 203.277344 125.125 202.667969 C 125.378906 202.058594 125.601562 201.433594 125.792969 200.800781 C 125.984375 200.167969 126.144531 199.527344 126.273438 198.878906 C 126.402344 198.230469 126.5 197.578125 126.566406 196.921875 C 126.628906 196.261719 126.660156 195.601562 126.660156 194.941406 C 126.660156 194.28125 126.628906 193.621094 126.5625 192.960938 C 126.5 192.304688 126.402344 191.652344 126.273438 191.003906 C 126.144531 190.355469 125.984375 189.714844 125.789062 189.082031 C 125.597656 188.449219 125.375 187.828125 125.121094 187.214844 C 124.871094 186.605469 124.585938 186.007812 124.277344 185.425781 C 123.964844 184.839844 123.625 184.273438 123.257812 183.726562 C 122.890625 183.175781 122.496094 182.644531 122.078125 182.132812 C 121.65625 181.621094 121.214844 181.132812 120.746094 180.664062 C 120.277344 180.199219 119.789062 179.753906 119.277344 179.335938 C 118.765625 178.914062 118.234375 178.523438 117.6875 178.15625 C 117.136719 177.789062 116.570312 177.449219 115.988281 177.136719 C 115.402344 176.824219 114.808594 176.542969 114.195312 176.289062 C 113.585938 176.035156 112.964844 175.8125 112.332031 175.621094 C 111.699219 175.429688 111.058594 175.269531 110.410156 175.140625 C 109.761719 175.011719 109.105469 174.914062 108.449219 174.847656 C 107.792969 174.78125 107.132812 174.75 106.46875 174.75 Z M 116.257812 196.933594 L 117.589844 198.75 C 117.765625 198.992188 117.796875 199.253906 117.683594 199.53125 C 117.269531 200.550781 116.722656 201.492188 116.042969 202.359375 C 115.859375 202.589844 115.621094 202.6875 115.328125 202.652344 L 113.09375 202.410156 C 112.738281 202.375 112.386719 202.394531 112.035156 202.46875 C 111.683594 202.542969 111.355469 202.667969 111.046875 202.847656 C 110.738281 203.027344 110.460938 203.25 110.222656 203.515625 C 109.984375 203.78125 109.792969 204.078125 109.648438 204.402344 L 108.730469 206.464844 C 108.613281 206.738281 108.40625 206.898438 108.113281 206.949219 C 107.019531 207.09375 105.921875 207.09375 104.828125 206.949219 C 104.53125 206.898438 104.328125 206.738281 104.210938 206.464844 L 103.308594 204.417969 C 103.164062 204.089844 102.972656 203.789062 102.730469 203.523438 C 102.492188 203.253906 102.214844 203.03125 101.90625 202.847656 C 101.59375 202.667969 101.261719 202.542969 100.910156 202.464844 C 100.558594 202.390625 100.207031 202.375 99.847656 202.410156 L 97.613281 202.652344 C 97.320312 202.683594 97.085938 202.585938 96.898438 202.359375 C 96.21875 201.492188 95.671875 200.550781 95.257812 199.53125 C 95.144531 199.253906 95.175781 198.992188 95.351562 198.75 L 96.683594 196.933594 C 96.898438 196.644531 97.058594 196.332031 97.171875 195.988281 C 97.285156 195.648438 97.339844 195.300781 97.339844 194.941406 C 97.339844 194.582031 97.285156 194.234375 97.171875 193.890625 C 97.058594 193.550781 96.898438 193.238281 96.683594 192.949219 L 95.351562 191.132812 C 95.175781 190.890625 95.144531 190.628906 95.257812 190.351562 C 95.671875 189.332031 96.21875 188.386719 96.898438 187.523438 C 97.082031 187.292969 97.320312 187.195312 97.613281 187.226562 L 99.847656 187.46875 C 100.203125 187.507812 100.554688 187.492188 100.90625 187.417969 C 101.257812 187.34375 101.585938 187.21875 101.898438 187.039062 C 102.207031 186.859375 102.480469 186.636719 102.71875 186.371094 C 102.957031 186.101562 103.148438 185.804688 103.292969 185.476562 L 104.210938 183.417969 C 104.328125 183.148438 104.535156 182.988281 104.828125 182.949219 C 105.921875 182.785156 107.019531 182.785156 108.113281 182.949219 C 108.40625 182.988281 108.613281 183.148438 108.730469 183.417969 L 109.632812 185.464844 C 109.777344 185.792969 109.96875 186.09375 110.210938 186.359375 C 110.449219 186.628906 110.726562 186.851562 111.035156 187.03125 C 111.347656 187.214844 111.679688 187.339844 112.03125 187.414062 C 112.382812 187.492188 112.734375 187.507812 113.09375 187.46875 L 115.328125 187.226562 C 115.621094 187.195312 115.859375 187.292969 116.042969 187.523438 C 116.722656 188.386719 117.269531 189.332031 117.683594 190.351562 C 117.796875 190.628906 117.765625 190.890625 117.589844 191.132812 L 116.257812 192.949219 C 116.042969 193.238281 115.878906 193.550781 115.769531 193.890625 C 115.65625 194.234375 115.601562 194.582031 115.601562 194.941406 C 115.601562 195.300781 115.65625 195.648438 115.769531 195.988281 C 115.878906 196.332031 116.042969 196.644531 116.257812 196.933594 Z M 116.257812 196.933594 "/></g></g></svg>